<?xml version="1.0" encoding="utf-8"?>
<!-- Generator: Adobe Illustrator 15.0.0, SVG Export Plug-In . SVG Version: 6.00 Build 0)  -->
<!DOCTYPE svg PUBLIC "-//W3C//DTD SVG 1.1//EN" "http://www.w3.org/Graphics/SVG/1.1/DTD/svg11.dtd">
<svg version="1.1" xmlns="http://www.w3.org/2000/svg" xmlns:xlink="http://www.w3.org/1999/xlink" x="0px" y="0px"
	 width="184.468px" height="100px" viewBox="0 0 184.468 100" enable-background="new 0 0 184.468 100" xml:space="preserve">
<g id="圖層_1" display="none">
	<g display="inline">
		<polygon fill="#A28774" points="-139.794,39.803 -124.734,52.523 -123.921,65.804 -91.642,85.856 -75.164,71.124 -65.059,37.32 
			-74.612,18.163 -86.256,7.606 -102.43,8.526 -111.873,23.651 -132.148,29.75 		"/>
		<polygon fill="#867160" points="-139.794,39.803 -124.734,52.523 -123.921,65.804 -91.642,85.856 -75.164,71.124 -69.998,53.842 
			-78.049,46.094 -96.146,55.605 -92.507,68.416 -112.253,64.683 -118.96,55.17 -119.635,50.629 		"/>
		<polygon fill="#867160" points="-96.881,46.754 -82.654,40.357 -72.88,44.024 -70.464,37.586 -79.313,30.553 -94.938,32.363 		"/>
		<polygon fill="#867160" points="-110.809,47.675 -117.395,44.658 -115.646,36.714 -109.538,36.363 -105.137,42.384 		"/>
		<polygon fill="#867160" points="-92.215,7.945 -86.256,7.606 -74.612,18.163 -65.059,37.32 -78.94,19.654 -88.396,14.929 		"/>
		<polygon fill="#E9C1A3" points="-127.618,28.388 -111.873,23.651 -105.754,13.635 -102.43,8.526 -94.001,8.047 -100.703,10.417 
			-107.431,25.343 -113.461,27.143 		"/>
		<path fill="#E9C1A3" d="M-116.81,41.998"/>
	</g>
	<g display="inline">
		<path fill="#A28774" d="M-68.46,326.389l-9.662-14.339c-0.228-0.337-0.25-0.781-0.063-1.229l5.806-13.859
			c0.226-0.538,0.145-1.065-0.216-1.41l-25.645-24.496c-0.511-0.487-1.463-0.501-2.294-0.033l-25.911,14.596
			c-0.3,0.169-0.563,0.39-0.768,0.643l-30.128,37.29c-0.289,0.357-0.442,0.759-0.433,1.133l0.602,22.059
			c0.006,0.202,0.06,0.392,0.158,0.556l7.411,12.337c0.225,0.375,0.667,0.596,1.209,0.604l17.924,0.264
			c0.583,0.009,1.215-0.23,1.701-0.644l18.338-15.57c0.355-0.302,0.793-0.514,1.237-0.601l26.183-5.104
			c0.39-0.076,0.774-0.249,1.104-0.495l12.735-9.519C-68.345,327.952-68.039,327.014-68.46,326.389z"/>
		<path fill="#867160" d="M-74.942,316.769l-3.18-4.719c-0.228-0.337-0.25-0.781-0.063-1.229l5.806-13.859
			c0.226-0.538,0.145-1.065-0.216-1.41l-25.645-24.496c-0.511-0.487-1.463-0.501-2.294-0.033l-25.911,14.596
			c-0.3,0.169-0.563,0.39-0.768,0.643l-14.767,18.276c-0.44,0.545-0.554,1.175-0.298,1.647l4.247,7.832
			c0.328,0.604,1.184,0.813,2.064,0.501l23.901-8.459c0.825-0.292,1.477-0.972,1.61-1.681l2.158-11.479
			c0.219-1.161,1.743-2.085,2.905-1.76l18.173,5.081c0.462,0.129,0.78,0.441,0.875,0.859l2.412,10.556
			c0.052,0.227,0.036,0.476-0.047,0.729l-1.333,4.07c-0.175,0.534-0.046,1.037,0.345,1.348l6.797,5.401
			C-76.742,320.315-73.957,318.231-74.942,316.769z"/>
		<path fill="#867160" d="M-118.516,317.002l-15.851,4.808c-0.538,0.163-1.072,0.137-1.469-0.073l-7.518-3.982
			c-0.777-0.411-1.99-0.092-2.71,0.714l-4.247,4.756c-0.55,0.616-0.668,1.362-0.294,1.866l5.539,7.48
			c0.258,0.35,0.721,0.537,1.267,0.516l17.337-0.697c0.808-0.032,1.646-0.517,2.075-1.2l7.678-12.219
			C-115.896,317.678-116.952,316.527-118.516,317.002z"/>
		<path fill="#867160" d="M-96.795,316.566l4.154,2.738c0.615,0.405,0.68,1.218,0.153,1.947l-4.816,6.681
			c-0.477,0.66-1.325,1.097-2.111,1.086l-5.021-0.071c-0.682-0.01-1.195-0.355-1.332-0.897l-1.333-5.263
			c-0.175-0.69,0.296-1.531,1.129-2.016l7.016-4.086C-98.21,316.252-97.345,316.203-96.795,316.566z"/>
		<path fill="#867160" d="M-144.616,360.294l-3.776-0.056c-0.542-0.008-0.984-0.229-1.209-0.604l-7.411-12.337
			c-0.099-0.164-0.152-0.354-0.158-0.556l-0.208-7.647c-0.052-1.881,3.257-2.993,3.783-1.271l2.297,7.516
			c0.069,0.229,0.21,0.425,0.409,0.57l7.856,5.727c0.271,0.198,0.432,0.487,0.457,0.824l0.424,5.657
			C-142.072,359.193-143.34,360.313-144.616,360.294z"/>
		<path fill="#E9C1A3" d="M-106.422,343.147l-2.762,0.538c-0.449,0.088-0.892,0.305-1.25,0.612l-12.307,10.59l-6.034,4.993
			c-0.483,0.399-1.103,0.63-1.675,0.621l-9.361-0.138l8.51-1.998c0.493-0.115,0.966-0.383,1.321-0.746l15.179-15.519
			c0.38-0.389,0.894-0.666,1.419-0.768l7.135-1.377c0.136-0.026,0.27-0.04,0.4-0.042l0,0
			C-103.626,339.883-104.127,342.7-106.422,343.147z"/>
		<path fill="#E9C1A3" d="M-93.767,323.026"/>
	</g>
	<g display="inline">
		<path fill="#A28774" d="M-62.971,142.831l-13.564-14.47c-0.319-0.34-0.445-0.751-0.35-1.136l2.97-11.934
			c0.115-0.463-0.092-0.958-0.554-1.323l-32.878-25.959c-0.654-0.517-1.668-0.658-2.442-0.341l-24.149,9.884
			c-0.279,0.114-0.508,0.281-0.667,0.485l-23.394,30.142c-0.225,0.289-0.295,0.637-0.198,0.981l5.724,20.328
			c0.053,0.187,0.153,0.367,0.296,0.531l10.714,12.328c0.325,0.374,0.846,0.637,1.423,0.717l19.093,2.671
			c0.621,0.087,1.236-0.046,1.658-0.36l15.882-11.805c0.309-0.229,0.724-0.364,1.175-0.384l26.625-1.136
			c0.396-0.017,0.766-0.123,1.059-0.305l11.328-7.01C-62.486,144.282-62.379,143.462-62.971,142.831z"/>
		<path fill="#867160" d="M-72.07,133.124l-4.465-4.762c-0.319-0.34-0.445-0.751-0.35-1.136l2.97-11.934
			c0.115-0.463-0.092-0.958-0.554-1.323l-32.878-25.959c-0.654-0.517-1.668-0.658-2.442-0.341l-24.149,9.884
			c-0.279,0.114-0.508,0.281-0.667,0.485l-11.466,14.773c-0.342,0.44-0.317,1.003,0.063,1.472l6.314,7.764
			c0.488,0.6,1.444,0.906,2.308,0.739l23.43-4.523c0.81-0.157,1.345-0.692,1.322-1.325l-0.354-10.243
			c-0.035-1.037,1.37-1.678,2.68-1.222l20.467,7.126c0.521,0.181,0.93,0.511,1.128,0.907l4.994,10.015
			c0.107,0.215,0.148,0.442,0.118,0.663l-0.477,3.556c-0.063,0.466,0.189,0.945,0.676,1.283l8.464,5.88
			C-73.164,136.135-70.688,134.599-72.07,133.124z"/>
		<path fill="#867160" d="M-118.284,127.431l-15.723,2.265c-0.534,0.077-1.106-0.02-1.576-0.267l-8.9-4.674
			c-0.92-0.483-2.135-0.354-2.713,0.288l-3.413,3.79c-0.442,0.491-0.395,1.16,0.117,1.673l7.606,7.617
			c0.354,0.355,0.89,0.591,1.464,0.645l18.248,1.71c0.851,0.08,1.628-0.251,1.927-0.82l5.336-10.174
			C-115.347,128.406-116.733,127.208-118.284,127.431z"/>
		<path fill="#867160" d="M-95.321,129.975l5.042,3.077c0.747,0.456,1.003,1.21,0.612,1.809l-3.574,5.479
			c-0.354,0.542-1.154,0.827-1.991,0.71l-5.348-0.746c-0.727-0.102-1.351-0.488-1.622-1.004l-2.628-5.011
			c-0.345-0.657-0.038-1.365,0.734-1.697l6.507-2.799C-96.896,129.495-95.989,129.568-95.321,129.975z"/>
		<path fill="#867160" d="M-136.019,163.627l-4.022-0.563c-0.577-0.081-1.098-0.343-1.423-0.717l-10.714-12.328
			c-0.143-0.164-0.243-0.345-0.296-0.531l-1.983-7.047c-0.488-1.734,2.769-2.306,3.724-0.654l4.171,7.209
			c0.128,0.22,0.322,0.418,0.567,0.579l9.661,6.321c0.334,0.218,0.571,0.505,0.676,0.818l1.754,5.25
			C-133.57,162.962-134.659,163.818-136.019,163.627z"/>
		<path fill="#E9C1A3" d="M-99.415,153.067l-2.809,0.12c-0.457,0.02-0.877,0.158-1.187,0.392l-10.626,8.051l-5.256,3.765
			c-0.422,0.302-1.026,0.429-1.636,0.343l-9.972-1.395l8.575-0.681c0.496-0.039,0.938-0.22,1.231-0.506l12.54-12.186
			c0.313-0.305,0.794-0.49,1.329-0.512l7.259-0.297c0.137-0.006,0.276,0,0.414,0.016l0,0
			C-97.199,150.45-97.082,152.968-99.415,153.067z"/>
		<path fill="#E9C1A3" d="M-90.616,136.315"/>
	</g>
	<g display="inline">
		<path fill="#A28774" d="M-68.891,225.887l-14.045,12.303c-0.185,0.162-0.318,0.353-0.391,0.56l-7.863,22.333
			c-0.123,0.35-0.415,0.647-0.829,0.844l-18.793,8.921c-0.438,0.208-0.982,0.288-1.531,0.226l-25.154-2.87
			c-0.766-0.087-1.451-0.441-1.822-0.941l-23.355-31.464c-0.272-0.367-0.351-0.781-0.219-1.161l5.918-17.12
			c0.019-0.053,0.032-0.106,0.043-0.161l3.576-18.93c0.034-0.181,0.112-0.353,0.231-0.509l19.6-25.733
			c0.253-0.332,0.678-0.576,1.194-0.685l21.605-4.555c0.749-0.158,1.596-0.013,2.226,0.381l36.448,22.787
			c0.63,0.395,0.948,0.978,0.835,1.534l-2.3,11.381c-0.108,0.533,0.181,1.095,0.766,1.488l10.974,7.379
			c0.75,0.505,0.994,1.269,0.604,1.887l-7.445,11.792C-68.69,225.686-68.781,225.791-68.891,225.887z"/>
		<path fill="#867160" d="M-63.834,210.511l-8.917-5.996c-0.585-0.394-0.874-0.955-0.766-1.488l2.3-11.381
			c0.113-0.557-0.205-1.14-0.835-1.534l-36.448-22.787c-0.63-0.394-1.477-0.539-2.226-0.381l-21.605,4.555
			c-0.517,0.108-0.941,0.353-1.194,0.685l-19.6,25.733c-0.119,0.156-0.197,0.328-0.231,0.509l-2.358,12.483
			c-0.312,1.649,2.759,2.682,4.108,1.382l1.894-1.824c0.094-0.091,0.173-0.188,0.234-0.293l5.285-8.897
			c0.234-0.394,0.696-0.687,1.276-0.81l23.508-4.98c0.854-0.181,1.423-0.721,1.441-1.368l0.309-10.74
			c0.022-0.786,0.849-1.392,1.949-1.43l6.698-0.236c0.639-0.022,1.284,0.151,1.776,0.478l22.437,14.87
			c0.723,0.479,0.988,1.201,0.667,1.811l-2.454,4.654c-0.382,0.725,0.07,1.587,1.062,2.025l17.263,7.641
			c0.495,0.22,1.072,0.307,1.617,0.245l1.884-0.213C-62.979,213.02-62.441,211.447-63.834,210.511z"/>
		<path fill="#867160" d="M-149.751,222.56l-2.839,7.17c-0.163,0.412-0.074,0.87,0.245,1.267l11.147,13.789
			c0.227,0.28,0.339,0.594,0.324,0.903l-0.575,11.926c-0.006,0.118,0.007,0.239,0.039,0.358l0,0
			c0.484,1.822-2.961,2.483-4.206,0.807l-17.06-22.982c-0.272-0.367-0.351-0.781-0.219-1.161l3.117-9.02
			c0.087-0.251,0.262-0.477,0.51-0.658l5.64-4.133C-152.037,219.66-149.12,220.966-149.751,222.56z"/>
		<path fill="#867160" d="M-111.021,198.13l-13.135,4.763c-0.717,0.26-1.137,0.794-1.093,1.388l0.602,8.013
			c0.046,0.612,0.576,1.184,1.367,1.475l13.824,5.089c0.38,0.14,0.797,0.206,1.206,0.191l11.42-0.395
			c1.367-0.047,2.247-0.952,1.862-1.914l-3.719-9.314c-0.088-0.22-0.238-0.429-0.44-0.612l-8.992-8.154
			C-108.836,198.008-110.066,197.784-111.021,198.13z"/>
		<path fill="#867160" d="M-137.278,230.988l8.172,7.447c0.718,0.653,1.956,0.878,2.912,0.528l5.142-1.881
			c0.652-0.238,1.062-0.705,1.088-1.243l0.408-8.142c0.04-0.794-0.754-1.542-1.863-1.753l-8.616-1.642
			c-0.818-0.155-1.651,0.014-2.17,0.441l-5.106,4.215C-137.981,229.513-137.968,230.36-137.278,230.988z"/>
		<path fill="#867160" d="M-129.179,255.396l2.171,2.276c0.645,0.676,0.548,1.541-0.228,2.047l-4.455,2.907
			c-0.655,0.428-1.648,0.501-2.505,0.187l-0.391-0.145c-0.389-0.143-0.724-0.357-0.966-0.619l-1.854-2.008
			c-0.616-0.667-0.52-1.51,0.23-2.012l4.528-3.033C-131.666,254.34-130.004,254.531-129.179,255.396z"/>
		<path fill="#E9C1A3" d="M-79.615,235.281l-3.32,2.908c-0.185,0.162-0.318,0.353-0.391,0.56l-7.863,22.333
			c-0.123,0.35-0.415,0.647-0.829,0.844l-3.665,1.739c-2.144,1.019-4.834-1.142-3.111-2.498l2.082-1.642
			c0.236-0.186,0.399-0.414,0.475-0.665l6.684-22.146c0.107-0.356,0.39-0.664,0.798-0.87l5.916-2.983
			C-80.764,231.813-78.013,233.877-79.615,235.281z"/>
	</g>
	<g display="inline">
		<path fill="#A28774" d="M-107.34,360.594l13.421,6.634c0.177,0.087,0.367,0.11,0.56,0.067l20.744-4.652
			c0.324-0.073,0.639,0.043,0.892,0.327l11.5,12.96c0.268,0.302,0.448,0.773,0.508,1.327l2.705,25.368
			c0.083,0.772-0.08,1.613-0.432,2.235l-22.155,39.151c-0.259,0.457-0.598,0.755-0.95,0.836l-15.878,3.67
			c-0.049,0.012-0.098,0.027-0.146,0.047l-16.949,6.866c-0.161,0.065-0.324,0.085-0.482,0.057l-26.065-4.617
			c-0.336-0.06-0.633-0.33-0.831-0.76l-8.337-17.987c-0.289-0.623-0.339-1.504-0.131-2.313l12.035-46.848
			c0.208-0.81,0.643-1.427,1.142-1.621l10.221-3.986c0.479-0.187,0.9-0.764,1.117-1.531l4.068-14.385
			c0.277-0.983,0.882-1.629,1.491-1.594l11.629,0.661C-107.554,360.514-107.444,360.543-107.34,360.594z"/>
		<path fill="#867160" d="M-121.548,364.136l-3.306,11.688c-0.217,0.768-0.638,1.345-1.117,1.531l-10.221,3.986
			c-0.499,0.194-0.934,0.812-1.142,1.621l-12.035,46.848c-0.208,0.809-0.158,1.689,0.131,2.313l8.337,17.987
			c0.198,0.43,0.495,0.7,0.831,0.76l26.065,4.617c0.158,0.028,0.321,0.009,0.482-0.057l11.177-4.528
			c1.478-0.598,1.731-4.064,0.341-4.638l-1.952-0.805c-0.096-0.04-0.196-0.061-0.298-0.063l-8.706-0.185
			c-0.386-0.008-0.731-0.286-0.956-0.77l-9.092-19.557c-0.33-0.711-0.909-0.957-1.468-0.624l-9.263,5.525
			c-0.678,0.403-1.366-0.05-1.625-1.071l-1.577-6.214c-0.15-0.592-0.135-1.297,0.044-1.939l8.131-29.295
			c0.262-0.942,0.825-1.586,1.414-1.611l4.49-0.198c0.698-0.03,1.345-0.926,1.517-2.102l3-20.48
			c0.087-0.588,0.043-1.181-0.122-1.664l-0.569-1.668C-119.574,361.967-121.032,362.31-121.548,364.136z"/>
		<path fill="#867160" d="M-93.589,438.946l6.724-1.196c0.388-0.068,0.761-0.4,1.034-0.918l9.522-18.021
			c0.193-0.366,0.439-0.643,0.707-0.796l10.333-5.915c0.104-0.059,0.204-0.137,0.3-0.231l0,0c1.461-1.446,2.735,1.458,1.554,3.545
			l-16.183,28.598c-0.259,0.457-0.598,0.755-0.95,0.836l-8.364,1.934c-0.232,0.054-0.463,0.011-0.669-0.125l-4.697-3.101
			C-95.604,442.681-95.084,439.212-93.589,438.946z"/>
		<path fill="#867160" d="M-122.465,415.512l6.775,9.855c0.37,0.538,0.914,0.646,1.414,0.283l6.739-4.909
			c0.515-0.375,0.896-1.187,0.982-2.093l1.521-15.844c0.041-0.435,0.013-0.865-0.084-1.245l-2.682-10.598
			c-0.321-1.269-1.277-1.611-2.022-0.727l-7.215,8.565c-0.17,0.202-0.317,0.458-0.434,0.749l-5.139,12.93
			C-123.019,413.51-122.957,414.796-122.465,415.512z"/>
		<path fill="#867160" d="M-88.931,422.573l4.701-11.77c0.413-1.034,0.352-2.327-0.145-3.043l-2.667-3.85
			c-0.338-0.487-0.822-0.622-1.288-0.356l-7.057,4.022c-0.689,0.394-1.166,1.55-1.119,2.715l0.362,9.045
			c0.035,0.86,0.351,1.557,0.823,1.815l4.659,2.552C-90.05,424.038-89.327,423.566-88.931,422.573z"/>
		<path fill="#867160" d="M-69.687,401.687l1.504-3.288c0.446-0.977,1.207-1.354,1.8-0.894l3.405,2.644
			c0.5,0.388,0.768,1.289,0.674,2.27l-0.043,0.447c-0.043,0.446-0.158,0.88-0.333,1.25l-1.339,2.842
			c-0.445,0.945-1.187,1.311-1.771,0.872l-3.527-2.644C-70.081,404.612-70.258,402.936-69.687,401.687z"/>
		<path fill="#E9C1A3" d="M-97.091,365.659l3.172,1.568c0.177,0.087,0.367,0.11,0.56,0.067l20.744-4.652
			c0.324-0.073,0.639,0.043,0.892,0.327l2.243,2.528c1.312,1.479,0.014,5.194-1.502,4.299l-1.833-1.083
			c-0.208-0.122-0.437-0.153-0.667-0.089l-20.341,5.668c-0.327,0.091-0.648-0.01-0.909-0.285l-3.77-3.984
			C-99.826,368.624-98.623,364.902-97.091,365.659z"/>
	</g>
	<g display="inline">
		<path fill="#A28774" d="M-160.691,500.012l10.246-10.916c0.135-0.144,0.212-0.319,0.227-0.516l1.574-21.2
			c0.024-0.332,0.227-0.6,0.573-0.759l15.741-7.239c0.366-0.169,0.87-0.204,1.417-0.1l25.061,4.779
			c0.763,0.146,1.521,0.546,2.013,1.063l31.027,32.573c0.362,0.38,0.55,0.791,0.525,1.151l-1.102,16.261
			c-0.003,0.05-0.003,0.101,0.002,0.153l1.647,18.212c0.016,0.174-0.014,0.336-0.086,0.479l-11.99,23.601
			c-0.154,0.305-0.499,0.509-0.968,0.575l-19.634,2.752c-0.681,0.096-1.537-0.113-2.251-0.547L-148,535.209
			c-0.714-0.434-1.178-1.029-1.219-1.563l-0.846-10.938c-0.04-0.513-0.47-1.083-1.141-1.514l-12.583-8.071
			c-0.86-0.552-1.303-1.317-1.092-1.891l4.011-10.935C-160.83,500.192-160.771,500.097-160.691,500.012z"/>
		<path fill="#867160" d="M-161.43,514.636l10.225,6.559c0.671,0.431,1.101,1.001,1.141,1.514l0.846,10.938
			c0.041,0.534,0.505,1.13,1.219,1.563l41.332,25.125c0.714,0.434,1.57,0.643,2.251,0.547l19.634-2.752
			c0.469-0.066,0.813-0.271,0.968-0.575l11.99-23.601c0.072-0.143,0.102-0.305,0.086-0.479l-1.086-12.01
			c-0.144-1.587-3.387-2.837-4.34-1.673l-1.337,1.634c-0.065,0.081-0.115,0.17-0.146,0.268l-2.706,8.276
			c-0.12,0.366-0.487,0.616-1.015,0.691l-21.354,3.019c-0.775,0.109-1.18,0.593-1.023,1.224l2.597,10.468
			c0.189,0.766-0.444,1.293-1.497,1.244l-6.403-0.296c-0.61-0.028-1.281-0.248-1.844-0.605l-25.669-16.29
			c-0.827-0.524-1.278-1.251-1.132-1.821l1.114-4.354c0.174-0.678-0.495-1.556-1.57-2.063l-18.726-8.82
			c-0.537-0.253-1.117-0.384-1.627-0.366l-1.762,0.061C-162.932,512.117-163.026,513.611-161.43,514.636z"/>
		<path fill="#867160" d="M-81.724,509.613l0.81-6.781c0.047-0.39-0.162-0.844-0.578-1.256l-14.478-14.347
			c-0.295-0.292-0.487-0.607-0.557-0.908l-2.658-11.605c-0.026-0.115-0.071-0.234-0.135-0.354l0,0
			c-0.959-1.818,2.19-2.193,3.844-0.457l22.663,23.792c0.362,0.38,0.55,0.791,0.525,1.151l-0.58,8.566
			c-0.017,0.238-0.124,0.445-0.314,0.603l-4.332,3.595C-78.734,512.626-81.903,511.121-81.724,509.613z"/>
		<path fill="#867160" d="M-112.535,530.438l11.399-3.621c0.622-0.197,0.884-0.686,0.681-1.271l-2.74-7.875
			c-0.209-0.602-0.874-1.201-1.717-1.548l-14.719-6.057c-0.403-0.166-0.824-0.264-1.216-0.282l-10.92-0.512
			c-1.307-0.062-1.913,0.754-1.282,1.725l6.101,9.391c0.145,0.222,0.345,0.438,0.591,0.633l10.879,8.673
			C-114.612,530.385-113.363,530.7-112.535,530.438z"/>
		<path fill="#867160" d="M-96.037,500.4l-9.896-7.918c-0.869-0.695-2.125-1.012-2.954-0.745l-4.457,1.434
			c-0.565,0.182-0.834,0.606-0.716,1.13l1.799,7.921c0.176,0.772,1.145,1.565,2.272,1.859l8.761,2.28
			c0.833,0.216,1.592,0.116,1.977-0.261l3.795-3.717C-94.96,501.896-95.202,501.067-96.037,500.4z"/>
		<path fill="#867160" d="M-110.433,475.919l-2.71-2.395c-0.805-0.711-0.944-1.548-0.332-1.982l3.519-2.49
			c0.517-0.365,1.456-0.359,2.367,0.016l0.416,0.171c0.415,0.171,0.796,0.406,1.1,0.682l2.33,2.106
			c0.775,0.7,0.909,1.516,0.32,1.947l-3.555,2.607C-107.748,477.146-109.404,476.828-110.433,475.919z"/>
		<path fill="#E9C1A3" d="M-152.867,491.676l2.422-2.58c0.135-0.144,0.212-0.319,0.227-0.516l1.574-21.2
			c0.024-0.332,0.227-0.6,0.573-0.759l3.069-1.411c1.796-0.826,4.976,1.495,3.679,2.685l-1.569,1.439
			c-0.178,0.164-0.273,0.374-0.278,0.613l-0.485,21.109c-0.008,0.34-0.198,0.618-0.537,0.787l-4.907,2.45
			C-150.824,495.154-154.036,492.922-152.867,491.676z"/>
	</g>
</g>
<g id="圖層_2" display="none">
	<g display="inline">
		<path fill="#A28774" d="M-196.69,49.798l-8.292,12.944c-0.109,0.17-0.157,0.36-0.14,0.558l1.824,21.282
			c0.028,0.333-0.127,0.64-0.44,0.87l-14.253,10.468c-0.332,0.244-0.819,0.385-1.37,0.397l-25.278,0.553
			c-0.77,0.017-1.574-0.219-2.138-0.626l-35.527-25.657c-0.415-0.299-0.663-0.666-0.696-1.027l-1.503-16.3
			c-0.004-0.05-0.013-0.101-0.026-0.151l-4.502-17.651c-0.043-0.168-0.04-0.334,0.008-0.491l7.985-25.846
			c0.104-0.334,0.408-0.609,0.856-0.772l18.772-6.853c0.651-0.238,1.522-0.212,2.29,0.066l44.426,16.127
			c0.768,0.279,1.316,0.769,1.441,1.288l2.563,10.631c0.12,0.499,0.632,0.972,1.356,1.256l13.592,5.326
			c0.93,0.364,1.483,1.028,1.369,1.639l-2.189,11.651C-196.583,49.591-196.626,49.698-196.69,49.798z"/>
		<path fill="#867160" d="M-198.288,35.191l-11.045-4.328c-0.725-0.284-1.236-0.758-1.356-1.256l-2.563-10.631
			c-0.125-0.519-0.674-1.009-1.441-1.288l-44.426-16.127c-0.768-0.278-1.639-0.304-2.29-0.066l-18.772,6.853
			c-0.449,0.164-0.753,0.438-0.856,0.772l-7.985,25.846c-0.048,0.157-0.051,0.323-0.008,0.491l2.969,11.64
			c0.393,1.538,3.764,2.091,4.511,0.74l1.049-1.896c0.052-0.094,0.085-0.192,0.102-0.295l1.333-8.749
			c0.059-0.387,0.378-0.711,0.883-0.896l20.415-7.479c0.741-0.271,1.06-0.834,0.807-1.425l-4.201-9.798
			c-0.308-0.717,0.229-1.371,1.267-1.544l6.313-1.056c0.602-0.101,1.293-0.024,1.9,0.21l27.7,10.694
			c0.892,0.344,1.448,0.967,1.396,1.561l-0.4,4.538c-0.063,0.706,0.731,1.433,1.864,1.707l19.721,4.774
			c0.566,0.137,1.154,0.144,1.65,0.019l1.714-0.43C-196.419,37.364-196.563,35.867-198.288,35.191z"/>
		<path fill="#867160" d="M-275.477,56.936l0.285,6.872c0.016,0.395,0.293,0.8,0.765,1.12l16.441,11.129
			c0.334,0.226,0.573,0.497,0.688,0.78l4.442,10.909c0.045,0.109,0.107,0.216,0.188,0.321l0,0c1.228,1.596-1.794,2.629-3.688,1.262
			l-25.95-18.741c-0.415-0.299-0.663-0.666-0.696-1.027l-0.792-8.587c-0.022-0.239,0.05-0.467,0.211-0.663l3.667-4.464
			C-278.879,54.588-275.54,55.408-275.477,56.936z"/>
		<path fill="#867160" d="M-248.635,29.871l-10.578,5.978c-0.578,0.327-0.756,0.864-0.465,1.399l3.931,7.206
			c0.3,0.55,1.046,1.003,1.926,1.168l15.361,2.887c0.422,0.079,0.849,0.087,1.234,0.023l10.766-1.793
			c1.288-0.215,1.752-1.147,0.98-1.974l-7.459-7.996c-0.176-0.189-0.407-0.359-0.678-0.501l-12.021-6.28
			C-246.595,29.485-247.866,29.436-248.635,29.871z"/>
		<path fill="#867160" d="M-260.01,63.027l10.939,5.74c0.961,0.504,2.239,0.553,3.009,0.115l4.134-2.354
			c0.523-0.299,0.72-0.775,0.521-1.267l-3.018-7.449c-0.295-0.728-1.368-1.307-2.519-1.359l-8.934-0.409
			c-0.849-0.039-1.575,0.22-1.892,0.673l-3.123,4.472C-261.301,61.775-260.933,62.543-260.01,63.027z"/>
		<path fill="#867160" d="M-242.04,84.188l3.031,1.796c0.9,0.533,1.17,1.331,0.64,1.889l-3.047,3.201
			c-0.448,0.471-1.368,0.663-2.319,0.484l-0.434-0.082c-0.433-0.082-0.843-0.234-1.185-0.442l-2.614-1.591
			c-0.869-0.529-1.13-1.307-0.622-1.858l3.064-3.325C-244.861,83.542-243.19,83.506-242.04,84.188z"/>
		<path fill="#E9C1A3" d="M-203.022,59.683l-1.96,3.06c-0.109,0.17-0.157,0.36-0.14,0.558l1.824,21.282
			c0.028,0.333-0.127,0.64-0.44,0.87l-2.779,2.042c-1.626,1.194-5.105-0.43-4.025-1.879l1.307-1.753
			c0.148-0.198,0.208-0.426,0.176-0.664l-2.875-20.963c-0.047-0.337,0.095-0.652,0.399-0.891l4.413-3.454
			C-205.573,56.676-202.076,58.206-203.022,59.683z"/>
	</g>
	<g display="inline">
		<path fill="#A28774" d="M-196.69,161.798l-8.292,12.944c-0.109,0.17-0.157,0.36-0.14,0.558l1.824,21.282
			c0.028,0.333-0.127,0.64-0.44,0.87l-14.253,10.469c-0.332,0.243-0.819,0.385-1.37,0.396l-25.278,0.553
			c-0.77,0.017-1.574-0.219-2.138-0.626l-35.527-25.657c-0.415-0.299-0.663-0.666-0.696-1.027l-1.503-16.3
			c-0.004-0.05-0.013-0.101-0.026-0.151l-4.502-17.651c-0.043-0.168-0.04-0.334,0.008-0.491l7.985-25.846
			c0.104-0.334,0.408-0.609,0.856-0.772l18.772-6.853c0.651-0.238,1.522-0.212,2.29,0.066l44.426,16.127
			c0.768,0.279,1.316,0.769,1.441,1.288l2.563,10.631c0.12,0.499,0.632,0.972,1.356,1.256l13.592,5.326
			c0.93,0.364,1.483,1.028,1.369,1.639l-2.189,11.651C-196.583,161.591-196.626,161.698-196.69,161.798z"/>
		<path fill="#867160" d="M-198.288,147.191l-11.045-4.328c-0.725-0.284-1.236-0.758-1.356-1.256l-2.563-10.631
			c-0.125-0.519-0.674-1.009-1.441-1.288l-44.426-16.127c-0.768-0.278-1.639-0.304-2.29-0.066l-18.772,6.853
			c-0.449,0.164-0.753,0.438-0.856,0.772l-7.985,25.846c-0.048,0.157-0.051,0.323-0.008,0.491l2.969,11.64
			c0.393,1.538,3.764,2.091,4.511,0.74l1.049-1.896c0.052-0.094,0.085-0.192,0.102-0.295l1.333-8.749
			c0.059-0.387,0.378-0.711,0.883-0.896l20.415-7.479c0.741-0.271,1.06-0.834,0.807-1.425l-4.201-9.798
			c-0.308-0.717,0.229-1.371,1.267-1.544l6.313-1.056c0.602-0.101,1.293-0.024,1.9,0.21l27.7,10.694
			c0.892,0.344,1.448,0.967,1.396,1.561l-0.4,4.538c-0.063,0.706,0.731,1.433,1.864,1.707l19.721,4.774
			c0.566,0.137,1.154,0.144,1.65,0.019l1.714-0.43C-196.419,149.364-196.563,147.867-198.288,147.191z"/>
		<path fill="#867160" d="M-275.477,168.936l0.285,6.872c0.016,0.395,0.293,0.8,0.765,1.12l16.441,11.129
			c0.334,0.226,0.573,0.497,0.688,0.779l4.442,10.909c0.045,0.109,0.107,0.217,0.188,0.321l0,0c1.228,1.596-1.794,2.629-3.688,1.262
			l-25.95-18.741c-0.415-0.299-0.663-0.666-0.696-1.027l-0.792-8.587c-0.022-0.239,0.05-0.467,0.211-0.663l3.667-4.464
			C-278.879,166.588-275.54,167.408-275.477,168.936z"/>
		<path fill="#867160" d="M-248.635,141.871l-10.578,5.978c-0.578,0.327-0.756,0.864-0.465,1.399l3.931,7.206
			c0.3,0.55,1.046,1.003,1.926,1.168l15.361,2.887c0.422,0.079,0.849,0.087,1.234,0.023l10.766-1.793
			c1.288-0.215,1.752-1.147,0.98-1.974l-7.459-7.996c-0.176-0.189-0.407-0.359-0.678-0.501l-12.021-6.28
			C-246.595,141.485-247.866,141.436-248.635,141.871z"/>
		<path fill="#867160" d="M-260.01,175.027l10.939,5.74c0.961,0.504,2.239,0.553,3.009,0.115l4.134-2.354
			c0.523-0.299,0.72-0.775,0.521-1.267l-3.018-7.449c-0.295-0.728-1.368-1.307-2.519-1.359l-8.934-0.409
			c-0.849-0.039-1.575,0.22-1.892,0.673l-3.123,4.472C-261.301,173.775-260.933,174.543-260.01,175.027z"/>
		<path fill="#867160" d="M-242.04,196.188l3.031,1.796c0.9,0.533,1.17,1.331,0.64,1.889l-3.047,3.202
			c-0.448,0.47-1.368,0.662-2.319,0.483l-0.434-0.082c-0.433-0.081-0.843-0.234-1.185-0.441l-2.614-1.591
			c-0.869-0.529-1.13-1.307-0.622-1.857l3.064-3.325C-244.861,195.542-243.19,195.507-242.04,196.188z"/>
		<path fill="#E9C1A3" d="M-203.022,171.683l-1.96,3.06c-0.109,0.17-0.157,0.36-0.14,0.558l1.824,21.282
			c0.028,0.333-0.127,0.64-0.44,0.87l-2.779,2.042c-1.626,1.194-5.105-0.431-4.025-1.88l1.307-1.753
			c0.148-0.198,0.208-0.427,0.176-0.664l-2.875-20.963c-0.047-0.337,0.095-0.652,0.399-0.891l4.413-3.454
			C-205.573,168.676-202.076,170.206-203.022,171.683z"/>
	</g>
</g>
<g id="圖層_3" display="none">
	<path display="inline" fill="#666666" d="M-197.69,50.798l-8.292,12.944c-0.109,0.17-0.157,0.36-0.14,0.558l1.824,21.282
		c0.028,0.333-0.127,0.64-0.44,0.87l-14.253,10.468c-0.332,0.244-0.819,0.385-1.37,0.397l-25.278,0.553
		c-0.77,0.017-1.574-0.219-2.138-0.626l-35.527-25.657c-0.415-0.299-0.663-0.666-0.696-1.027l-1.503-16.3
		c-0.004-0.05-0.013-0.101-0.026-0.151l-4.502-17.651c-0.043-0.168-0.04-0.334,0.008-0.491l7.985-25.846
		c0.104-0.334,0.408-0.609,0.856-0.772l18.772-6.853c0.651-0.238,1.522-0.212,2.29,0.066l44.426,16.127
		c0.768,0.279,1.316,0.769,1.441,1.288l2.563,10.631c0.12,0.499,0.632,0.972,1.356,1.256l13.592,5.326
		c0.93,0.364,1.483,1.028,1.369,1.639l-2.189,11.651C-197.583,50.591-197.626,50.698-197.69,50.798z"/>
	<path display="inline" opacity="0.67" fill="#B3B3B3" d="M-199.288,36.191l-11.045-4.328c-0.725-0.284-1.236-0.758-1.356-1.256
		l-2.563-10.631c-0.125-0.519-0.674-1.009-1.441-1.288l-44.426-16.127c-0.768-0.278-1.639-0.304-2.29-0.066l-18.772,6.853
		c-0.449,0.164-0.753,0.438-0.856,0.772l-7.985,25.846c-0.048,0.157-0.051,0.323-0.008,0.491l2.969,11.64
		c0.393,1.538,3.764,2.091,4.511,0.74l1.049-1.896c0.052-0.094,0.085-0.192,0.102-0.295l1.333-8.749
		c0.059-0.387,0.378-0.711,0.883-0.896l20.415-7.479c0.741-0.271,1.06-0.834,0.807-1.425l-4.201-9.798
		c-0.308-0.717,0.229-1.371,1.267-1.544l6.313-1.056c0.602-0.101,1.293-0.024,1.9,0.21l27.7,10.694
		c0.892,0.344,1.448,0.967,1.396,1.561l-0.4,4.538c-0.063,0.706,0.731,1.433,1.864,1.707l19.721,4.774
		c0.566,0.137,1.154,0.144,1.65,0.019l1.714-0.43C-197.419,38.364-197.563,36.867-199.288,36.191z"/>
	<path display="inline" opacity="0.67" fill="#B3B3B3" d="M-276.477,57.936l0.285,6.872c0.016,0.395,0.293,0.8,0.765,1.12
		l16.441,11.129c0.334,0.226,0.573,0.497,0.688,0.78l4.442,10.909c0.045,0.109,0.107,0.216,0.188,0.321l0,0
		c1.228,1.596-1.794,2.629-3.688,1.262l-25.95-18.741c-0.415-0.299-0.663-0.666-0.696-1.027l-0.792-8.587
		c-0.022-0.239,0.05-0.467,0.211-0.663l3.667-4.464C-279.879,55.588-276.54,56.408-276.477,57.936z"/>
	<path display="inline" opacity="0.67" fill="#B3B3B3" d="M-249.635,30.871l-10.578,5.978c-0.578,0.327-0.756,0.864-0.465,1.399
		l3.931,7.206c0.3,0.55,1.046,1.003,1.926,1.168l15.361,2.887c0.422,0.079,0.849,0.087,1.234,0.023l10.766-1.793
		c1.288-0.215,1.752-1.147,0.98-1.974l-7.459-7.996c-0.176-0.189-0.407-0.359-0.678-0.501l-12.021-6.28
		C-247.595,30.485-248.866,30.436-249.635,30.871z"/>
	<path display="inline" opacity="0.67" fill="#B3B3B3" d="M-261.01,64.027l10.939,5.74c0.961,0.504,2.239,0.553,3.009,0.115
		l4.134-2.354c0.523-0.299,0.72-0.775,0.521-1.267l-3.018-7.449c-0.295-0.728-1.368-1.307-2.519-1.359l-8.934-0.409
		c-0.849-0.039-1.575,0.22-1.892,0.673l-3.123,4.472C-262.301,62.775-261.933,63.543-261.01,64.027z"/>
	<path display="inline" opacity="0.67" fill="#B3B3B3" d="M-243.04,85.188l3.031,1.796c0.9,0.533,1.17,1.331,0.64,1.889
		l-3.047,3.201c-0.448,0.471-1.368,0.663-2.319,0.484l-0.434-0.082c-0.433-0.082-0.843-0.234-1.185-0.442l-2.614-1.591
		c-0.869-0.529-1.13-1.307-0.622-1.858l3.064-3.325C-245.861,84.542-244.19,84.506-243.04,85.188z"/>
	<path display="inline" opacity="0.5" fill="#808080" d="M-204.022,60.683l-1.96,3.06c-0.109,0.17-0.157,0.36-0.14,0.558
		l1.824,21.282c0.028,0.333-0.127,0.64-0.44,0.87l-2.779,2.042c-1.626,1.194-5.105-0.43-4.025-1.879l1.307-1.753
		c0.148-0.198,0.208-0.426,0.176-0.664l-2.875-20.963c-0.047-0.337,0.095-0.652,0.399-0.891l4.413-3.454
		C-206.573,57.676-203.076,59.206-204.022,60.683z"/>
	<path display="inline" fill="#666666" d="M-197.69,162.798l-8.292,12.944c-0.109,0.17-0.157,0.36-0.14,0.558l1.824,21.282
		c0.028,0.333-0.127,0.64-0.44,0.87l-14.253,10.469c-0.332,0.243-0.819,0.385-1.37,0.396l-25.278,0.553
		c-0.77,0.017-1.574-0.219-2.138-0.626l-35.527-25.657c-0.415-0.299-0.663-0.666-0.696-1.027l-1.503-16.3
		c-0.004-0.05-0.013-0.101-0.026-0.151l-4.502-17.651c-0.043-0.168-0.04-0.334,0.008-0.491l7.985-25.846
		c0.104-0.334,0.408-0.609,0.856-0.772l18.772-6.853c0.651-0.238,1.522-0.212,2.29,0.066l44.426,16.127
		c0.768,0.279,1.316,0.769,1.441,1.288l2.563,10.631c0.12,0.499,0.632,0.972,1.356,1.256l13.592,5.326
		c0.93,0.364,1.483,1.028,1.369,1.639l-2.189,11.651C-197.583,162.591-197.626,162.698-197.69,162.798z"/>
	<path display="inline" opacity="0.67" fill="#B3B3B3" d="M-199.288,148.191l-11.045-4.328c-0.725-0.284-1.236-0.758-1.356-1.256
		l-2.563-10.631c-0.125-0.519-0.674-1.009-1.441-1.288l-44.426-16.127c-0.768-0.278-1.639-0.304-2.29-0.066l-18.772,6.853
		c-0.449,0.164-0.753,0.438-0.856,0.772l-7.985,25.846c-0.048,0.157-0.051,0.323-0.008,0.491l2.969,11.64
		c0.393,1.538,3.764,2.091,4.511,0.74l1.049-1.896c0.052-0.094,0.085-0.192,0.102-0.295l1.333-8.749
		c0.059-0.387,0.378-0.711,0.883-0.896l20.415-7.479c0.741-0.271,1.06-0.834,0.807-1.425l-4.201-9.798
		c-0.308-0.717,0.229-1.371,1.267-1.544l6.313-1.056c0.602-0.101,1.293-0.024,1.9,0.21l27.7,10.694
		c0.892,0.344,1.448,0.967,1.396,1.561l-0.4,4.538c-0.063,0.706,0.731,1.433,1.864,1.707l19.721,4.774
		c0.566,0.137,1.154,0.144,1.65,0.019l1.714-0.43C-197.419,150.364-197.563,148.867-199.288,148.191z"/>
	<path display="inline" opacity="0.67" fill="#B3B3B3" d="M-276.477,169.936l0.285,6.872c0.016,0.395,0.293,0.8,0.765,1.12
		l16.441,11.129c0.334,0.226,0.573,0.497,0.688,0.779l4.442,10.909c0.045,0.109,0.107,0.217,0.188,0.321l0,0
		c1.228,1.596-1.794,2.629-3.688,1.262l-25.95-18.741c-0.415-0.299-0.663-0.666-0.696-1.027l-0.792-8.587
		c-0.022-0.239,0.05-0.467,0.211-0.663l3.667-4.464C-279.879,167.588-276.54,168.408-276.477,169.936z"/>
	<path display="inline" opacity="0.67" fill="#B3B3B3" d="M-249.635,142.871l-10.578,5.978c-0.578,0.327-0.756,0.864-0.465,1.399
		l3.931,7.206c0.3,0.55,1.046,1.003,1.926,1.168l15.361,2.887c0.422,0.079,0.849,0.087,1.234,0.023l10.766-1.793
		c1.288-0.215,1.752-1.147,0.98-1.974l-7.459-7.996c-0.176-0.189-0.407-0.359-0.678-0.501l-12.021-6.28
		C-247.595,142.485-248.866,142.436-249.635,142.871z"/>
	<path display="inline" opacity="0.67" fill="#B3B3B3" d="M-261.01,176.027l10.939,5.74c0.961,0.504,2.239,0.553,3.009,0.115
		l4.134-2.354c0.523-0.299,0.72-0.775,0.521-1.267l-3.018-7.449c-0.295-0.728-1.368-1.307-2.519-1.359l-8.934-0.409
		c-0.849-0.039-1.575,0.22-1.892,0.673l-3.123,4.472C-262.301,174.775-261.933,175.543-261.01,176.027z"/>
	<path display="inline" opacity="0.67" fill="#B3B3B3" d="M-243.04,197.188l3.031,1.796c0.9,0.533,1.17,1.331,0.64,1.889
		l-3.047,3.202c-0.448,0.47-1.368,0.662-2.319,0.483l-0.434-0.082c-0.433-0.081-0.843-0.234-1.185-0.441l-2.614-1.591
		c-0.869-0.529-1.13-1.307-0.622-1.857l3.064-3.325C-245.861,196.542-244.19,196.507-243.04,197.188z"/>
	<path display="inline" opacity="0.5" fill="#808080" d="M-204.022,172.683l-1.96,3.06c-0.109,0.17-0.157,0.36-0.14,0.558
		l1.824,21.282c0.028,0.333-0.127,0.64-0.44,0.87l-2.779,2.042c-1.626,1.194-5.105-0.431-4.025-1.88l1.307-1.753
		c0.148-0.198,0.208-0.427,0.176-0.664l-2.875-20.963c-0.047-0.337,0.095-0.652,0.399-0.891l4.413-3.454
		C-206.573,169.676-203.076,171.206-204.022,172.683z"/>
	<g display="inline">
		<path fill="#A28774" d="M-59.69,50.798l-8.292,12.944c-0.109,0.17-0.157,0.36-0.14,0.558l1.824,21.282
			c0.028,0.333-0.127,0.64-0.44,0.87L-80.991,96.92c-0.332,0.244-0.819,0.385-1.37,0.397l-25.278,0.553
			c-0.77,0.017-1.574-0.219-2.138-0.626l-35.526-25.657c-0.415-0.299-0.663-0.666-0.696-1.027l-1.503-16.3
			c-0.005-0.05-0.014-0.101-0.026-0.151l-4.503-17.651c-0.042-0.168-0.04-0.334,0.009-0.491l7.985-25.846
			c0.104-0.334,0.408-0.609,0.856-0.772l18.772-6.853c0.651-0.238,1.522-0.212,2.29,0.066l44.426,16.127
			c0.768,0.279,1.316,0.769,1.441,1.288l2.563,10.631c0.12,0.499,0.632,0.972,1.356,1.256l13.592,5.326
			c0.93,0.364,1.483,1.028,1.369,1.639l-2.189,11.651C-59.583,50.591-59.626,50.698-59.69,50.798z"/>
		<path fill="#867160" d="M-61.288,36.191l-11.045-4.328c-0.725-0.284-1.236-0.758-1.356-1.256l-2.563-10.631
			c-0.125-0.519-0.674-1.009-1.441-1.288l-44.426-16.127c-0.768-0.278-1.639-0.304-2.29-0.066l-18.772,6.853
			c-0.448,0.164-0.753,0.438-0.856,0.772l-7.985,25.846c-0.049,0.157-0.051,0.323-0.009,0.491l2.97,11.64
			c0.392,1.538,3.763,2.091,4.511,0.74l1.049-1.896c0.052-0.094,0.086-0.192,0.102-0.295l1.334-8.749
			c0.059-0.387,0.378-0.711,0.883-0.896l20.414-7.479c0.741-0.271,1.06-0.834,0.807-1.425l-4.201-9.798
			c-0.308-0.717,0.229-1.371,1.267-1.544l6.313-1.056c0.602-0.101,1.293-0.024,1.9,0.21l27.7,10.694
			c0.892,0.344,1.448,0.967,1.396,1.561l-0.4,4.538c-0.063,0.706,0.731,1.433,1.864,1.707l19.721,4.774
			c0.566,0.137,1.154,0.144,1.65,0.019l1.714-0.43C-59.419,38.364-59.563,36.867-61.288,36.191z"/>
		<path fill="#867160" d="M-138.477,57.936l0.284,6.872c0.017,0.395,0.293,0.8,0.766,1.12l16.441,11.129
			c0.334,0.226,0.573,0.497,0.688,0.78l4.442,10.909c0.045,0.109,0.107,0.216,0.188,0.321l0,0c1.228,1.596-1.794,2.629-3.688,1.262
			l-25.949-18.741c-0.415-0.299-0.663-0.666-0.696-1.027l-0.792-8.587c-0.022-0.239,0.051-0.467,0.212-0.663l3.667-4.464
			C-141.879,55.588-138.54,56.408-138.477,57.936z"/>
		<path fill="#867160" d="M-111.635,30.871l-10.578,5.978c-0.578,0.327-0.756,0.864-0.465,1.399l3.931,7.206
			c0.3,0.55,1.046,1.003,1.926,1.168l15.361,2.887c0.422,0.079,0.849,0.087,1.234,0.023l10.766-1.793
			c1.288-0.215,1.752-1.147,0.98-1.974l-7.459-7.996c-0.176-0.189-0.407-0.359-0.678-0.501l-12.021-6.28
			C-109.595,30.485-110.866,30.436-111.635,30.871z"/>
		<path fill="#867160" d="M-123.01,64.027l10.939,5.74c0.96,0.504,2.239,0.553,3.009,0.115l4.134-2.354
			c0.523-0.299,0.72-0.775,0.521-1.267l-3.018-7.449c-0.295-0.728-1.368-1.307-2.519-1.359l-8.934-0.409
			c-0.849-0.039-1.575,0.22-1.892,0.673l-3.123,4.472C-124.301,62.775-123.933,63.543-123.01,64.027z"/>
		<path fill="#867160" d="M-105.04,85.188l3.031,1.796c0.9,0.533,1.17,1.331,0.64,1.889l-3.047,3.201
			c-0.448,0.471-1.368,0.663-2.319,0.484l-0.434-0.082c-0.433-0.082-0.843-0.234-1.185-0.442l-2.614-1.591
			c-0.869-0.529-1.13-1.307-0.622-1.858l3.064-3.325C-107.861,84.542-106.19,84.506-105.04,85.188z"/>
		<path fill="#E9C1A3" d="M-66.022,60.683l-1.96,3.06c-0.109,0.17-0.157,0.36-0.14,0.558l1.824,21.282
			c0.028,0.333-0.127,0.64-0.44,0.87l-2.779,2.042c-1.626,1.194-5.105-0.43-4.025-1.879l1.307-1.753
			c0.148-0.198,0.208-0.426,0.176-0.664l-2.875-20.963c-0.047-0.337,0.095-0.652,0.399-0.891l4.413-3.454
			C-68.573,57.676-65.076,59.206-66.022,60.683z"/>
	</g>
</g>
<g id="圖層_4">
	<g>
		<path fill="#EEAC38" d="M240.155,16.678L240.155,16.678c0.772-1.819,2.89-2.677,4.708-1.907l78.762,33.341
			c1.817,0.771,2.675,2.89,1.905,4.707c-0.769,1.82-2.888,2.677-4.705,1.907l-78.762-33.342
			C240.244,20.615,239.387,18.496,240.155,16.678"/>
		<path fill="#EEAC38" d="M238.644,31.138L238.644,31.138c0.77-1.817,2.888-2.677,4.707-1.906l95.296,40.34
			c1.819,0.771,2.677,2.889,1.906,4.708c-0.769,1.819-2.887,2.677-4.707,1.908l-95.294-40.342
			C238.73,35.075,237.874,32.957,238.644,31.138"/>
		<path fill="#EEAC38" d="M224.188,38.489L224.188,38.489c0.77-1.818,2.889-2.676,4.708-1.907l95.295,40.343
			c1.82,0.769,2.677,2.887,1.907,4.705c-0.769,1.819-2.888,2.677-4.707,1.908l-95.295-40.343
			C224.276,42.427,223.418,40.308,224.188,38.489"/>
		<path fill="#EEAC38" d="M332.41,84.303L332.41,84.303c0.77-1.819,2.888-2.677,4.706-1.906l26.456,11.197
			c1.818,0.771,2.676,2.891,1.906,4.707c-0.77,1.82-2.888,2.678-4.706,1.907l-26.457-11.199
			C332.498,88.238,331.642,86.121,332.41,84.303"/>
		<path fill="#EEAC38" d="M365.956,85.031L365.956,85.031c0.77-1.816,2.889-2.675,4.707-1.904l8.718,3.689
			c1.818,0.77,2.677,2.889,1.904,4.706c-0.77,1.817-2.886,2.679-4.704,1.907l-8.719-3.689
			C366.043,88.971,365.185,86.852,365.956,85.031"/>
		<path fill="#EEAC38" d="M338.309,58.229L338.309,58.229c0.769-1.82,2.888-2.678,4.706-1.908l8.717,3.69
			c1.819,0.773,2.679,2.888,1.908,4.705c-0.769,1.82-2.886,2.678-4.706,1.909l-8.719-3.692
			C338.396,62.166,337.538,60.047,338.309,58.229"/>
		<path fill="#EEAC38" d="M228.896,54.165L228.896,54.165c0.77-1.82,2.887-2.677,4.707-1.908L328.897,92.6
			c1.819,0.77,2.677,2.888,1.908,4.707c-0.771,1.816-2.889,2.677-4.708,1.906l-95.295-40.34
			C228.983,58.101,228.126,55.984,228.896,54.165"/>
		<path fill="#EEAC38" d="M273.757,38.631c0.687-1.621,2.443-2.47,4.104-2.092l-34.106-14.438c0,0,3.278,1.883,2.06,4.771
			c-1.224,2.884-3.964,2.082-3.964,2.082l33.259,14.082C273.682,42.105,273.07,40.254,273.757,38.631"/>
		<path fill="#EEAC38" d="M265.339,49.174c0.506-1.202,1.808-1.831,3.036-1.55l-25.249-10.692c0,0,2.425,1.399,1.521,3.534
			c-0.902,2.137-2.936,1.544-2.936,1.544l24.629,10.426C265.283,51.746,264.828,50.373,265.339,49.174"/>
		<path fill="#EEAC38" d="M280.659,69.229c0.527-1.248,1.882-1.901,3.158-1.611l-26.252-11.112c0,0,2.522,1.451,1.585,3.67
			c-0.942,2.222-3.054,1.604-3.054,1.604l25.607,10.84C280.604,71.902,280.131,70.478,280.659,69.229"/>
	</g>
	<path fill="#FFDF3C" d="M-166.636,51.768c0,0-23.311-36.489,19.372-50.231c39.551-12.732,52.722,58.519,81.317,35.797
		c0,0,0.82,16.432-15.213,11.638c0,0,29.89-6.941,37.116,13.252c0,0-7.641-7.035-17.886-6.242
		C-72.171,56.771-45.288,83.795-20,73.898c0,0-0.745,19.264-31.719,6.224c-30.972-13.04-31.893-2.8-20.318,0.767
		c11.573,3.565,27.657-2.854,24.761,19.42c0,0-10.74-13.173-24.156-11.774c-13.413,1.398-17.92,9.591-33.676-7.856
		C-120.863,63.233-153.834,85.135-166.636,51.768"/>
	<path fill="#FF8948" d="M-119.848,16.566l22.917,18.55l-19.962-1.314l16.937,12.512l-18.224,1.061l19.672,10.84l-23.815-3.269
		l12.838,10.786l-24.004-7.247l15.537,10.86c0,0-44.909-2.916-48.539-30.977C-170.123,10.304-143.442,0.583-119.848,16.566"/>
	<g>
		<path fill="#A18126" d="M-372.377,48.774l-1.858,15.162c-0.024,0.2,0.012,0.392,0.107,0.564l10.306,18.63
			c0.161,0.292,0.152,0.634-0.023,0.972l-8.025,15.335c-0.188,0.357-0.551,0.685-1.022,0.92l-21.621,10.8
			c-0.658,0.329-1.45,0.442-2.104,0.301l-41.23-8.883c-0.481-0.104-0.846-0.336-1.023-0.652l-7.984-14.227
			c-0.025-0.043-0.053-0.086-0.085-0.127l-11.131-14.234c-0.106-0.135-0.171-0.288-0.194-0.45l-3.699-26.782
			c-0.048-0.346,0.103-0.72,0.423-1.052l13.415-13.886c0.465-0.481,1.229-0.813,2.006-0.873l45.012-3.417
			c0.778-0.059,1.453,0.164,1.774,0.586l6.575,8.633c0.309,0.405,0.944,0.627,1.688,0.591l13.933-0.688
			c0.952-0.047,1.703,0.331,1.854,0.934l2.887,11.498C-372.37,48.542-372.363,48.657-372.377,48.774z"/>
		<path opacity="0.67" fill="#B3B3B3" d="M-379.75,36.128l-11.321,0.559c-0.743,0.037-1.379-0.186-1.688-0.591l-6.575-8.633
			c-0.321-0.422-0.996-0.645-1.774-0.586l-45.012,3.417c-0.778,0.059-1.541,0.391-2.006,0.873l-13.415,13.886
			c-0.321,0.332-0.471,0.706-0.423,1.052l3.699,26.782c0.022,0.163,0.088,0.315,0.194,0.45l7.34,9.387
			c0.97,1.24,4.11,0.37,4.202-1.165l0.129-2.153c0.006-0.106-0.005-0.21-0.033-0.31l-2.436-8.508
			c-0.108-0.377,0.035-0.802,0.396-1.175l14.577-15.125c0.529-0.549,0.574-1.191,0.113-1.625l-7.65-7.208
			c-0.559-0.527-0.363-1.342,0.462-1.922l5.023-3.533c0.479-0.336,1.107-0.548,1.728-0.582l28.328-1.55
			c0.912-0.05,1.649,0.29,1.848,0.853l1.515,4.293c0.236,0.668,1.221,1.006,2.312,0.794l19.003-3.688
			c0.546-0.105,1.057-0.339,1.435-0.654l1.305-1.09C-377.243,37.344-377.981,36.041-379.75,36.128z"/>
		<path opacity="0.67" fill="#B3B3B3" d="M-437.547,87.367l3.064,6.139c0.176,0.354,0.581,0.609,1.12,0.708l18.775,3.433
			c0.382,0.07,0.7,0.219,0.915,0.43l8.314,8.121c0.083,0.081,0.182,0.154,0.294,0.216l0,0c1.715,0.953-0.473,3.125-2.67,2.651
			l-30.116-6.489c-0.481-0.104-0.846-0.336-1.023-0.652l-4.206-7.495c-0.117-0.208-0.148-0.445-0.089-0.689l1.339-5.558
			C-441.451,86.616-438.229,86.002-437.547,87.367z"/>
		<path opacity="0.67" fill="#B3B3B3" d="M-425.448,51.794l-6.69,9.751c-0.365,0.532-0.299,1.095,0.172,1.462l6.353,4.958
			c0.484,0.379,1.315,0.487,2.144,0.279l14.461-3.63c0.397-0.1,0.77-0.266,1.076-0.482l8.569-6.018
			c1.025-0.72,1.044-1.758,0.039-2.196l-9.728-4.241c-0.229-0.1-0.499-0.162-0.791-0.18l-12.966-0.82
			C-423.843,50.612-424.962,51.085-425.448,51.794z"/>
		<path opacity="0.67" fill="#B3B3B3" d="M-421.681,86.611l11.81,0.769c1.037,0.067,2.162-0.409,2.647-1.121l2.607-3.828
			c0.33-0.485,0.304-0.999-0.07-1.365l-5.663-5.552c-0.553-0.542-1.718-0.632-2.733-0.211l-7.89,3.267
			c-0.749,0.31-1.271,0.842-1.358,1.384l-0.865,5.343C-423.31,85.998-422.677,86.547-421.681,86.611z"/>
		<path opacity="0.5" fill="#808080" d="M-373.797,60.352l-0.438,3.584c-0.024,0.2,0.012,0.392,0.107,0.564l10.306,18.63
			c0.161,0.292,0.152,0.634-0.023,0.972l-1.565,2.991c-0.916,1.75-4.589,1.688-4.25-0.071l0.41-2.128
			c0.047-0.241,0.006-0.473-0.12-0.676l-11.083-17.912c-0.179-0.288-0.186-0.632-0.02-0.974l2.397-4.942
			C-377.234,58.654-373.584,58.622-373.797,60.352z"/>
	</g>
	<g>
		<path opacity="0.67" fill="#B3B3B3" d="M-312.605-31.755l-0.607,1.137c-0.181,0.337-0.468,0.45-0.68,0.265l-1.22-1.062
			c-0.18-0.157-0.265-0.49-0.214-0.84l0.023-0.16c0.022-0.159,0.07-0.312,0.141-0.44l0.54-0.981
			c0.179-0.327,0.459-0.435,0.669-0.258l1.265,1.066C-312.414-32.797-312.375-32.186-312.605-31.755z"/>
		<path fill="#DF4726" d="M-284.058-37.171l-1.86,5.551c-0.024,0.073-0.025,0.148-0.002,0.22l2.439,7.786
			c0.04,0.122,0.01,0.25-0.083,0.363l-4.189,5.145c-0.097,0.118-0.259,0.214-0.453,0.267l-8.947,2.397
			c-0.272,0.073-0.579,0.055-0.814-0.048l-14.8-6.498c-0.175-0.076-0.292-0.191-0.335-0.322l-1.907-5.955
			c-0.006-0.018-0.014-0.037-0.021-0.055l-3.089-6.198c-0.029-0.06-0.043-0.121-0.038-0.183l0.665-10.341
			c0.009-0.134,0.094-0.263,0.239-0.363l6.102-4.185c0.213-0.145,0.524-0.21,0.821-0.173l17.164,2.168
			c0.297,0.038,0.533,0.173,0.621,0.356l1.808,3.746c0.084,0.175,0.307,0.308,0.589,0.352l5.284,0.81
			c0.361,0.056,0.614,0.254,0.625,0.493l0.202,4.539C-284.037-37.258-284.043-37.214-284.058-37.171z"/>
		<path fill="#AA2D2E" d="M-285.856-42.485l-4.293-0.658c-0.282-0.043-0.505-0.176-0.589-0.352l-1.808-3.746
			c-0.088-0.184-0.324-0.319-0.621-0.356l-17.164-2.168c-0.297-0.037-0.608,0.029-0.821,0.173l-6.102,4.185
			c-0.146,0.101-0.23,0.229-0.239,0.363l-0.665,10.341c-0.005,0.063,0.009,0.124,0.038,0.183l2.037,4.087
			c0.268,0.541,1.515,0.454,1.666-0.115l0.215-0.799c0.009-0.041,0.014-0.08,0.011-0.119l-0.262-3.381
			c-0.013-0.149,0.075-0.299,0.237-0.411l6.634-4.563c0.242-0.166,0.308-0.404,0.168-0.602l-2.32-3.293
			c-0.169-0.241-0.034-0.531,0.321-0.686l2.157-0.942c0.205-0.089,0.458-0.121,0.692-0.086l10.757,1.59
			c0.347,0.051,0.598,0.235,0.629,0.461l0.238,1.729c0.038,0.268,0.382,0.47,0.809,0.475l7.418,0.073
			c0.213,0.002,0.424-0.046,0.588-0.136l0.574-0.309C-285.008-41.836-285.186-42.382-285.856-42.485z"/>
		<path fill="#AA2D2E" d="M-311.488-27.676l0.68,2.54c0.04,0.146,0.172,0.273,0.366,0.352l6.788,2.729
			c0.137,0.055,0.245,0.135,0.31,0.231l2.501,3.687c0.023,0.038,0.056,0.072,0.092,0.104l0,0c0.571,0.489-0.416,1.137-1.204,0.792
			l-10.812-4.747c-0.175-0.076-0.292-0.191-0.335-0.322l-1.005-3.137c-0.027-0.086-0.021-0.179,0.02-0.265l0.929-1.984
			C-312.896-28.258-311.64-28.241-311.488-27.676z"/>
		<path fill="#AA2D2E" d="M-304.217-40.107l-3.261,3.149c-0.179,0.172-0.195,0.388-0.048,0.563l2.005,2.348
			c0.153,0.181,0.458,0.284,0.785,0.27l5.708-0.254c0.155-0.007,0.309-0.042,0.44-0.099l3.681-1.603
			c0.439-0.191,0.525-0.58,0.182-0.821l-3.326-2.339c-0.079-0.055-0.176-0.099-0.284-0.128l-4.806-1.302
			C-303.524-40.427-303.98-40.335-304.217-40.107z"/>
		<path fill="#AA2D2E" d="M-305.472-26.744l4.375,1.194c0.384,0.105,0.844,0.013,1.08-0.218l1.272-1.238
			c0.161-0.156,0.19-0.351,0.079-0.518l-1.702-2.519c-0.165-0.246-0.596-0.368-1.01-0.289l-3.213,0.622
			c-0.306,0.06-0.541,0.219-0.616,0.416l-0.734,1.94C-306.037-27.099-305.842-26.845-305.472-26.744z"/>
		<path opacity="0.5" fill="#808080" d="M-285.478-32.932l-0.44,1.312c-0.024,0.073-0.025,0.148-0.002,0.22l2.439,7.786
			c0.04,0.122,0.01,0.25-0.083,0.363l-0.815,1.003c-0.479,0.587-1.853,0.282-1.591-0.352l0.317-0.768
			c0.035-0.087,0.038-0.178,0.006-0.264l-2.788-7.575c-0.045-0.122-0.021-0.252,0.068-0.368l1.278-1.671
			C-286.639-33.834-285.266-33.565-285.478-32.932z"/>
	</g>
	<g>
		<path fill="#A28774" d="M-514.882-85.361l-8.292,12.944c-0.109,0.17-0.157,0.36-0.14,0.558l1.824,21.282
			c0.028,0.333-0.127,0.64-0.44,0.87l-14.253,10.468c-0.332,0.244-0.819,0.385-1.37,0.397l-25.278,0.553
			c-0.77,0.017-1.574-0.219-2.138-0.626l-35.526-25.657c-0.415-0.299-0.663-0.666-0.696-1.027l-1.503-16.3
			c-0.005-0.05-0.014-0.101-0.026-0.151l-4.503-17.651c-0.042-0.168-0.04-0.334,0.009-0.491l7.985-25.846
			c0.104-0.334,0.408-0.609,0.856-0.772l18.772-6.853c0.651-0.238,1.522-0.212,2.29,0.066l44.426,16.127
			c0.768,0.279,1.316,0.769,1.441,1.288l2.563,10.631c0.12,0.499,0.632,0.972,1.356,1.256l13.592,5.326
			c0.93,0.364,1.483,1.028,1.369,1.639l-2.189,11.651C-514.774-85.569-514.817-85.461-514.882-85.361z"/>
		<path fill="#867160" d="M-516.479-99.968l-11.045-4.328c-0.725-0.284-1.236-0.758-1.356-1.256l-2.563-10.631
			c-0.125-0.519-0.674-1.009-1.441-1.288l-44.426-16.127c-0.768-0.278-1.639-0.304-2.29-0.066l-18.772,6.853
			c-0.448,0.164-0.753,0.438-0.856,0.772l-7.985,25.846c-0.049,0.157-0.051,0.323-0.009,0.491l2.97,11.64
			c0.392,1.538,3.763,2.091,4.511,0.74l1.049-1.896c0.052-0.094,0.086-0.192,0.102-0.295l1.334-8.749
			c0.059-0.387,0.378-0.711,0.883-0.896l20.414-7.479c0.741-0.271,1.06-0.834,0.807-1.425l-4.201-9.798
			c-0.308-0.717,0.229-1.371,1.267-1.544l6.313-1.056c0.602-0.101,1.293-0.024,1.9,0.21l27.7,10.694
			c0.892,0.344,1.448,0.967,1.396,1.561l-0.4,4.538c-0.063,0.706,0.731,1.433,1.864,1.707l19.721,4.774
			c0.566,0.137,1.154,0.144,1.65,0.019l1.714-0.43C-514.61-97.796-514.755-99.292-516.479-99.968z"/>
		<path fill="#867160" d="M-593.668-78.224l0.284,6.872c0.017,0.395,0.293,0.8,0.766,1.12l16.441,11.129
			c0.334,0.226,0.573,0.497,0.688,0.78l4.442,10.909c0.045,0.109,0.107,0.216,0.188,0.321l0,0c1.228,1.596-1.794,2.629-3.688,1.262
			l-25.949-18.741c-0.415-0.299-0.663-0.666-0.696-1.027l-0.792-8.587c-0.022-0.239,0.051-0.467,0.212-0.663l3.667-4.464
			C-597.07-80.572-593.731-79.752-593.668-78.224z"/>
		<path fill="#867160" d="M-566.826-105.289l-10.578,5.978c-0.578,0.327-0.756,0.864-0.465,1.399l3.931,7.206
			c0.3,0.55,1.046,1.003,1.926,1.168l15.361,2.887c0.422,0.079,0.849,0.087,1.234,0.023l10.766-1.793
			c1.288-0.215,1.752-1.147,0.98-1.974l-7.459-7.996c-0.176-0.189-0.407-0.359-0.678-0.501l-12.021-6.28
			C-564.786-105.675-566.058-105.724-566.826-105.289z"/>
		<path fill="#867160" d="M-578.201-72.132l10.939,5.74c0.96,0.504,2.239,0.553,3.009,0.115l4.134-2.354
			c0.523-0.299,0.72-0.775,0.521-1.267l-3.018-7.449c-0.295-0.728-1.368-1.307-2.519-1.359l-8.934-0.409
			c-0.849-0.039-1.575,0.22-1.892,0.673l-3.123,4.472C-579.492-73.385-579.124-72.617-578.201-72.132z"/>
		<path fill="#867160" d="M-560.231-50.971l3.031,1.796c0.9,0.533,1.17,1.331,0.64,1.889l-3.047,3.201
			c-0.448,0.471-1.368,0.663-2.319,0.484l-0.434-0.082c-0.433-0.082-0.843-0.234-1.185-0.442l-2.614-1.591
			c-0.869-0.529-1.13-1.307-0.622-1.858l3.064-3.325C-563.053-51.618-561.382-51.653-560.231-50.971z"/>
		<path fill="#E9C1A3" d="M-521.214-75.477l-1.96,3.06c-0.109,0.17-0.157,0.36-0.14,0.558l1.824,21.282
			c0.028,0.333-0.127,0.64-0.44,0.87l-2.779,2.042c-1.626,1.194-5.105-0.43-4.025-1.879l1.307-1.753
			c0.148-0.198,0.208-0.426,0.176-0.664l-2.875-20.963c-0.047-0.337,0.095-0.652,0.399-0.891l4.413-3.454
			C-523.765-78.484-520.268-76.954-521.214-75.477z"/>
	</g>
	<path fill="#743A5C" d="M-537.882,7.639l-8.292,12.944c-0.109,0.17-0.157,0.36-0.14,0.558l1.824,21.282
		c0.028,0.333-0.127,0.64-0.44,0.87l-14.253,10.469c-0.332,0.243-0.819,0.385-1.37,0.396l-25.278,0.553
		c-0.77,0.017-1.574-0.219-2.138-0.626l-35.526-25.657c-0.415-0.299-0.663-0.666-0.696-1.027l-1.503-16.3
		c-0.005-0.05-0.014-0.101-0.026-0.151l-4.503-17.651c-0.042-0.168-0.04-0.334,0.009-0.491l7.985-25.846
		c0.104-0.334,0.408-0.609,0.856-0.772l18.772-6.853c0.651-0.238,1.522-0.212,2.29,0.066l44.426,16.127
		c0.768,0.279,1.316,0.769,1.441,1.288l2.563,10.631c0.12,0.499,0.632,0.972,1.356,1.256l13.592,5.326
		c0.93,0.364,1.483,1.028,1.369,1.639l-2.189,11.651C-537.774,7.431-537.817,7.539-537.882,7.639z"/>
	<path opacity="0.67" fill="#B3B3B3" d="M-539.479-6.968l-11.045-4.328c-0.725-0.284-1.236-0.758-1.356-1.256l-2.563-10.631
		c-0.125-0.519-0.674-1.009-1.441-1.288l-44.426-16.127c-0.768-0.278-1.639-0.304-2.29-0.066l-18.772,6.853
		c-0.448,0.164-0.753,0.438-0.856,0.772l-7.985,25.846c-0.049,0.157-0.051,0.323-0.009,0.491l2.97,11.64
		c0.392,1.538,3.763,2.091,4.511,0.74l1.049-1.896c0.052-0.094,0.086-0.192,0.102-0.295l1.334-8.749
		c0.059-0.387,0.378-0.711,0.883-0.896l20.414-7.479c0.741-0.271,1.06-0.834,0.807-1.425l-4.201-9.798
		c-0.308-0.717,0.229-1.371,1.267-1.544l6.313-1.056c0.602-0.101,1.293-0.024,1.9,0.21l27.7,10.694
		c0.892,0.344,1.448,0.967,1.396,1.561l-0.4,4.538c-0.063,0.706,0.731,1.433,1.864,1.707l19.721,4.774
		c0.566,0.137,1.154,0.144,1.65,0.019l1.714-0.43C-537.61-4.796-537.755-6.292-539.479-6.968z"/>
	<path opacity="0.67" fill="#B3B3B3" d="M-616.668,14.776l0.284,6.872c0.017,0.395,0.293,0.8,0.766,1.12l16.441,11.129
		c0.334,0.226,0.573,0.497,0.688,0.78l4.442,10.909c0.045,0.109,0.107,0.216,0.188,0.321l0,0c1.228,1.596-1.794,2.629-3.688,1.262
		l-25.949-18.741c-0.415-0.299-0.663-0.666-0.696-1.027l-0.792-8.587c-0.022-0.239,0.051-0.467,0.212-0.663l3.667-4.464
		C-620.07,12.428-616.731,13.248-616.668,14.776z"/>
	<path opacity="0.67" fill="#B3B3B3" d="M-589.826-12.289l-10.578,5.978c-0.578,0.327-0.756,0.864-0.465,1.399l3.931,7.206
		c0.3,0.55,1.046,1.003,1.926,1.168l15.361,2.887c0.422,0.079,0.849,0.087,1.234,0.023l10.766-1.793
		c1.288-0.215,1.752-1.147,0.98-1.974l-7.459-7.996c-0.176-0.189-0.407-0.359-0.678-0.501l-12.021-6.28
		C-587.786-12.675-589.058-12.724-589.826-12.289z"/>
	<path opacity="0.67" fill="#B3B3B3" d="M-601.201,20.868l10.939,5.74c0.96,0.504,2.239,0.553,3.009,0.115l4.134-2.354
		c0.523-0.299,0.72-0.775,0.521-1.267l-3.018-7.449c-0.295-0.728-1.368-1.307-2.519-1.359l-8.934-0.409
		c-0.849-0.039-1.575,0.22-1.892,0.673l-3.123,4.472C-602.492,19.615-602.124,20.383-601.201,20.868z"/>
	<path opacity="0.67" fill="#B3B3B3" d="M-583.231,42.029l3.031,1.796c0.9,0.533,1.17,1.331,0.64,1.889l-3.047,3.202
		c-0.448,0.471-1.368,0.663-2.319,0.484l-0.434-0.082c-0.433-0.082-0.843-0.234-1.185-0.442l-2.614-1.591
		c-0.869-0.529-1.13-1.307-0.622-1.858l3.064-3.325C-586.053,41.382-584.382,41.347-583.231,42.029z"/>
	<path opacity="0.5" fill="#808080" d="M-544.214,17.523l-1.96,3.06c-0.109,0.17-0.157,0.36-0.14,0.558l1.824,21.282
		c0.028,0.333-0.127,0.64-0.44,0.87l-2.779,2.042c-1.626,1.194-5.105-0.43-4.025-1.879l1.307-1.753
		c0.148-0.198,0.208-0.426,0.176-0.664l-2.875-20.963c-0.047-0.337,0.095-0.652,0.399-0.891l4.413-3.454
		C-546.765,14.516-543.268,16.046-544.214,17.523z"/>
	<path fill="#E3582B" d="M-211.585-96.461c-1.139-1.918-2.861-7.292,5.805-12.886c8.667-5.594,20.882-8.006,20.882-8.006
		l-1.693,1.796l6.928-2.155l-1.283,1.642l6.158-1.642l-0.975,1.283l8.417-2.104l-5.748,5.029l1.437-0.359l-2.412,2.822l1.643-0.616
		l-4.824,3.798l2.207-0.564l-4.054,3.567h1.437c0,0-14.216,8.032-20.375,10.392C-204.195-92.104-208.352-91.016-211.585-96.461"/>
	<path fill="#EC8F26" d="M-210.969-96.461c-1.262-2.335-1.737-5.906,2.544-9.653c4.282-3.746,16.034-6.826,16.034-6.826
		l-1.643,1.899l8.52-2.822l-1.438,1.642l4.772-1.18l-1.59,1.385l5.695-1.642l-5.439,4.785l2.72-0.987l-4.619,4.413l2.258-0.154
		l-5.028,3.644l2.822-0.465c0,0-9.249,5.7-14.683,7.906C-205.478-92.309-209.276-93.327-210.969-96.461"/>
	<path fill="#F4E829" d="M-210.936-97.572c-1.38-2.856,1.313-6.827,3.839-8.255c2.528-1.428,7.716-3.046,7.716-3.046l-1.146,1.523
		l5.192-1.237l-2.57,1.856l7.567-1.856l-5.474,3.975l4.664-0.691l-3.903,3.521l3.142-0.75l-2.903,2.939l2.189-0.397
		c0,0-7.063,4.422-10.852,5.538C-208.805-92.881-210.936-97.572-210.936-97.572"/>
	<path fill="#E3582B" d="M-207.068-103.908c-1.232,0.205-2.566,0.925-2.566,2.155c0,1.232-0.411,1.745,0,3.182
		c0.411,1.438,3.182,2.67,4.003,2.771c0.821,0.104,3.49-0.307,4.106-1.129c0.614-0.821,1.025-2.873,1.436-4.311
		c0.411-1.437-2.052-3.182-2.873-3.593C-203.785-105.242-207.068-103.908-207.068-103.908"/>
	<path fill="#C44D26" d="M-204.605-103.036c0.301-0.387,0.669-1.134,0.631-1.82c-1.27,0.208-3.094,0.949-3.094,0.949
		c-0.172,0.028-0.346,0.068-0.519,0.117c0.298,0.424,0.759,0.945,1.288,1.063C-205.375-102.522-204.964-102.573-204.605-103.036"/>
	<path fill="#C44D26" d="M-206.997-101.034c-1.1,0.633,0.41,2.361,1.231,2.617c0.821,0.257,1.591-0.359,1.591-1.025
		C-204.175-100.11-204.944-102.213-206.997-101.034"/>
	<path fill="#C44D26" d="M-203.972-97.133c-0.701,0.104-0.736,0.051-1.506,0.309c-0.41,0.135-0.779,0.476-1.035,0.764
		c0.367,0.145,0.682,0.236,0.881,0.262c0.501,0.063,1.687-0.066,2.677-0.361C-203.069-96.737-203.542-97.196-203.972-97.133"/>
	<path fill="#C44D26" d="M-202.091-99.872c-1.021,0.632-1.078,1.25-0.513,1.814c0.357,0.358,0.635,0.903,0.999,1.213
		c0.027-0.027,0.057-0.055,0.079-0.084c0.412-0.549,0.731-1.651,1.021-2.75C-201.005-100.01-201.615-100.166-202.091-99.872"/>
	<path fill="#C44D26" d="M-201.6-103.905c-0.402,0.089-0.758,0.262-0.953,0.511c-0.606,0.776-1.078,1.796,0,2.206
		c1.078,0.411,2.002,0.257,2.463-0.051C-199.832-102.142-200.709-103.167-201.6-103.905"/>
	<path fill="#C44D26" d="M-208.629-97.264c0.266-0.605,0.271-1.396,0.021-2.076c-0.194-0.529-0.708-0.954-1.136-1.232
		c-0.084,0.573-0.146,1.109,0.11,2.002C-209.501-98.102-209.115-97.657-208.629-97.264"/>
	<g>
		<path fill="#E3582B" d="M254.485,10.738c-5.873-7.142-15.476-13.002-23.503-8.398c-8.039,4.611-12.897,3.892-20.756,11.904
			c-7.866,8.016-5.717,30.395-3.356,36.043c2.342,5.653,14.836,21.236,22.467,22.113c7.618,0.867,22.515-4.173,33.401-6.923
			c10.886-2.734,13.213-25.063,12.872-31.867C275.263,26.803,254.485,10.738,254.485,10.738"/>
		<path fill="#C44D26" d="M257.852,29.794c3.631,0.482,9.862,0.046,14.197-2.764c-6.027-7.364-17.566-16.291-17.566-16.291
			c-0.819-0.998-1.72-1.963-2.675-2.889c-1.673,3.499-3.373,8.402-2.197,12.239C251.672,26.781,253.514,29.228,257.852,29.794"/>
		<path fill="#C44D26" d="M235.995,21.946c-8.172-4.685-13.896,11.466-12.546,17.689c1.348,6.23,8.197,8.858,12.542,6.367
			C240.349,43.502,251.244,30.699,235.995,21.946"/>
		<path fill="#C44D26" d="M221.676,55.942c-3.252-4.108-3.037-4.533-7.549-8.501c-2.389-2.127-5.971-3.219-8.792-3.782
			c0.408,2.895,0.967,5.256,1.535,6.628c1.434,3.446,6.635,10.567,12.2,15.813C222.408,63.213,223.665,58.466,221.676,55.942"/>
		<path fill="#C44D26" d="M246.461,57.763c-7.881-4.19-12.123-2.242-13.723,3.501c-1.027,3.631-3.562,7.448-4.241,10.941
			c0.28,0.074,0.566,0.161,0.84,0.195c5.096,0.59,13.463-1.488,21.698-3.737C251.359,64.206,250.127,59.712,246.461,57.763"/>
		<path fill="#C44D26" d="M274.584,45.821c-2.066-2.249-4.501-3.881-6.842-4.2c-7.296-0.986-15.683-0.196-14.393,8.253
			c1.283,8.453,5.688,13.801,9.389,15.604C269.58,63.752,273.039,54.296,274.584,45.821"/>
		<path fill="#C44D26" d="M205.399,25.583c4.93-0.559,10.107-3.49,13.622-7.635c2.738-3.227,3.62-8.112,3.862-11.896
			c-4.049,1.605-7.776,3.208-12.654,8.197C207.659,16.854,206.173,20.996,205.399,25.583"/>
	</g>
	<g>
		<path opacity="0.67" fill="#B3B3B3" d="M-209.643,42.917l0.799-3.413c0.236-1.014,0.905-1.508,1.586-1.169l3.9,1.945
			c0.574,0.286,1.025,1.103,1.136,2.06l0.051,0.436c0.051,0.435,0.026,0.871-0.067,1.257l-0.727,2.957
			c-0.243,0.982-0.896,1.461-1.563,1.143l-4.022-1.925C-209.422,45.79-209.944,44.213-209.643,42.917z"/>
		<path fill="#A28774" d="M-251.267,92.639c10.669,7.269,25.742,11.369,34.447,2.057c8.718-9.327,15.424-10.265,22.508-24.079
			c7.096-13.821-4.911-42.979-10.335-49.626c-5.414-6.662-28.281-22.661-38.706-20.848c-10.409,1.818-28,14.404-41.238,22.348
			c-13.239,7.929-7.161,38.764-3.925,47.755C-285.267,79.235-251.267,92.639-251.267,92.639"/>
		<path fill="#867160" d="M-263.523,68.409c-4.986,0.775-13.028,3.798-17.597,9.262c10.969,7.512,29.857,14.963,29.857,14.963
			c1.485,1.017,3.069,1.958,4.708,2.825c0.772-5.343,1.008-12.582-2.115-17.264C-254.132,70.031-257.566,67.472-263.523,68.409"/>
		<path fill="#867160" d="M-231.467,70.376c12.702,3.082,13.638-20.805,9.306-28.62c-4.328-7.823-14.447-8.668-19.157-3.628
			C-246.046,43.183-255.169,64.612-231.467,70.376"/>
		<path fill="#867160" d="M-226.506,19.204c5.978,4.235,5.87,4.885,13.449,8.442c4.021,1.917,9.194,1.978,13.146,1.629
			c-1.724-3.722-3.427-6.667-4.736-8.286c-3.307-4.059-13.089-11.568-22.582-16.424C-230.45,9.746-230.16,16.602-226.506,19.204"/>
		<path fill="#867160" d="M-259.949,26.465c12.112,2.529,16.909-1.743,16.674-10.063c-0.138-5.271,1.642-11.38,1.106-16.331
			c-0.397,0.011-0.81,0.01-1.184,0.07c-6.969,1.203-17.156,7.263-27.1,13.501C-269.053,19.742-265.587,25.285-259.949,26.465"/>
		<path fill="#867160" d="M-292.161,53.478c3.642,2.204,7.522,3.438,10.747,2.952c10.03-1.536,20.772-5.875,15.608-16.696
			c-5.157-10.829-13.16-16.273-18.784-17.244C-292.91,27.481-293.598,41.511-292.161,53.478"/>
		<path fill="#867160" d="M-192.59,53.528c-6.271,2.682-11.904,8.633-14.843,15.566c-2.291,5.397-1.453,12.289-0.221,17.457
			c4.681-3.737,8.941-7.348,13.337-15.941C-191.994,66.111-191.729,59.979-192.59,53.528"/>
	</g>
	<g>
		<path fill="#DC4D1F" d="M-72.267-60.046c4.265,5.613,3.17,13.622-2.443,17.888c-5.615,4.265-13.623,3.171-17.889-2.443
			c-4.264-5.615-3.172-13.623,2.443-17.888C-84.541-66.754-76.532-65.661-72.267-60.046"/>
		<path fill="#EEAC38" d="M-89.297-44.389L-89.297-44.389c-0.804,0.61-1.959,0.452-2.569-0.351l-26.414-34.771
			c-0.609-0.803-0.451-1.959,0.352-2.568c0.803-0.61,1.959-0.452,2.568,0.351l26.414,34.771
			C-88.336-46.155-88.494-44.999-89.297-44.389"/>
		<path fill="#EEAC38" d="M-84.954-50.409L-84.954-50.409c-0.803,0.609-1.959,0.452-2.569-0.352l-31.959-42.07
			c-0.61-0.804-0.452-1.959,0.351-2.569s1.959-0.452,2.569,0.351l31.959,42.071C-83.993-52.175-84.151-51.019-84.954-50.409"/>
		<path fill="#EEAC38" d="M-76.685-49.993L-76.685-49.993c-0.803,0.609-1.959,0.451-2.569-0.352l-31.959-42.071
			c-0.61-0.803-0.452-1.959,0.351-2.568c0.803-0.61,1.959-0.452,2.569,0.351l31.959,42.071
			C-75.724-51.759-75.882-50.603-76.685-49.993"/>
		<path fill="#EEAC38" d="M-112.979-97.771L-112.979-97.771c-0.803,0.61-1.959,0.452-2.568-0.351l-8.873-11.68
			c-0.609-0.803-0.451-1.959,0.352-2.568c0.803-0.61,1.959-0.452,2.568,0.351l8.873,11.68
			C-112.019-99.537-112.177-98.38-112.979-97.771"/>
		<path fill="#EEAC38" d="M-127.651-106.614L-127.651-106.614c-0.803,0.609-1.959,0.451-2.568-0.352l-2.924-3.849
			c-0.61-0.803-0.452-1.959,0.352-2.568c0.803-0.609,1.959-0.453,2.568,0.351l2.924,3.849
			C-126.689-108.38-126.848-107.224-127.651-106.614"/>
		<path fill="#EEAC38" d="M-122.214-87.721L-122.214-87.721c-0.803,0.61-1.959,0.452-2.569-0.351l-2.923-3.849
			c-0.609-0.804-0.453-1.959,0.35-2.568c0.803-0.61,1.959-0.453,2.569,0.35l2.924,3.85
			C-121.253-89.487-121.411-88.331-122.214-87.721"/>
		<path fill="#EEAC38" d="M-74.788-58.131L-74.788-58.131c-0.804,0.61-1.959,0.452-2.569-0.351l-31.959-42.071
			c-0.61-0.803-0.452-1.959,0.351-2.569c0.803-0.609,1.959-0.452,2.569,0.352l31.959,42.07
			C-73.827-59.897-73.985-58.742-74.788-58.131"/>
		<path fill="#EEAC38" d="M-98.603-62.646c-0.716,0.544-1.709,0.474-2.349-0.115l11.438,15.057c0,0-0.974-1.667,0.299-2.636
			c1.275-0.967,2.285,0.085,2.285,0.085L-98.083-64.94C-97.687-64.166-97.886-63.19-98.603-62.646"/>
		<path fill="#EEAC38" d="M-92.196-65.177c-0.529,0.403-1.266,0.352-1.738-0.085l8.467,11.148c0,0-0.719-1.235,0.224-1.951
			c0.942-0.717,1.692,0.062,1.692,0.062l-8.26-10.873C-91.519-66.302-91.666-65.579-92.196-65.177"/>
		<path fill="#EEAC38" d="M-93.888-77.951c-0.551,0.419-1.316,0.364-1.809-0.089l8.805,11.59c0,0-0.749-1.283,0.23-2.028
			c0.981-0.745,1.76,0.065,1.76,0.065l-8.588-11.305C-93.184-79.121-93.337-78.37-93.888-77.951"/>
	</g>
	<g>
		<path fill="#F4E428" d="M-275.717-97.862c4.396,5.512,12.43,6.416,17.94,2.018c5.513-4.396,6.415-12.429,2.019-17.94
			c-4.397-5.512-12.43-6.415-17.941-2.019C-279.211-111.405-280.114-103.374-275.717-97.862"/>
		<path fill="#EEAC38" d="M-256.361-110.532L-256.361-110.532c0.788-0.629,0.919-1.788,0.29-2.576l-27.233-34.135
			c-0.629-0.788-1.787-0.918-2.576-0.29c-0.789,0.629-0.918,1.789-0.289,2.577l27.231,34.134
			C-258.31-110.034-257.149-109.903-256.361-110.532"/>
		<path fill="#EEAC38" d="M-263.262-107.798L-263.262-107.798c0.787-0.629,0.918-1.788,0.289-2.577l-32.949-41.299
			c-0.629-0.789-1.789-0.919-2.576-0.29c-0.789,0.629-0.92,1.788-0.291,2.576l32.951,41.3
			C-265.211-107.3-264.051-107.169-263.262-107.798"/>
		<path fill="#EEAC38" d="M-264.887-99.678L-264.887-99.678c0.787-0.629,0.918-1.789,0.289-2.576l-32.949-41.301
			c-0.629-0.789-1.788-0.919-2.576-0.29c-0.788,0.629-0.919,1.788-0.29,2.576l32.95,41.3
			C-266.835-99.18-265.675-99.049-264.887-99.678"/>
		<path fill="#EEAC38" d="M-302.307-146.581L-302.307-146.581c0.789-0.629,0.92-1.788,0.291-2.577l-9.147-11.464
			c-0.629-0.789-1.788-0.919-2.577-0.29c-0.788,0.629-0.918,1.788-0.289,2.576l9.146,11.465
			C-304.254-146.082-303.094-145.952-302.307-146.581"/>
		<path fill="#EEAC38" d="M-307.281-162.973L-307.281-162.973c0.787-0.629,0.918-1.788,0.289-2.577l-3.015-3.778
			c-0.628-0.788-1.788-0.918-2.576-0.29c-0.788,0.629-0.919,1.789-0.29,2.577l3.014,3.778
			C-309.23-162.474-308.07-162.344-307.281-162.973"/>
		<path fill="#EEAC38" d="M-290.299-153.07L-290.299-153.07c0.789-0.629,0.92-1.788,0.291-2.576l-3.016-3.779
			c-0.628-0.788-1.788-0.918-2.576-0.289c-0.787,0.628-0.919,1.788-0.29,2.576l3.015,3.778
			C-292.246-152.571-291.086-152.44-290.299-153.07"/>
		<path fill="#EEAC38" d="M-273.242-99.836L-273.242-99.836c0.789-0.629,0.92-1.787,0.291-2.576l-32.951-41.3
			c-0.629-0.789-1.787-0.919-2.576-0.29c-0.787,0.629-0.918,1.788-0.289,2.576l32.949,41.301
			C-275.189-99.336-274.029-99.208-273.242-99.836"/>
		<path fill="#EEAC38" d="M-271.779-124.03c0.703-0.561,0.879-1.541,0.464-2.306l11.793,14.781c0,0-1.378-1.353-2.629-0.355
			c-1.25,0.998-0.478,2.236-0.478,2.236l-11.502-14.416C-273.477-123.516-272.481-123.469-271.779-124.03"/>
		<path fill="#EEAC38" d="M-275.804-118.44c0.521-0.415,0.649-1.141,0.344-1.707l8.731,10.944c0,0-1.021-1.002-1.946-0.263
			c-0.927,0.738-0.354,1.655-0.354,1.655l-8.516-10.674C-277.061-118.059-276.324-118.025-275.804-118.44"/>
		<path fill="#EEAC38" d="M-287.773-123.212c0.541-0.432,0.676-1.187,0.357-1.775l9.078,11.378c0,0-1.061-1.041-2.023-0.272
			c-0.963,0.768-0.369,1.721-0.369,1.721l-8.853-11.097C-289.08-122.816-288.314-122.781-287.773-123.212"/>
	</g>
	<path fill="#E59827" d="M-222.03-118.781c0,0-18.374,3.188-16.604-16.435c1.642-18.184,32.057-11.319,27.896-26.778
		c0,0,6.64,2.48,2.036,8.147c0,0,2.302-13.283,11.511-12.751c0,0-4.073,1.888-5.489,6.169c-1.418,4.28,13.813-1.973,14.168-13.9
		c0,0,7.496,3.598-2.894,13.9c-10.39,10.301-6.493,12.426-3.128,8.353c3.365-4.073,3.542-11.68,11.865-6.696
		c0,0-7.025,2.091-8.737,7.759c-1.712,5.667,0.769,8.893-8.796,12.283C-209.765-135.341-206.667-118.251-222.03-118.781"/>
	<path fill="#F1EBD4" d="M-228.538-143.486l10.955-5.96l-3.803,7.674l7.633-4.605l-2.598,7.384l7.438-5.967l-5.194,8.872
		l6.289-3.272l-6.763,8.28l6.763-4.328c0,0-8.539,17.271-19.988,14.014C-239.256-124.652-238.611-136.829-228.538-143.486"/>
	<path fill="#AA2D2E" d="M-216.843-130.98c0,4.731-3.834,8.565-8.565,8.565s-8.567-3.834-8.567-8.565s3.836-8.565,8.567-8.565
		S-216.843-135.712-216.843-130.98"/>
	<path fill="#DF4726" d="M-217.417-131.999c0,4.065-3.295,7.361-7.361,7.361s-7.361-3.296-7.361-7.361
		c0-4.066,3.295-7.362,7.361-7.362S-217.417-136.065-217.417-131.999"/>
	<path fill="#AA2D2E" d="M-222.637-133.435c0,1.355-1.099,2.454-2.455,2.454s-2.455-1.099-2.455-2.454
		c0-1.356,1.099-2.455,2.455-2.455S-222.637-134.791-222.637-133.435"/>
	<path fill="#AA2D2E" d="M-219.298-135.409c0,0.711-0.575,1.285-1.285,1.285s-1.285-0.574-1.285-1.285
		c0-0.709,0.575-1.284,1.285-1.284S-219.298-136.118-219.298-135.409"/>
	<path fill="#AA2D2E" d="M-0.096,288.964c0,13.335-10.806,24.14-24.14,24.14c-13.335,0-24.146-10.805-24.146-24.14
		s10.812-24.14,24.146-24.14C-10.901,264.824-0.096,275.629-0.096,288.964"/>
	<path fill="#DF4726" d="M-1.714,286.094c0,11.457-9.286,20.746-20.747,20.746c-11.46,0-20.746-9.289-20.746-20.746
		c0-11.461,9.286-20.75,20.746-20.75C-11,265.344-1.714,274.633-1.714,286.094"/>
	<path fill="#AA2D2E" d="M-16.425,282.047c0,3.82-3.097,6.917-6.919,6.917c-3.823,0-6.92-3.097-6.92-6.917
		c0-3.822,3.097-6.918,6.92-6.918C-19.521,275.129-16.425,278.225-16.425,282.047"/>
	<path fill="#AA2D2E" d="M-7.015,276.482c0,2.004-1.621,3.622-3.622,3.622s-3.622-1.618-3.622-3.622
		c0-1.998,1.621-3.619,3.622-3.619S-7.015,274.484-7.015,276.482"/>
	<path fill="#AA2D2E" d="M-220.066-130.274c0,0.711-0.575,1.285-1.285,1.285s-1.285-0.574-1.285-1.285
		c0-0.709,0.575-1.284,1.285-1.284S-220.066-130.983-220.066-130.274"/>
	<g id="Meteor_2">
		<path fill="#FFDF3C" d="M-376.372-56.571c0,0-4.514,5.496-8.244,7.852c0,0,15.25-26.462,29.775-37.258
			c0,0-12.91,2.615-21.878,11.215c4.074-3.987,32.426-31.862,34.338-37.19c-5.341,1.917-33.364,30.37-37.252,34.335
			c8.622-8.971,11.243-21.908,11.243-21.908c-10.796,14.525-37.258,29.775-37.258,29.775c2.356-3.729,7.852-8.244,7.852-8.244
			c-9.619,3.926-30.1,28.939-30.1,28.939l11.3,11.284l11.284,11.3C-405.312-26.472-380.298-46.953-376.372-56.571z"/>
		<path fill="#FF8948" d="M-396.784-47.262c0,0-2.175,2.648-3.972,3.783c0,0,7.347-12.749,14.345-17.95c0,0-6.22,1.26-10.541,5.403
			c1.963-1.921,15.622-15.351,16.543-17.917c-2.573,0.924-16.074,14.631-17.947,16.541c4.154-4.321,5.417-10.555,5.417-10.555
			c-5.202,6.998-17.95,14.345-17.95,14.345c1.135-1.797,3.782-3.972,3.782-3.972c-4.634,1.892-14.501,13.942-14.501,13.942
			l5.444,5.437l5.437,5.444C-410.727-32.76-398.675-42.628-396.784-47.262z"/>
		<g>
			<path fill="#0096AF" d="M-400.824-36.704c-1.591,0.411-3.214-0.546-3.625-2.137c-0.39-1.508,0.449-3.043,1.892-3.55
				c-0.052-0.171-0.081-0.353-0.081-0.541c0-0.547,0.238-1.036,0.615-1.375c-3.123-6.983-10.914-10.903-18.568-8.925
				c-7.711,1.994-12.643,9.292-11.901,16.977c0.505,0.206,0.861,0.7,0.861,1.279c0,0.146-0.023,0.288-0.066,0.42
				c0.229,0.162,0.378,0.428,0.378,0.73c0,0.359-0.213,0.668-0.52,0.811c2.515,8.079,10.958,12.844,19.24,10.703
				c6.856-1.773,11.515-7.739,11.942-14.441C-400.711-36.735-400.767-36.72-400.824-36.704z"/>
			<circle fill="#047D89" cx="-422.109" cy="-42.966" r="2.816"/>
			<path fill="#036166" d="M-423.291-40.41c-0.561-0.515-0.913-1.254-0.913-2.075c0-1.555,1.261-2.815,2.815-2.815
				c0.423,0,0.823,0.093,1.182,0.26c-0.501-0.46-1.169-0.741-1.903-0.741c-1.555,0-2.816,1.262-2.816,2.816
				C-424.924-41.833-424.255-40.856-423.291-40.41z"/>
			<circle fill="#047D89" cx="-421.731" cy="-29.248" r="1.887"/>
			<path fill="#036166" d="M-422.523-27.536c-0.376-0.345-0.612-0.84-0.612-1.391c0-1.042,0.845-1.887,1.887-1.887
				c0.283,0,0.551,0.063,0.792,0.174c-0.336-0.308-0.784-0.496-1.276-0.496c-1.042,0-1.887,0.845-1.887,1.888
				C-423.618-28.489-423.169-27.835-422.523-27.536z"/>
			<circle fill="#047D89" cx="-412.605" cy="-32.587" r="1.451"/>
			<path fill="#036166" d="M-413.214-31.271c-0.289-0.265-0.47-0.646-0.47-1.068c0-0.802,0.649-1.451,1.45-1.451
				c0.218,0,0.424,0.048,0.609,0.135c-0.258-0.238-0.603-0.383-0.981-0.383c-0.801,0-1.451,0.65-1.451,1.451
				C-414.056-32.003-413.711-31.5-413.214-31.271z"/>
		</g>
	</g>
	<path fill="#FFDF3C" d="M106.968,82.67c0,0-8.171-2.041-12.586-4.838c0,0,36.055,2.892,54.977,12.957
		c0,0-9.349-12.488-23.102-17.721c6.333,2.335,50.549,18.53,57.222,17.873c-4.763-4.743-49.43-20.292-55.644-22.44
		c13.974,4.674,29.147,0.914,29.147,0.914c-21.021-4.182-50.767-24.76-50.767-24.76c5.188,0.628,12.806,4.219,12.806,4.219
		C109.94,40.573,72.782,31.35,72.782,31.35L66.44,49.167l-6.365,17.808C60.075,66.975,94.683,83.35,106.968,82.67z"/>
	<path fill="#FF8948" d="M86.648,65.551c0,0-3.939-0.984-6.064-2.33c0,0,17.37,1.393,26.486,6.241c0,0-4.504-6.016-11.13-8.537
		c3.052,1.125,24.354,8.928,27.566,8.612c-2.294-2.286-23.812-9.776-26.806-10.811c6.732,2.252,14.043,0.44,14.043,0.44
		c-10.129-2.015-24.457-11.929-24.457-11.929c2.498,0.303,6.169,2.032,6.169,2.032c-4.376-3.998-22.278-8.441-22.278-8.441
		l-3.055,8.583l-3.066,8.58C64.057,57.99,80.729,65.879,86.648,65.551z"/>
	<g>
		<path fill="#0096AF" d="M58.022-23.941c-1.592,0.411-3.215-0.546-3.626-2.137c-0.39-1.508,0.448-3.043,1.892-3.55
			c-0.053-0.171-0.081-0.353-0.081-0.541c0-0.547,0.238-1.036,0.614-1.375c-3.122-6.983-10.914-10.903-18.567-8.925
			c-7.712,1.994-12.644,9.292-11.901,16.977c0.506,0.206,0.861,0.7,0.861,1.279c0,0.146-0.023,0.288-0.065,0.42
			c0.229,0.162,0.378,0.428,0.378,0.73c0,0.359-0.213,0.668-0.52,0.811c2.516,8.079,10.959,12.844,19.24,10.703
			c6.855-1.773,11.515-7.739,11.941-14.441C58.134-23.973,58.079-23.957,58.022-23.941z"/>
		<circle fill="#047D89" cx="36.737" cy="-30.203" r="2.816"/>
		<path fill="#036166" d="M35.556-27.647c-0.562-0.515-0.913-1.254-0.913-2.075c0-1.555,1.261-2.815,2.815-2.815
			c0.423,0,0.822,0.093,1.182,0.26c-0.5-0.46-1.168-0.741-1.902-0.741c-1.555,0-2.816,1.262-2.816,2.816
			C33.921-29.07,34.591-28.094,35.556-27.647z"/>
		<circle fill="#047D89" cx="37.115" cy="-16.485" r="1.888"/>
		<path fill="#036166" d="M36.323-14.773c-0.377-0.345-0.612-0.84-0.612-1.391c0-1.042,0.845-1.887,1.888-1.887
			c0.283,0,0.551,0.063,0.792,0.174c-0.336-0.308-0.784-0.496-1.276-0.496c-1.041,0-1.887,0.845-1.887,1.888
			C35.228-15.727,35.677-15.072,36.323-14.773z"/>
		<circle fill="#047D89" cx="46.241" cy="-19.824" r="1.451"/>
		<path fill="#036166" d="M45.632-18.508c-0.289-0.265-0.471-0.646-0.471-1.068c0-0.802,0.65-1.451,1.451-1.451
			c0.217,0,0.424,0.048,0.609,0.135c-0.259-0.238-0.604-0.383-0.981-0.383c-0.801,0-1.45,0.65-1.45,1.451
			C44.79-19.24,45.134-18.737,45.632-18.508z"/>
	</g>
	<g>
		<path fill="#0096AF" d="M-127.027,51c-1.899-1.124-2.531-3.582-1.412-5.49c1.06-1.81,3.313-2.472,5.162-1.58
			c0.112-0.212,0.259-0.413,0.437-0.593c0.519-0.521,1.209-0.76,1.887-0.724c3.662-9.631-0.009-20.79-9.146-26.198
			c-9.205-5.448-20.807-3.193-27.392,4.837c0.283,0.677,0.152,1.487-0.396,2.039c-0.14,0.14-0.295,0.252-0.462,0.337
			c0.063,0.372-0.046,0.769-0.333,1.057c-0.341,0.342-0.835,0.433-1.261,0.277c-5.28,10.094-1.789,22.68,8.096,28.532
			c8.187,4.844,18.264,3.598,25.027-2.381C-126.891,51.078-126.96,51.038-127.027,51z"/>
		<path fill="#047D89" d="M-143.948,22.068c1.476-1.481,3.868-1.483,5.344-0.001c1.474,1.481,1.473,3.885-0.003,5.366
			c-1.474,1.481-3.865,1.482-5.341,0C-145.423,25.952-145.422,23.55-143.948,22.068z"/>
		<path fill="#036166" d="M-144.823,26.06c-0.043-1.025,0.324-2.064,1.104-2.847c1.474-1.482,3.865-1.482,5.34,0
			c0.402,0.403,0.693,0.873,0.875,1.375c-0.039-0.917-0.405-1.82-1.101-2.52c-1.476-1.482-3.868-1.48-5.344,0.001
			C-145.022,23.148-145.314,24.716-144.823,26.06z"/>
		<path fill="#047D89" d="M-155.721,36.384c0.989-0.994,2.592-0.994,3.58,0c0.988,0.992,0.989,2.603,0,3.597
			c-0.988,0.993-2.591,0.992-3.579,0C-156.71,38.987-156.71,37.377-155.721,36.384z"/>
		<path fill="#036166" d="M-156.306,39.059c-0.03-0.686,0.216-1.383,0.738-1.908c0.988-0.993,2.593-0.993,3.579,0
			c0.27,0.271,0.464,0.586,0.588,0.922c-0.027-0.614-0.273-1.219-0.74-1.688c-0.988-0.994-2.591-0.994-3.58,0
			C-156.441,37.107-156.637,38.159-156.306,39.059z"/>
		<path fill="#047D89" d="M-143.484,42.314c0.76-0.763,1.993-0.764,2.753,0c0.762,0.764,0.759,2.002,0,2.765
			c-0.761,0.764-1.992,0.765-2.754,0C-144.244,44.316-144.245,43.078-143.484,42.314z"/>
		<path fill="#036166" d="M-143.935,44.371c-0.022-0.527,0.168-1.063,0.568-1.465c0.761-0.764,1.993-0.764,2.751-0.002
			c0.208,0.209,0.358,0.45,0.451,0.709c-0.019-0.472-0.208-0.938-0.567-1.298c-0.76-0.764-1.993-0.763-2.753,0
			C-144.039,42.871-144.187,43.68-143.935,44.371z"/>
	</g>
	<path fill="#FFDF3C" d="M-166.636,166.768c0,0-23.311-36.489,19.372-50.231c39.551-12.732,52.722,58.519,81.317,35.797
		c0,0,0.82,16.432-15.213,11.638c0,0,29.89-6.941,37.116,13.252c0,0-7.641-7.035-17.886-6.242
		c-10.242,0.789,16.641,27.812,41.929,17.916c0,0-0.745,19.264-31.719,6.224c-30.972-13.04-31.893-2.8-20.318,0.767
		c11.573,3.565,27.657-2.854,24.761,19.42c0,0-10.74-13.173-24.156-11.774c-13.413,1.398-17.92,9.591-33.676-7.856
		C-120.863,178.233-153.834,200.135-166.636,166.768"/>
	<path fill="#FF8948" d="M-119.848,131.566l22.917,18.55l-19.962-1.314l16.937,12.512l-18.224,1.061l19.672,10.84l-23.815-3.269
		l12.838,10.786l-24.004-7.247l15.537,10.86c0,0-44.909-2.916-48.539-30.977C-170.123,125.304-143.442,115.583-119.848,131.566"/>
	<g>
		<path fill="#0096AF" d="M-131.107,350.67c-1.899-1.124-2.531-3.582-1.412-5.49c1.06-1.81,3.313-2.472,5.162-1.58
			c0.112-0.213,0.259-0.412,0.437-0.593c0.519-0.521,1.209-0.76,1.887-0.724c3.662-9.631-0.009-20.79-9.146-26.198
			c-9.205-5.448-20.807-3.192-27.392,4.837c0.283,0.678,0.152,1.487-0.396,2.039c-0.14,0.141-0.295,0.252-0.462,0.338
			c0.063,0.371-0.046,0.769-0.333,1.057c-0.341,0.342-0.835,0.434-1.261,0.277c-5.28,10.094-1.789,22.68,8.096,28.531
			c8.187,4.844,18.264,3.599,25.027-2.381C-130.971,350.748-131.04,350.709-131.107,350.67z"/>
		<path fill="#047D89" d="M-148.028,321.738c1.476-1.48,3.868-1.482,5.344,0c1.474,1.48,1.473,3.885-0.003,5.365
			c-1.474,1.482-3.865,1.482-5.341,0C-149.503,325.623-149.502,323.221-148.028,321.738z"/>
		<path fill="#036166" d="M-148.903,325.73c-0.043-1.025,0.324-2.064,1.104-2.848c1.474-1.481,3.865-1.481,5.34,0
			c0.402,0.403,0.693,0.873,0.875,1.375c-0.039-0.916-0.405-1.82-1.101-2.52c-1.476-1.482-3.868-1.48-5.344,0
			C-149.103,322.818-149.395,324.387-148.903,325.73z"/>
		<path fill="#047D89" d="M-159.801,336.055c0.989-0.994,2.592-0.994,3.58,0c0.988,0.992,0.989,2.604,0,3.597
			c-0.988,0.993-2.591,0.992-3.579-0.001C-160.79,338.658-160.79,337.047-159.801,336.055z"/>
		<path fill="#036166" d="M-160.386,338.729c-0.03-0.686,0.216-1.383,0.738-1.907c0.988-0.993,2.593-0.993,3.579-0.001
			c0.27,0.271,0.464,0.586,0.588,0.922c-0.027-0.613-0.273-1.219-0.74-1.688c-0.988-0.994-2.591-0.994-3.58,0
			C-160.521,336.777-160.717,337.829-160.386,338.729z"/>
		<path fill="#047D89" d="M-147.564,341.984c0.76-0.763,1.993-0.764,2.753,0c0.762,0.764,0.759,2.002,0,2.766
			c-0.761,0.764-1.992,0.764-2.754,0C-148.324,343.986-148.325,342.748-147.564,341.984z"/>
		<path fill="#036166" d="M-148.015,344.041c-0.022-0.527,0.168-1.063,0.568-1.465c0.761-0.764,1.993-0.765,2.751-0.002
			c0.208,0.209,0.358,0.449,0.451,0.709c-0.019-0.473-0.208-0.938-0.567-1.299c-0.76-0.764-1.993-0.763-2.753,0
			C-148.119,342.541-148.267,343.35-148.015,344.041z"/>
	</g>
	<g>
		<path fill="#949393" d="M500.751,53.544c-4.968,1.274-10.045-1.726-11.342-6.701c-1.232-4.714,1.382-9.503,5.886-11.078
			c-0.165-0.534-0.253-1.104-0.257-1.692c-0.003-1.707,0.738-3.234,1.911-4.289c-9.807-21.843-34.176-34.146-58.076-28.019
			c-24.078,6.174-39.437,28.942-37.063,52.957c1.579,0.647,2.694,2.193,2.699,4.002c0.001,0.459-0.069,0.899-0.204,1.313
			c0.714,0.508,1.188,1.339,1.189,2.285c0.003,1.123-0.659,2.083-1.615,2.527c7.909,25.262,34.328,40.207,60.184,33.58
			c21.412-5.493,35.923-24.098,37.211-45.037C501.105,53.45,500.925,53.498,500.751,53.544z"/>
		<path fill="#5B5A5A" d="M425.408,33.81c-0.009-4.859,3.919-8.792,8.778-8.782c4.855,0.011,8.804,3.963,8.813,8.822
			c0.014,4.855-3.914,8.786-8.774,8.775C429.367,42.615,425.422,38.666,425.408,33.81z"/>
		<path fill="#3D3C3C" d="M430.529,41.806c-1.755-1.614-2.858-3.924-2.862-6.493c-0.015-4.856,3.915-8.786,8.773-8.774
			c1.323,0.001,2.574,0.295,3.696,0.821c-1.571-1.441-3.657-2.325-5.95-2.332c-4.859-0.011-8.787,3.923-8.778,8.782
			C425.417,37.349,427.515,40.406,430.529,41.806z"/>
		<path fill="#5B5A5A" d="M429.587,76.678c-0.007-3.259,2.626-5.893,5.883-5.883c3.255,0.006,5.903,2.652,5.91,5.91
			c0.009,3.255-2.627,5.887-5.881,5.88C432.239,82.581,429.593,79.934,429.587,76.678z"/>
		<path fill="#3D3C3C" d="M433.021,82.033c-1.177-1.078-1.918-2.627-1.922-4.348c-0.009-3.256,2.63-5.892,5.879-5.881
			c0.888,0.001,1.726,0.2,2.482,0.548c-1.054-0.963-2.453-1.554-3.991-1.557c-3.257-0.01-5.89,2.624-5.883,5.883
			C429.592,79.05,430.998,81.099,433.021,82.033z"/>
		<path fill="#5B5A5A" d="M459.438,66.315c-0.005-2.502,2.021-4.531,4.523-4.523c2.507,0.003,4.536,2.042,4.543,4.543
			c0.006,2.505-2.017,4.53-4.523,4.526C461.479,70.853,459.442,68.819,459.438,66.315z"/>
		<path fill="#3D3C3C" d="M462.076,70.434c-0.903-0.83-1.469-2.022-1.473-3.342c-0.005-2.505,2.019-4.53,4.517-4.523
			c0.686,0.002,1.328,0.151,1.906,0.424c-0.807-0.745-1.883-1.199-3.065-1.201c-2.503-0.007-4.528,2.021-4.523,4.523
			C459.441,68.141,460.527,69.712,462.076,70.434z"/>
	</g>
	<g>
		<path fill="#DF4726" d="M-256.019,114.907l15.887,5.281c0.211,0.069,0.426,0.072,0.633,0.007l22.25-7.039
			c0.35-0.109,0.715-0.026,1.039,0.236l14.74,11.946c0.344,0.277,0.617,0.738,0.768,1.296l6.922,25.573
			c0.209,0.779,0.162,1.654-0.133,2.328l-18.477,42.376c-0.215,0.499-0.545,0.838-0.922,0.961l-17.016,5.497
			c-0.053,0.018-0.104,0.038-0.154,0.063l-17.705,8.879c-0.172,0.082-0.348,0.123-0.525,0.111l-29.582-1.828
			c-0.383-0.023-0.752-0.266-1.04-0.684l-12.016-17.423c-0.417-0.603-0.607-1.495-0.503-2.344l6.079-49.108
			c0.105-0.849,0.491-1.525,1.014-1.779l10.702-5.196c0.501-0.244,0.879-0.879,1.001-1.685l2.278-15.121
			c0.155-1.034,0.723-1.758,1.405-1.791l12.981-0.61C-256.269,114.849-256.144,114.866-256.019,114.907z"/>
		<path fill="#AA2D2E" d="M-271.28,120.445l-1.844,12.241c-0.121,0.803-0.498,1.437-0.997,1.679l-10.661,5.175
			c-0.521,0.252-0.905,0.927-1.009,1.772l-6.056,48.924c-0.104,0.846,0.086,1.736,0.501,2.335l11.97,17.359
			c0.286,0.413,0.654,0.656,1.036,0.677l29.468,1.823c0.178,0.012,0.355-0.029,0.521-0.111l11.633-5.832
			c1.539-0.772,1.283-4.321-0.34-4.75l-2.275-0.603c-0.115-0.027-0.229-0.041-0.34-0.031l-9.635,0.77
			c-0.426,0.035-0.85-0.211-1.17-0.675l-13.047-18.869c-0.475-0.686-1.152-0.873-1.716-0.472l-9.367,6.634
			c-0.685,0.482-1.515,0.1-1.958-0.91l-2.697-6.139c-0.257-0.585-0.348-1.304-0.251-1.975l4.454-30.659
			c0.144-0.988,0.666-1.703,1.312-1.794l4.923-0.695c0.765-0.108,1.341-1.088,1.348-2.302l0.154-21.139
			c0.004-0.607-0.134-1.205-0.392-1.677l-0.886-1.632C-269.437,118.025-270.991,118.534-271.28,120.445z"/>
		<path fill="#AA2D2E" d="M-228.899,193.376l7.232-1.956c0.416-0.115,0.775-0.492,0.998-1.049l7.729-19.358
			c0.156-0.393,0.385-0.7,0.658-0.886l10.486-7.148c0.107-0.071,0.203-0.161,0.293-0.267l0,0c1.391-1.63,3.244,1.179,2.264,3.43
			l-13.447,30.837c-0.213,0.497-0.541,0.834-0.918,0.955l-8.928,2.887c-0.248,0.079-0.51,0.062-0.76-0.056l-5.658-2.631
			C-230.548,197.391-230.511,193.811-228.899,193.376z"/>
		<path fill="#AA2D2E" d="M-264.271,172.587l9.029,9.303c0.494,0.508,1.111,0.558,1.611,0.132l6.701-5.751
			c0.512-0.44,0.807-1.309,0.764-2.244l-0.768-16.327c-0.021-0.447-0.121-0.883-0.285-1.26l-4.611-10.511
			c-0.551-1.258-1.662-1.502-2.35-0.517l-6.666,9.534c-0.156,0.224-0.281,0.501-0.365,0.811l-3.688,13.753
			C-265.194,170.606-264.926,171.912-264.271,172.587z"/>
		<path fill="#AA2D2E" d="M-226.04,176.081l3.385-12.523c0.295-1.099,0.027-2.411-0.633-3.087l-3.549-3.631
			c-0.449-0.46-1.006-0.543-1.482-0.22l-7.191,4.882c-0.701,0.477-1.051,1.709-0.82,2.892l1.801,9.185
			c0.174,0.873,0.631,1.547,1.195,1.76l5.553,2.087C-227.054,177.7-226.327,177.137-226.04,176.081z"/>
		<path opacity="0.5" fill="#808080" d="M-244.063,119.3l3.742,1.244c0.209,0.069,0.422,0.071,0.629,0.006l22.166-7.012
			c0.348-0.109,0.713-0.026,1.035,0.235l2.865,2.32c1.676,1.358,0.814,5.277-0.994,4.534l-2.189-0.898
			c-0.248-0.101-0.506-0.108-0.75-0.017l-21.568,7.999c-0.344,0.128-0.717,0.062-1.047-0.189l-4.771-3.633
			C-246.622,122.615-245.87,118.7-244.063,119.3z"/>
	</g>
	<g>
		<path fill="#A18126" d="M20.676,5.629L34.16,8.341c0.179,0.035,0.354,0.016,0.515-0.058l17.435-7.97
			c0.273-0.125,0.58-0.093,0.87,0.088l13.217,8.261c0.308,0.192,0.575,0.541,0.754,0.981l8.209,20.153
			c0.249,0.614,0.297,1.333,0.125,1.911L64.472,68.109c-0.126,0.425-0.36,0.736-0.655,0.874l-13.322,6.189
			c-0.041,0.02-0.08,0.042-0.118,0.067L36.83,84.253c-0.129,0.086-0.271,0.135-0.416,0.144l-24.299,1.477
			c-0.314,0.02-0.64-0.141-0.917-0.451l-11.542-13c-0.4-0.45-0.646-1.159-0.646-1.861l0.03-40.646c0-0.702,0.247-1.293,0.647-1.553
			l8.203-5.308c0.385-0.25,0.629-0.805,0.647-1.475L8.88,9.024c0.022-0.858,0.414-1.506,0.966-1.6l10.521-1.8
			C20.468,5.606,20.571,5.608,20.676,5.629z"/>
		<path opacity="0.67" fill="#B3B3B3" d="M8.815,11.378L8.539,21.58c-0.019,0.67-0.263,1.226-0.647,1.475l-8.203,5.308
			c-0.4,0.26-0.647,0.851-0.647,1.553l-0.03,40.646c0,0.702,0.245,1.411,0.646,1.861l11.542,13c0.277,0.311,0.603,0.471,0.917,0.451
			l24.299-1.477c0.146-0.009,0.287-0.058,0.416-0.144l8.933-5.944c1.18-0.785,0.614-3.664-0.756-3.852l-1.926-0.264
			c-0.094-0.014-0.188-0.011-0.279,0.008l-7.806,1.601c-0.346,0.071-0.718-0.087-1.027-0.437L21.392,61.238
			c-0.456-0.513-1.029-0.597-1.45-0.213l-6.998,6.372c-0.512,0.465-1.23,0.234-1.694-0.548l-2.825-4.752
			c-0.27-0.453-0.417-1.032-0.403-1.592l0.557-25.538c0.019-0.822,0.375-1.46,0.894-1.6l3.959-1.065
			c0.615-0.166,0.987-1.026,0.872-2.02l-2.003-17.314c-0.059-0.498-0.232-0.973-0.489-1.333l-0.889-1.247
			C10.08,9.211,8.859,9.784,8.815,11.378z"/>
		<path opacity="0.67" fill="#B3B3B3" d="M50.839,66.792l5.723-2.329c0.329-0.134,0.588-0.48,0.712-0.957l4.374-16.62
			c0.091-0.338,0.246-0.612,0.45-0.792l7.862-6.905c0.078-0.069,0.15-0.152,0.213-0.249l0,0c0.974-1.474,2.772,0.639,2.197,2.58
			l-7.898,26.589c-0.126,0.425-0.36,0.736-0.655,0.874l-7.018,3.26c-0.195,0.091-0.41,0.103-0.625,0.032l-4.897-1.584
			C49.896,70.245,49.566,67.31,50.839,66.792z"/>
		<path opacity="0.67" fill="#B3B3B3" d="M19.735,53.481l8.294,6.678c0.453,0.365,0.961,0.343,1.324-0.054l4.889-5.361
			c0.374-0.41,0.527-1.147,0.398-1.905l-2.264-13.233c-0.063-0.363-0.188-0.708-0.359-0.999l-4.813-8.108
			c-0.575-0.969-1.507-1.058-1.969-0.185l-4.477,8.44c-0.104,0.199-0.179,0.437-0.216,0.698l-1.628,11.583
			C18.784,51.959,19.132,52.996,19.735,53.481z"/>
		<path opacity="0.67" fill="#B3B3B3" d="M51.253,52.496l1.502-10.55c0.133-0.926-0.218-1.969-0.824-2.454l-3.257-2.604
			c-0.413-0.33-0.875-0.342-1.229-0.031l-5.374,4.702c-0.525,0.459-0.686,1.5-0.379,2.44l2.39,7.308
			c0.229,0.694,0.668,1.2,1.149,1.315l4.737,1.144C50.59,53.917,51.125,53.385,51.253,52.496z"/>
		<path opacity="0.5" fill="#808080" d="M30.973,7.7l3.188,0.641c0.179,0.035,0.354,0.016,0.515-0.058l17.435-7.97
			c0.273-0.125,0.58-0.093,0.87,0.088l2.577,1.612c1.508,0.942,1.199,4.235-0.355,3.809l-1.883-0.514
			c-0.213-0.058-0.425-0.037-0.615,0.062l-16.844,8.718c-0.271,0.14-0.581,0.123-0.876-0.05l-4.271-2.492
			C29.212,10.669,29.435,7.39,30.973,7.7z"/>
	</g>
	<path fill="#FFDF3C" d="M106.968,197.67c0,0-8.171-2.041-12.586-4.838c0,0,36.055,2.892,54.977,12.957
		c0,0-9.349-12.488-23.102-17.721c6.333,2.335,50.549,18.53,57.222,17.873c-4.763-4.743-49.43-20.292-55.644-22.44
		c13.974,4.674,29.147,0.914,29.147,0.914c-21.021-4.182-50.767-24.76-50.767-24.76c5.188,0.628,12.806,4.219,12.806,4.219
		c-9.081-8.301-46.239-17.524-46.239-17.524l-6.342,17.817l-6.365,17.808C60.075,181.975,94.683,198.35,106.968,197.67z"/>
	<path fill="#FF8948" d="M86.648,180.551c0,0-3.939-0.984-6.064-2.33c0,0,17.37,1.393,26.486,6.241c0,0-4.504-6.016-11.13-8.537
		c3.052,1.125,24.354,8.928,27.566,8.612c-2.294-2.286-23.812-9.776-26.806-10.811c6.732,2.252,14.043,0.44,14.043,0.44
		c-10.129-2.015-24.457-11.929-24.457-11.929c2.498,0.303,6.169,2.032,6.169,2.032c-4.376-3.998-22.278-8.441-22.278-8.441
		l-3.055,8.583l-3.066,8.58C64.057,172.99,80.729,180.879,86.648,180.551z"/>
	<g>
		<path opacity="0.67" fill="#B3B3B3" d="M-133.48,137.029l-0.627-1.295c-0.187-0.384-0.101-0.715,0.204-0.783l1.746-0.388
			c0.258-0.057,0.612,0.087,0.895,0.364l0.129,0.125c0.129,0.126,0.232,0.271,0.304,0.418l0.532,1.131
			c0.176,0.376,0.092,0.698-0.202,0.768l-1.781,0.425C-132.667,137.889-133.242,137.521-133.48,137.029z"/>
		<path fill="#949393" d="M-133.904,163.647c5.281-0.439,11.149-3.028,11.518-8.248c0.37-5.229,2.267-7.261,0.956-13.499
			c-1.31-6.242-12.677-12.439-16.124-13.157c-3.448-0.726-14.878,0.082-17.734,3.355c-2.85,3.27-5.208,11.831-7.377,17.787
			c-2.173,5.951,7.735,14.215,11.093,16.246C-148.214,168.161-133.904,163.647-133.904,163.647"/>
		<path fill="#7C7B7B" d="M-144.077,159.087c-1.39,1.536-3.174,4.579-3.218,7.502c5.439-0.439,13.391-2.944,13.391-2.944
			c0.736-0.06,1.483-0.168,2.231-0.316c-1.135-1.904-2.932-4.273-5.138-4.959C-140.662,157.177-142.419,157.248-144.077,159.087"/>
		<path fill="#7C7B7B" d="M-133.344,151.429c4.849-2.3-1.027-10.161-4.43-11.534c-3.401-1.377-6.849,0.969-7.048,3.794
			C-145.023,146.523-142.394,155.717-133.344,151.429"/>
		<path fill="#7C7B7B" d="M-144.988,133.825c3.001-0.194,3.136,0.041,6.471-0.784c1.778-0.428,3.445-1.746,4.615-2.878
			c-1.512-0.742-2.815-1.241-3.652-1.418c-2.104-0.44-7.165-0.308-11.447,0.598C-148.69,131.827-146.827,133.939-144.988,133.825"/>
		<path fill="#7C7B7B" d="M-153.779,144.785c4.518-2.324,4.944-4.926,2.718-7.52c-1.406-1.646-2.417-4.053-3.867-5.495
			c-0.125,0.106-0.256,0.212-0.36,0.329c-1.911,2.184-3.594,6.75-5.153,11.311C-158.42,144.994-155.881,145.866-153.779,144.785"/>
		<path fill="#7C7B7B" d="M-157.071,161.727c1.731-0.238,3.289-0.848,4.191-1.836c2.802-3.082,5.107-7.242,0.663-9.359
			c-4.444-2.121-8.404-1.789-10.449-0.645C-164.028,153.629-160.622,158.281-157.071,161.727"/>
		<path fill="#7C7B7B" d="M-125.299,136.006c-1.307,2.476-1.564,5.831-0.71,8.801c0.664,2.314,2.712,4.295,4.441,5.626
			c0.526-2.403,0.952-4.655,0.134-8.532C-121.856,139.865-123.356,137.841-125.299,136.006"/>
	</g>
	<g>
		<path fill="#DF4726" d="M282.009,181.488c-4.208-1.063-6.767-5.348-5.717-9.571c0.993-4.003,4.875-6.504,8.86-5.853
			c0.093-0.462,0.258-0.922,0.493-1.359c0.689-1.27,1.859-2.105,3.157-2.415c1.554-20.204-11.579-39.214-31.824-44.334
			c-20.396-5.159-41.026,5.547-48.984,24.357c0.912,1.12,1.115,2.722,0.386,4.067c-0.185,0.341-0.415,0.64-0.684,0.893
			c0.326,0.667,0.342,1.477-0.039,2.181c-0.453,0.835-1.335,1.282-2.225,1.224c-4.348,21.977,9.239,43.78,31.139,49.321
			c18.138,4.586,36.454-3.369,45.889-18.409C282.312,181.562,282.157,181.523,282.009,181.488z"/>
		<path fill="#AA2D2E" d="M234,136.32c1.959-3.615,6.472-4.948,10.079-2.973c3.604,1.973,4.938,6.509,2.979,10.125
			c-1.956,3.614-6.466,4.945-10.074,2.969C233.378,144.466,232.044,139.935,234,136.32z"/>
		<path fill="#551717" d="M234.569,144.336c-0.651-1.909-0.537-4.074,0.499-5.984c1.957-3.615,6.468-4.946,10.075-2.97
			c0.981,0.537,1.793,1.262,2.414,2.106c-0.585-1.707-1.777-3.208-3.479-4.141c-3.607-1.975-8.12-0.642-10.079,2.973
			C232.573,138.954,232.895,142.076,234.569,144.336z"/>
		<path fill="#AA2D2E" d="M219.752,169.874c1.313-2.425,4.336-3.317,6.753-1.991c2.417,1.322,3.314,4.36,2,6.785
			c-1.311,2.423-4.335,3.313-6.75,1.99C219.333,175.335,218.438,172.297,219.752,169.874z"/>
		<path fill="#551717" d="M220.136,175.245c-0.438-1.277-0.361-2.73,0.332-4.011c1.313-2.423,4.341-3.313,6.75-1.99
			c0.659,0.36,1.202,0.846,1.625,1.412c-0.395-1.143-1.195-2.148-2.338-2.772c-2.417-1.326-5.439-0.434-6.753,1.991
			C218.796,171.64,219.01,173.732,220.136,175.245z"/>
		<path fill="#AA2D2E" d="M246.134,174.256c1.008-1.862,3.335-2.551,5.192-1.532c1.862,1.017,2.545,3.354,1.538,5.216
			c-1.01,1.864-3.333,2.55-5.194,1.534C245.813,178.454,245.123,176.118,246.134,174.256z"/>
		<path fill="#551717" d="M246.426,178.385c-0.335-0.982-0.272-2.098,0.261-3.082c1.009-1.863,3.333-2.549,5.188-1.532
			c0.507,0.278,0.925,0.649,1.244,1.086c-0.297-0.88-0.913-1.653-1.792-2.133c-1.857-1.02-4.185-0.33-5.192,1.532
			C245.397,175.614,245.567,177.222,246.426,178.385z"/>
	</g>
	<g>
		<path fill="#E3582B" d="M75.799,163.102c5.254-9.304,7.574-22.097-0.731-28.833c-8.318-6.747-9.565-12.284-21.475-17.419
			c-11.917-5.142-35.147,6.493-40.254,11.389c-5.119,4.878-16.717,24.836-14.485,33.428c2.237,8.574,13.874,22.534,21.371,33.125
			c7.479,10.597,32.521,3.81,39.714,0.608C67.132,192.189,75.799,163.102,75.799,163.102"/>
		<path fill="#C44D26" d="M56.658,174.665c0.991,4.115,4.057,10.651,8.89,14.154c5.43-9.563,10.249-25.72,10.249-25.72
			c0.734-1.298,1.4-2.671,2.001-4.086c-4.468-0.347-10.462-0.138-14.108,2.727C57.333,166.749,55.462,169.752,56.658,174.665"/>
		<path fill="#C44D26" d="M56.018,147.835c1.648-10.76-18.146-10.207-24.293-6.16c-6.155,4.047-6.137,12.525-1.642,16.172
			C34.592,161.504,52.931,167.919,56.018,147.835"/>
		<path fill="#C44D26" d="M13.406,146.553c3.075-5.216,3.623-5.161,6.022-11.677c1.299-3.461,0.985-7.777,0.417-11.053
			c-2.951,1.645-5.265,3.231-6.507,4.415c-3.118,2.98-8.629,11.552-11.968,19.736C5.873,150.371,11.515,149.749,13.406,146.553"/>
		<path fill="#C44D26" d="M21.765,174.031c1.234-10.241-2.632-14.003-9.488-13.336c-4.342,0.405-9.512-0.738-13.562-0.017
			c0.036,0.333,0.063,0.677,0.139,0.987c1.486,5.739,7.211,13.894,13.064,21.834C16.857,181.994,21.189,178.795,21.765,174.031"/>
		<path fill="#C44D26" d="M46.347,199.377c1.564-3.164,2.311-6.469,1.68-9.125c-1.974-8.276-6.317-16.988-14.89-12.08
			c-8.579,4.903-12.51,11.878-12.912,16.619C24.934,201.446,36.566,201.239,46.347,199.377"/>
		<path fill="#C44D26" d="M39.359,116.367c2.655,5.081,7.971,9.442,13.902,11.506c4.619,1.608,10.252,0.524,14.432-0.79
			c-3.417-3.696-6.695-7.048-14.105-10.229C49.709,115.168,44.626,115.291,39.359,116.367"/>
	</g>
	<g>
		<path fill="#EEAC38" d="M262.267,145.619L262.267,145.619c0.62-1.46,2.319-2.149,3.779-1.531l63.235,26.768
			c1.459,0.619,2.147,2.32,1.529,3.779c-0.617,1.461-2.318,2.149-3.777,1.531l-63.234-26.769
			C262.338,148.779,261.649,147.079,262.267,145.619"/>
		<path fill="#EEAC38" d="M261.053,157.228L261.053,157.228c0.618-1.459,2.318-2.149,3.779-1.53l76.51,32.388
			c1.46,0.617,2.148,2.319,1.53,3.777c-0.617,1.461-2.317,2.15-3.779,1.533l-76.508-32.389
			C261.122,160.389,260.435,158.688,261.053,157.228"/>
		<path fill="#EEAC38" d="M249.446,163.13L249.446,163.13c0.618-1.46,2.319-2.148,3.78-1.531l76.509,32.389
			c1.461,0.617,2.149,2.318,1.531,3.777c-0.617,1.461-2.318,2.148-3.779,1.533l-76.509-32.39
			C249.518,166.292,248.829,164.59,249.446,163.13"/>
		<path fill="#EEAC38" d="M336.335,199.91L336.335,199.91c0.617-1.459,2.318-2.148,3.778-1.529l21.24,8.99
			c1.46,0.619,2.148,2.32,1.53,3.779c-0.618,1.461-2.318,2.148-3.778,1.531l-21.241-8.992
			C336.405,203.07,335.718,201.371,336.335,199.91"/>
		<path fill="#EEAC38" d="M363.268,200.496L363.268,200.496c0.617-1.459,2.319-2.148,3.779-1.529l6.999,2.963
			c1.46,0.617,2.148,2.318,1.528,3.777c-0.617,1.459-2.316,2.15-3.776,1.531l-7-2.961
			C363.337,203.658,362.647,201.957,363.268,200.496"/>
		<path fill="#EEAC38" d="M341.07,178.979L341.07,178.979c0.617-1.461,2.318-2.15,3.778-1.532l6.998,2.963
			c1.461,0.621,2.15,2.318,1.532,3.777c-0.617,1.461-2.316,2.15-3.778,1.533l-7-2.964
			C341.14,182.139,340.451,180.438,341.07,178.979"/>
		<path fill="#EEAC38" d="M253.227,175.716L253.227,175.716c0.617-1.461,2.317-2.149,3.779-1.532l76.509,32.388
			c1.46,0.617,2.148,2.318,1.531,3.779c-0.618,1.459-2.318,2.148-3.779,1.531l-76.509-32.388
			C253.297,178.876,252.608,177.176,253.227,175.716"/>
		<path fill="#EEAC38" d="M289.244,163.244c0.551-1.301,1.961-1.983,3.294-1.68l-27.383-11.591c0,0,2.633,1.512,1.654,3.831
			c-0.982,2.315-3.183,1.671-3.183,1.671l26.702,11.306C289.184,166.034,288.692,164.547,289.244,163.244"/>
		<path fill="#EEAC38" d="M282.485,171.709c0.406-0.965,1.451-1.47,2.438-1.245l-20.271-8.584c0,0,1.947,1.124,1.222,2.837
			c-0.725,1.715-2.356,1.24-2.356,1.24l19.773,8.371C282.44,173.773,282.075,172.671,282.485,171.709"/>
		<path fill="#EEAC38" d="M294.785,187.811c0.424-1.002,1.512-1.527,2.536-1.295l-21.077-8.921c0,0,2.025,1.165,1.272,2.947
			c-0.756,1.784-2.451,1.287-2.451,1.287l20.559,8.704C294.741,189.956,294.361,188.812,294.785,187.811"/>
	</g>
</g>
</svg>
