<?xml version="1.0" encoding="utf-8"?>
<!-- Generator: Adobe Illustrator 15.0.0, SVG Export Plug-In . SVG Version: 6.00 Build 0)  -->
<!DOCTYPE svg PUBLIC "-//W3C//DTD SVG 1.1//EN" "http://www.w3.org/Graphics/SVG/1.1/DTD/svg11.dtd">
<svg version="1.1" id="圖層_1" xmlns="http://www.w3.org/2000/svg" xmlns:xlink="http://www.w3.org/1999/xlink" x="0px" y="0px"
	 width="1024px" height="1024px" viewBox="0 0 1024 1024" enable-background="new 0 0 1024 1024" xml:space="preserve">
<g>
	<defs>
		<rect id="SVGID_3_" y="0" width="1024" height="1024"/>
	</defs>
	<clipPath id="SVGID_1_">
		<use xlink:href="#SVGID_3_"  overflow="visible"/>
	</clipPath>
	<rect clip-path="url(#SVGID_1_)" fill="#15102B" width="1025.508" height="1306.058"/>
	<g opacity="0.9" clip-path="url(#SVGID_1_)">
		<path fill="#FFFFFF" d="M1260.092,317.875c-3.431,0-6.211,2.778-6.211,6.212c0,3.435,2.78,6.215,6.211,6.215
			s6.216-2.78,6.216-6.215C1266.308,320.653,1263.522,317.875,1260.092,317.875z"/>
		<path fill="#FFFFFF" d="M1260.715,99.794c-1.717,0-3.104,1.388-3.104,3.106c0,1.718,1.388,3.105,3.104,3.105
			c1.719,0,3.106-1.387,3.106-3.105C1263.821,101.182,1262.434,99.794,1260.715,99.794z"/>
		<circle fill="#FFFFFF" cx="1090.465" cy="38.266" r="3.107"/>
		<circle fill="#FFFFFF" cx="1200.443" cy="71.819" r="3.108"/>
		<path opacity="0.6" fill="#FFFFFF" d="M712.064,342.11c-1.718,0-3.11,1.388-3.11,3.106c0,1.712,1.393,3.104,3.11,3.104
			c1.713,0,3.105-1.392,3.105-3.104C715.17,343.498,713.777,342.11,712.064,342.11z"/>
		<path opacity="0.6" fill="#FFFFFF" d="M627.557,227.157c-1.713,0-3.11,1.392-3.11,3.104c0,1.718,1.397,3.109,3.11,3.109
			c1.718,0,3.105-1.391,3.105-3.109C630.662,228.549,629.274,227.157,627.557,227.157z"/>
		<circle fill="#FFFFFF" cx="1137.064" cy="273.758" r="3.107"/>
		<circle fill="#FFFFFF" cx="798.43" cy="87.353" r="3.107"/>
		<path fill="#FFFFFF" d="M1263.822,515.465c-1.719,0-3.106,1.388-3.106,3.106c0,1.717,1.388,3.104,3.106,3.104
			c1.717,0,3.105-1.388,3.105-3.104C1266.928,516.853,1265.539,515.465,1263.822,515.465z"/>
		<path fill="#FFFFFF" d="M1168.754,396.786c-1.029,0-1.862,0.83-1.862,1.861c0,1.032,0.833,1.866,1.862,1.866
			c1.032,0,1.865-0.834,1.865-1.866C1170.619,397.616,1169.786,396.786,1168.754,396.786z"/>
		<path fill="#FFFFFF" d="M1087.356,172.478c-1.715,0-3.104,1.391-3.104,3.107c0,1.712,1.39,3.106,3.104,3.106
			c1.716,0,3.108-1.394,3.108-3.106C1090.465,173.869,1089.072,172.478,1087.356,172.478z"/>
		<path fill="#FFFFFF" d="M1012.176,56.908c-1.718,0-3.108,1.388-3.108,3.105c0,1.717,1.391,3.105,3.108,3.105
			c1.715,0,3.105-1.388,3.105-3.105C1015.281,58.296,1013.891,56.908,1012.176,56.908z"/>
		<path fill="#FFFFFF" d="M935.127,370.07c-1.718,0-3.105,1.391-3.105,3.104c0,1.713,1.388,3.109,3.105,3.109
			c1.713,0,3.105-1.396,3.105-3.109C938.232,371.46,936.84,370.07,935.127,370.07z"/>
		<path fill="#FFFFFF" d="M841.925,433.443c-1.032,0-1.865,0.835-1.865,1.867c0,1.027,0.833,1.864,1.865,1.864
			c1.028,0,1.864-0.837,1.864-1.864C843.789,434.279,842.953,433.443,841.925,433.443z"/>
		<path fill="#FFFFFF" d="M705.849,87.973c-1.031,0-1.867,0.835-1.867,1.865c0,1.029,0.836,1.865,1.867,1.865
			c1.026,0,1.862-0.836,1.862-1.865C707.711,88.809,706.875,87.973,705.849,87.973z"/>
		<path fill="#FFFFFF" d="M1189.26,471.967c-1.029,0-1.862,0.838-1.862,1.863c0,1.032,0.833,1.87,1.862,1.87
			c1.026,0,1.861-0.838,1.861-1.87C1191.121,472.805,1190.286,471.967,1189.26,471.967z"/>
		<path opacity="0.6" fill="#FFFFFF" d="M75.798,401.137c-2.745,0-4.973,2.22-4.973,4.97c0,2.742,2.229,4.967,4.973,4.967
			c2.749,0,4.967-2.225,4.967-4.967C80.765,403.357,78.547,401.137,75.798,401.137z"/>
		<path opacity="0.6" fill="#FFFFFF" d="M78.284,210.381c-1.377,0-2.486,1.111-2.486,2.486c0,1.372,1.109,2.484,2.486,2.484
			c1.373,0,2.481-1.112,2.481-2.484C80.765,211.492,79.656,210.381,78.284,210.381z"/>
		<path opacity="0.6" fill="#FFFFFF" d="M245.421,301.721c-1.366,0-2.48,1.112-2.48,2.481c0,1.38,1.114,2.489,2.48,2.489
			c1.373,0,2.493-1.109,2.493-2.489C247.914,302.833,246.794,301.721,245.421,301.721z"/>
		<path opacity="0.6" fill="#FFFFFF" d="M26.713,347.697c-1.372,0-2.486,1.111-2.486,2.489c0,1.369,1.114,2.48,2.486,2.48
			s2.482-1.111,2.482-2.48C29.195,348.809,28.085,347.697,26.713,347.697z"/>
		<path opacity="0.6" fill="#FFFFFF" d="M385.227,95.433c-1.372,0-2.48,1.108-2.48,2.483c0,1.373,1.108,2.484,2.48,2.484
			s2.487-1.111,2.487-2.484C387.714,96.541,386.599,95.433,385.227,95.433z"/>
		<path opacity="0.6" fill="#FFFFFF" d="M572.876,158.186c-1.372,0-2.481,1.114-2.481,2.486s1.109,2.487,2.481,2.487
			c1.377,0,2.491-1.115,2.491-2.487S574.253,158.186,572.876,158.186z"/>
		<path opacity="0.6" fill="#FFFFFF" d="M541.192,361.987c-1.378,0-2.486,1.119-2.486,2.488c0,1.371,1.108,2.489,2.486,2.489
			c1.372,0,2.48-1.119,2.48-2.489C543.673,363.105,542.564,361.987,541.192,361.987z"/>
		<path opacity="0.6" fill="#FFFFFF" d="M155.952,274.378c-1.378,0-2.487,1.114-2.487,2.486c0,1.375,1.109,2.484,2.487,2.484
			c1.372,0,2.481-1.109,2.481-2.484C158.433,275.492,157.323,274.378,155.952,274.378z"/>
		<path fill="#FFFFFF" d="M895.359,285.562c-1.372,0-2.486,1.111-2.486,2.489c0,1.369,1.114,2.481,2.486,2.481
			c1.373,0,2.486-1.112,2.486-2.481C897.846,286.673,896.732,285.562,895.359,285.562z"/>
		<path opacity="0.6" fill="#FFFFFF" d="M29.819,240.205c-1.032,0-1.867,0.833-1.867,1.863c0,1.032,0.835,1.864,1.867,1.864
			c1.026,0,1.863-0.833,1.863-1.864C31.682,241.037,30.845,240.205,29.819,240.205z"/>
		<path opacity="0.6" fill="#FFFFFF" d="M321.232,173.099c-1.372,0-2.486,1.112-2.486,2.487c0,1.372,1.114,2.483,2.486,2.483
			c1.378,0,2.486-1.111,2.486-2.483C323.719,174.21,322.61,173.099,321.232,173.099z"/>
		<path opacity="0.6" fill="#FFFFFF" d="M416.297,183.662c-1.372,0-2.481,1.111-2.481,2.483c0,1.375,1.109,2.49,2.481,2.49
			c1.368,0,2.486-1.115,2.486-2.49C418.784,184.773,417.665,183.662,416.297,183.662z"/>
		<path opacity="0.6" fill="#FFFFFF" d="M247.914,186.145c-1.032,0-1.863,0.838-1.863,1.867c0,1.027,0.831,1.863,1.863,1.863
			c1.031,0,1.862-0.835,1.862-1.863C249.776,186.983,248.945,186.145,247.914,186.145z"/>
		<path opacity="0.6" fill="#FFFFFF" d="M507.016,146.381c-1.377,0-2.486,1.112-2.486,2.484c0,1.375,1.109,2.489,2.486,2.489
			c1.372,0,2.482-1.115,2.482-2.489C509.498,147.493,508.388,146.381,507.016,146.381z"/>
		<path opacity="0.6" fill="#FFFFFF" d="M359.757,430.337c-1.372,0-2.491,1.115-2.491,2.487s1.119,2.486,2.491,2.486
			s2.486-1.114,2.486-2.486S361.129,430.337,359.757,430.337z"/>
		<circle fill="#FFFFFF" cx="953.146" cy="175.583" r="1.865"/>
	</g>
	<g opacity="0.9" clip-path="url(#SVGID_1_)">
		<path fill="#FFFFFF" d="M1267.417,771.296c-3.431,0-6.211,2.778-6.211,6.212c0,3.435,2.78,6.215,6.211,6.215
			s6.216-2.78,6.216-6.215C1273.633,774.074,1270.848,771.296,1267.417,771.296z"/>
		<path fill="#FFFFFF" d="M1268.04,553.216c-1.717,0-3.104,1.388-3.104,3.105s1.388,3.105,3.104,3.105
			c1.719,0,3.106-1.388,3.106-3.105S1269.759,553.216,1268.04,553.216z"/>
		<circle fill="#FFFFFF" cx="1097.79" cy="491.687" r="3.107"/>
		<circle fill="#FFFFFF" cx="1207.769" cy="525.24" r="3.108"/>
		<path opacity="0.6" fill="#FFFFFF" d="M719.39,795.531c-1.718,0-3.11,1.388-3.11,3.106c0,1.712,1.393,3.104,3.11,3.104
			c1.713,0,3.105-1.393,3.105-3.104C722.495,796.919,721.103,795.531,719.39,795.531z"/>
		<path opacity="0.6" fill="#FFFFFF" d="M634.882,680.578c-1.713,0-3.11,1.392-3.11,3.104c0,1.718,1.397,3.108,3.11,3.108
			c1.718,0,3.105-1.391,3.105-3.108C637.987,681.97,636.6,680.578,634.882,680.578z"/>
		<circle fill="#FFFFFF" cx="1144.39" cy="727.179" r="3.106"/>
		<circle fill="#FFFFFF" cx="805.755" cy="540.774" r="3.107"/>
		<path fill="#FFFFFF" d="M1271.147,968.886c-1.719,0-3.106,1.388-3.106,3.106c0,1.717,1.388,3.104,3.106,3.104
			c1.717,0,3.104-1.388,3.104-3.104C1274.252,970.273,1272.864,968.886,1271.147,968.886z"/>
		<path fill="#FFFFFF" d="M1176.079,850.207c-1.029,0-1.862,0.83-1.862,1.861c0,1.032,0.833,1.866,1.862,1.866
			c1.032,0,1.865-0.834,1.865-1.866C1177.944,851.037,1177.111,850.207,1176.079,850.207z"/>
		<path fill="#FFFFFF" d="M1094.682,625.899c-1.715,0-3.105,1.391-3.105,3.107c0,1.712,1.391,3.105,3.105,3.105
			c1.716,0,3.108-1.394,3.108-3.105C1097.79,627.29,1096.397,625.899,1094.682,625.899z"/>
		<circle fill="#FFFFFF" cx="1019.501" cy="513.435" r="3.105"/>
		<path fill="#FFFFFF" d="M942.452,823.491c-1.718,0-3.105,1.391-3.105,3.104c0,1.712,1.388,3.108,3.105,3.108
			c1.713,0,3.105-1.396,3.105-3.108C945.558,824.882,944.165,823.491,942.452,823.491z"/>
		<path fill="#FFFFFF" d="M849.25,886.864c-1.032,0-1.865,0.835-1.865,1.867c0,1.027,0.833,1.864,1.865,1.864
			c1.028,0,1.864-0.837,1.864-1.864C851.114,887.699,850.278,886.864,849.25,886.864z"/>
		<path fill="#FFFFFF" d="M713.174,541.394c-1.031,0-1.867,0.836-1.867,1.865c0,1.028,0.836,1.865,1.867,1.865
			c1.026,0,1.862-0.837,1.862-1.865C715.036,542.229,714.2,541.394,713.174,541.394z"/>
		<path fill="#FFFFFF" d="M1196.585,925.388c-1.03,0-1.862,0.839-1.862,1.863c0,1.031,0.832,1.87,1.862,1.87
			c1.026,0,1.861-0.839,1.861-1.87C1198.446,926.227,1197.611,925.388,1196.585,925.388z"/>
		<path opacity="0.6" fill="#FFFFFF" d="M83.123,854.559c-2.745,0-4.973,2.22-4.973,4.97c0,2.742,2.229,4.967,4.973,4.967
			c2.749,0,4.967-2.225,4.967-4.967C88.09,856.778,85.872,854.559,83.123,854.559z"/>
		<path opacity="0.6" fill="#FFFFFF" d="M85.609,663.802c-1.377,0-2.486,1.111-2.486,2.486c0,1.372,1.109,2.484,2.486,2.484
			c1.373,0,2.481-1.112,2.481-2.484C88.09,664.913,86.981,663.802,85.609,663.802z"/>
		<path opacity="0.6" fill="#FFFFFF" d="M252.747,755.142c-1.366,0-2.48,1.112-2.48,2.481c0,1.38,1.114,2.489,2.48,2.489
			c1.373,0,2.492-1.109,2.492-2.489C255.239,756.254,254.12,755.142,252.747,755.142z"/>
		<path opacity="0.6" fill="#FFFFFF" d="M34.039,801.118c-1.372,0-2.486,1.111-2.486,2.489c0,1.369,1.114,2.48,2.486,2.48
			s2.481-1.111,2.481-2.48C36.52,802.229,35.411,801.118,34.039,801.118z"/>
		<path opacity="0.6" fill="#FFFFFF" d="M392.552,548.854c-1.372,0-2.481,1.108-2.481,2.483c0,1.373,1.109,2.484,2.481,2.484
			s2.486-1.111,2.486-2.484C395.039,549.962,393.924,548.854,392.552,548.854z"/>
		<path opacity="0.6" fill="#FFFFFF" d="M548.518,815.407c-1.378,0-2.486,1.119-2.486,2.488c0,1.371,1.108,2.489,2.486,2.489
			c1.372,0,2.48-1.118,2.48-2.489C550.998,816.526,549.89,815.407,548.518,815.407z"/>
		<path opacity="0.6" fill="#FFFFFF" d="M163.276,727.799c-1.377,0-2.486,1.114-2.486,2.486c0,1.375,1.109,2.483,2.486,2.483
			c1.372,0,2.481-1.108,2.481-2.483C165.758,728.913,164.648,727.799,163.276,727.799z"/>
		<path fill="#FFFFFF" d="M902.685,738.982c-1.372,0-2.486,1.111-2.486,2.489c0,1.369,1.114,2.48,2.486,2.48
			c1.373,0,2.486-1.111,2.486-2.48C905.171,740.094,904.058,738.982,902.685,738.982z"/>
		<path opacity="0.6" fill="#FFFFFF" d="M65.104,561.899c-1.367,0-2.486,1.114-2.486,2.486s1.12,2.486,2.486,2.486
			c1.372,0,2.487-1.114,2.487-2.486S66.476,561.899,65.104,561.899z"/>
		<path opacity="0.6" fill="#FFFFFF" d="M37.144,693.626c-1.032,0-1.867,0.832-1.867,1.862c0,1.031,0.835,1.864,1.867,1.864
			c1.026,0,1.863-0.833,1.863-1.864C39.007,694.458,38.17,693.626,37.144,693.626z"/>
		<path opacity="0.6" fill="#FFFFFF" d="M255.239,639.566c-1.032,0-1.863,0.838-1.863,1.867c0,1.027,0.831,1.862,1.863,1.862
			c1.032,0,1.862-0.835,1.862-1.862C257.101,640.404,256.271,639.566,255.239,639.566z"/>
		<path opacity="0.6" fill="#FFFFFF" d="M367.082,883.758c-1.372,0-2.492,1.115-2.492,2.487s1.12,2.486,2.492,2.486
			s2.486-1.114,2.486-2.486S368.454,883.758,367.082,883.758z"/>
		<path fill="#FFFFFF" d="M960.471,627.14c-1.029,0-1.861,0.838-1.861,1.867c0,1.026,0.832,1.862,1.861,1.862
			c1.026,0,1.862-0.836,1.862-1.862C962.333,627.978,961.497,627.14,960.471,627.14z"/>
		<path opacity="0.6" fill="#FFFFFF" d="M175.08,545.124c-1.026,0-1.863,0.835-1.863,1.861c0,1.03,0.836,1.868,1.863,1.868
			c1.032,0,1.867-0.838,1.867-1.868C176.947,545.959,176.111,545.124,175.08,545.124z"/>
	</g>
	<g opacity="0.9" clip-path="url(#SVGID_1_)">
		<path fill="#FFFFFF" d="M1252.768,1133.153c-3.432,0-6.212,2.778-6.212,6.212c0,3.436,2.78,6.215,6.212,6.215
			c3.43,0,6.215-2.779,6.215-6.215C1258.982,1135.932,1256.197,1133.153,1252.768,1133.153z"/>
		<path fill="#FFFFFF" d="M1253.391,915.073c-1.718,0-3.105,1.388-3.105,3.105c0,1.719,1.388,3.106,3.105,3.106
			s3.105-1.388,3.105-3.106C1256.496,916.461,1255.108,915.073,1253.391,915.073z"/>
		<circle fill="#FFFFFF" cx="1083.14" cy="853.545" r="3.107"/>
		<circle fill="#FFFFFF" cx="1193.118" cy="887.098" r="3.108"/>
		<path opacity="0.6" fill="#FFFFFF" d="M704.74,1157.389c-1.719,0-3.111,1.389-3.111,3.106c0,1.713,1.393,3.104,3.111,3.104
			c1.712,0,3.105-1.392,3.105-3.104C707.846,1158.777,706.452,1157.389,704.74,1157.389z"/>
		<path opacity="0.6" fill="#FFFFFF" d="M620.232,1042.436c-1.714,0-3.111,1.393-3.111,3.104c0,1.719,1.397,3.109,3.111,3.109
			c1.717,0,3.104-1.391,3.104-3.109C623.337,1043.828,621.949,1042.436,620.232,1042.436z"/>
		<circle fill="#FFFFFF" cx="1129.74" cy="1089.037" r="3.107"/>
		<circle fill="#FFFFFF" cx="791.104" cy="902.632" r="3.106"/>
		<circle fill="#FFFFFF" cx="1256.497" cy="1333.85" r="3.105"/>
		<path fill="#FFFFFF" d="M1161.43,1212.065c-1.029,0-1.863,0.829-1.863,1.861c0,1.031,0.834,1.865,1.863,1.865
			c1.031,0,1.864-0.834,1.864-1.865C1163.294,1212.895,1162.461,1212.065,1161.43,1212.065z"/>
		<path fill="#FFFFFF" d="M1080.031,987.757c-1.715,0-3.104,1.391-3.104,3.107c0,1.713,1.39,3.106,3.104,3.106
			c1.716,0,3.108-1.394,3.108-3.106C1083.14,989.147,1081.747,987.757,1080.031,987.757z"/>
		<path fill="#FFFFFF" d="M1004.851,872.187c-1.718,0-3.108,1.388-3.108,3.106c0,1.717,1.391,3.104,3.108,3.104
			c1.716,0,3.105-1.388,3.105-3.104C1007.956,873.574,1006.566,872.187,1004.851,872.187z"/>
		<path fill="#FFFFFF" d="M927.802,1185.349c-1.718,0-3.105,1.391-3.105,3.104c0,1.713,1.388,3.109,3.105,3.109
			c1.713,0,3.105-1.396,3.105-3.109C930.907,1186.739,929.515,1185.349,927.802,1185.349z"/>
		<path fill="#FFFFFF" d="M834.6,1248.722c-1.031,0-1.865,0.836-1.865,1.867c0,1.027,0.834,1.864,1.865,1.864
			c1.028,0,1.865-0.837,1.865-1.864C836.465,1249.558,835.628,1248.722,834.6,1248.722z"/>
		<path fill="#FFFFFF" d="M698.523,903.252c-1.031,0-1.867,0.836-1.867,1.865c0,1.028,0.836,1.864,1.867,1.864
			c1.026,0,1.863-0.836,1.863-1.864C700.387,904.088,699.55,903.252,698.523,903.252z"/>
		<path fill="#FFFFFF" d="M1181.935,1287.246c-1.029,0-1.862,0.838-1.862,1.862c0,1.031,0.833,1.87,1.862,1.87
			c1.026,0,1.862-0.839,1.862-1.87C1183.797,1288.084,1182.961,1287.246,1181.935,1287.246z"/>
		<path opacity="0.6" fill="#FFFFFF" d="M68.473,1216.416c-2.745,0-4.973,2.221-4.973,4.97c0,2.743,2.228,4.968,4.973,4.968
			c2.749,0,4.967-2.225,4.967-4.968C73.44,1218.637,71.222,1216.416,68.473,1216.416z"/>
		<path opacity="0.6" fill="#FFFFFF" d="M70.958,1025.66c-1.377,0-2.486,1.111-2.486,2.486c0,1.372,1.109,2.483,2.486,2.483
			c1.373,0,2.481-1.111,2.481-2.483C73.44,1026.771,72.332,1025.66,70.958,1025.66z"/>
		<path opacity="0.6" fill="#FFFFFF" d="M238.097,1117c-1.366,0-2.481,1.111-2.481,2.48c0,1.381,1.115,2.489,2.481,2.489
			c1.373,0,2.492-1.108,2.492-2.489C240.589,1118.111,239.469,1117,238.097,1117z"/>
		<path opacity="0.6" fill="#FFFFFF" d="M19.389,1162.976c-1.372,0-2.487,1.112-2.487,2.489c0,1.369,1.115,2.481,2.487,2.481
			s2.481-1.112,2.481-2.481C21.87,1164.088,20.761,1162.976,19.389,1162.976z"/>
		<path opacity="0.6" fill="#FFFFFF" d="M377.902,910.711c-1.372,0-2.481,1.109-2.481,2.484c0,1.372,1.109,2.484,2.481,2.484
			s2.486-1.112,2.486-2.484C380.389,911.82,379.274,910.711,377.902,910.711z"/>
		<path opacity="0.6" fill="#FFFFFF" d="M565.551,973.465c-1.372,0-2.481,1.114-2.481,2.486s1.109,2.486,2.481,2.486
			c1.377,0,2.492-1.114,2.492-2.486S566.928,973.465,565.551,973.465z"/>
		<path opacity="0.6" fill="#FFFFFF" d="M533.867,1177.266c-1.378,0-2.486,1.119-2.486,2.488c0,1.37,1.108,2.489,2.486,2.489
			c1.372,0,2.48-1.119,2.48-2.489C536.348,1178.385,535.239,1177.266,533.867,1177.266z"/>
		<path opacity="0.6" fill="#FFFFFF" d="M148.626,1089.656c-1.378,0-2.486,1.115-2.486,2.487c0,1.374,1.108,2.483,2.486,2.483
			c1.372,0,2.481-1.109,2.481-2.483C151.108,1090.771,149.999,1089.656,148.626,1089.656z"/>
		<path fill="#FFFFFF" d="M888.034,1100.84c-1.372,0-2.486,1.112-2.486,2.49c0,1.369,1.114,2.48,2.486,2.48
			c1.373,0,2.486-1.111,2.486-2.48C890.521,1101.952,889.407,1100.84,888.034,1100.84z"/>
		<path opacity="0.6" fill="#FFFFFF" d="M50.454,923.757c-1.367,0-2.487,1.114-2.487,2.486s1.12,2.487,2.487,2.487
			c1.372,0,2.486-1.115,2.486-2.487S51.826,923.757,50.454,923.757z"/>
		<path opacity="0.6" fill="#FFFFFF" d="M22.494,1055.483c-1.031,0-1.867,0.833-1.867,1.863c0,1.031,0.835,1.864,1.867,1.864
			c1.027,0,1.863-0.833,1.863-1.864C24.356,1056.316,23.521,1055.483,22.494,1055.483z"/>
		<path opacity="0.6" fill="#FFFFFF" d="M313.907,988.378c-1.372,0-2.486,1.111-2.486,2.486c0,1.372,1.114,2.483,2.486,2.483
			c1.378,0,2.487-1.111,2.487-2.483C316.394,989.489,315.285,988.378,313.907,988.378z"/>
		<path opacity="0.6" fill="#FFFFFF" d="M408.972,998.94c-1.372,0-2.481,1.111-2.481,2.483c0,1.375,1.109,2.489,2.481,2.489
			c1.368,0,2.486-1.114,2.486-2.489C411.458,1000.052,410.34,998.94,408.972,998.94z"/>
		<path opacity="0.6" fill="#FFFFFF" d="M240.589,1001.424c-1.032,0-1.863,0.839-1.863,1.867c0,1.027,0.831,1.863,1.863,1.863
			c1.031,0,1.862-0.836,1.862-1.863C242.451,1002.263,241.62,1001.424,240.589,1001.424z"/>
		<path opacity="0.6" fill="#FFFFFF" d="M499.691,961.66c-1.378,0-2.487,1.111-2.487,2.483c0,1.375,1.109,2.489,2.487,2.489
			c1.372,0,2.481-1.114,2.481-2.489C502.173,962.771,501.063,961.66,499.691,961.66z"/>
		<path opacity="0.6" fill="#FFFFFF" d="M352.432,1245.616c-1.372,0-2.491,1.114-2.491,2.486s1.119,2.486,2.491,2.486
			s2.487-1.114,2.487-2.486S353.804,1245.616,352.432,1245.616z"/>
		<circle fill="#FFFFFF" cx="945.821" cy="990.862" r="1.865"/>
		<path opacity="0.6" fill="#FFFFFF" d="M160.43,906.981c-1.027,0-1.863,0.836-1.863,1.862c0,1.029,0.836,1.867,1.863,1.867
			c1.031,0,1.867-0.838,1.867-1.867C162.296,907.817,161.461,906.981,160.43,906.981z"/>
	</g>
</g>
</svg>
