<?xml version="1.0" encoding="utf-8"?>
<!-- Generator: Adobe Illustrator 15.0.0, SVG Export Plug-In . SVG Version: 6.00 Build 0)  -->
<!DOCTYPE svg PUBLIC "-//W3C//DTD SVG 1.1//EN" "http://www.w3.org/Graphics/SVG/1.1/DTD/svg11.dtd">
<svg version="1.1" xmlns="http://www.w3.org/2000/svg" xmlns:xlink="http://www.w3.org/1999/xlink" x="0px" y="0px" width="1024px"
	 height="174.354px" viewBox="0 0 1024 174.354" enable-background="new 0 0 1024 174.354" xml:space="preserve">
<g id="圖層_1" display="none">
	<g display="inline">
		<defs>
			<rect id="SVGID_1_" y="-849.683" width="1024" height="1024"/>
		</defs>
		<clipPath id="SVGID_2_">
			<use xlink:href="#SVGID_1_"  overflow="visible"/>
		</clipPath>
		<rect y="-849.684" clip-path="url(#SVGID_2_)" fill="#15102B" width="1025.508" height="1306.058"/>
		<g opacity="0.9" clip-path="url(#SVGID_2_)">
			<path fill="#FFFFFF" d="M1260.092-531.809c-3.431,0-6.211,2.778-6.211,6.212c0,3.435,2.78,6.215,6.211,6.215
				s6.216-2.78,6.216-6.215C1266.308-529.031,1263.522-531.809,1260.092-531.809z"/>
			<path fill="#FFFFFF" d="M1260.715-749.889c-1.717,0-3.104,1.388-3.104,3.106c0,1.718,1.388,3.105,3.104,3.105
				c1.719,0,3.106-1.387,3.106-3.105C1263.821-748.501,1262.434-749.889,1260.715-749.889z"/>
			<circle fill="#FFFFFF" cx="1090.465" cy="-811.417" r="3.107"/>
			<circle fill="#FFFFFF" cx="1200.443" cy="-777.865" r="3.108"/>
			<path opacity="0.6" fill="#FFFFFF" d="M712.064-507.573c-1.718,0-3.11,1.388-3.11,3.106c0,1.712,1.393,3.104,3.11,3.104
				c1.713,0,3.105-1.392,3.105-3.104C715.17-506.186,713.777-507.573,712.064-507.573z"/>
			<path opacity="0.6" fill="#FFFFFF" d="M627.557-622.527c-1.713,0-3.11,1.392-3.11,3.104c0,1.718,1.397,3.109,3.11,3.109
				c1.718,0,3.105-1.391,3.105-3.109C630.662-621.135,629.274-622.527,627.557-622.527z"/>
			<circle fill="#FFFFFF" cx="1137.064" cy="-575.926" r="3.107"/>
			<circle fill="#FFFFFF" cx="798.43" cy="-762.331" r="3.107"/>
			<path fill="#FFFFFF" d="M1263.822-334.219c-1.719,0-3.106,1.388-3.106,3.106c0,1.717,1.388,3.104,3.106,3.104
				c1.717,0,3.105-1.388,3.105-3.104C1266.928-332.831,1265.539-334.219,1263.822-334.219z"/>
			<path fill="#FFFFFF" d="M1168.754-452.897c-1.029,0-1.862,0.83-1.862,1.861c0,1.032,0.833,1.866,1.862,1.866
				c1.032,0,1.865-0.834,1.865-1.866C1170.619-452.067,1169.786-452.897,1168.754-452.897z"/>
			<path fill="#FFFFFF" d="M1087.356-677.206c-1.715,0-3.104,1.391-3.104,3.107c0,1.712,1.39,3.106,3.104,3.106
				c1.716,0,3.108-1.394,3.108-3.106C1090.465-675.815,1089.072-677.206,1087.356-677.206z"/>
			<path fill="#FFFFFF" d="M1012.176-792.775c-1.718,0-3.108,1.388-3.108,3.105c0,1.717,1.391,3.105,3.108,3.105
				c1.715,0,3.105-1.388,3.105-3.105C1015.281-791.388,1013.891-792.775,1012.176-792.775z"/>
			<path fill="#FFFFFF" d="M935.127-479.614c-1.718,0-3.105,1.391-3.105,3.104c0,1.713,1.388,3.109,3.105,3.109
				c1.713,0,3.105-1.396,3.105-3.109C938.232-478.223,936.84-479.614,935.127-479.614z"/>
			<path fill="#FFFFFF" d="M841.925-416.24c-1.032,0-1.865,0.835-1.865,1.867c0,1.027,0.833,1.864,1.865,1.864
				c1.028,0,1.864-0.837,1.864-1.864C843.789-415.405,842.953-416.24,841.925-416.24z"/>
			<path fill="#FFFFFF" d="M705.849-761.71c-1.031,0-1.867,0.835-1.867,1.865c0,1.029,0.836,1.865,1.867,1.865
				c1.026,0,1.862-0.836,1.862-1.865C707.711-760.875,706.875-761.71,705.849-761.71z"/>
			<path fill="#FFFFFF" d="M1189.26-377.717c-1.029,0-1.862,0.838-1.862,1.863c0,1.032,0.833,1.87,1.862,1.87
				c1.026,0,1.861-0.838,1.861-1.87C1191.121-376.878,1190.286-377.717,1189.26-377.717z"/>
			<path opacity="0.6" fill="#FFFFFF" d="M75.798-448.546c-2.745,0-4.973,2.22-4.973,4.97c0,2.742,2.229,4.967,4.973,4.967
				c2.749,0,4.967-2.225,4.967-4.967C80.765-446.326,78.547-448.546,75.798-448.546z"/>
			<path opacity="0.6" fill="#FFFFFF" d="M78.284-639.303c-1.377,0-2.486,1.111-2.486,2.486c0,1.372,1.109,2.484,2.486,2.484
				c1.373,0,2.481-1.112,2.481-2.484C80.765-638.191,79.656-639.303,78.284-639.303z"/>
			<path opacity="0.6" fill="#FFFFFF" d="M245.421-547.963c-1.366,0-2.48,1.112-2.48,2.481c0,1.38,1.114,2.489,2.48,2.489
				c1.373,0,2.493-1.109,2.493-2.489C247.914-546.851,246.794-547.963,245.421-547.963z"/>
			<path opacity="0.6" fill="#FFFFFF" d="M26.713-501.986c-1.372,0-2.486,1.111-2.486,2.489c0,1.369,1.114,2.48,2.486,2.48
				s2.482-1.111,2.482-2.48C29.195-500.875,28.085-501.986,26.713-501.986z"/>
			<path opacity="0.6" fill="#FFFFFF" d="M385.227-754.251c-1.372,0-2.48,1.108-2.48,2.483c0,1.373,1.108,2.484,2.48,2.484
				s2.487-1.111,2.487-2.484C387.714-753.143,386.599-754.251,385.227-754.251z"/>
			<path opacity="0.6" fill="#FFFFFF" d="M572.876-691.498c-1.372,0-2.481,1.114-2.481,2.486s1.109,2.487,2.481,2.487
				c1.377,0,2.491-1.115,2.491-2.487S574.253-691.498,572.876-691.498z"/>
			<path opacity="0.6" fill="#FFFFFF" d="M541.192-487.697c-1.378,0-2.486,1.119-2.486,2.488c0,1.371,1.108,2.489,2.486,2.489
				c1.372,0,2.48-1.119,2.48-2.489C543.673-486.578,542.564-487.697,541.192-487.697z"/>
			<path opacity="0.6" fill="#FFFFFF" d="M155.952-575.306c-1.378,0-2.487,1.114-2.487,2.486c0,1.375,1.109,2.484,2.487,2.484
				c1.372,0,2.481-1.109,2.481-2.484C158.433-574.191,157.323-575.306,155.952-575.306z"/>
			<path fill="#FFFFFF" d="M895.359-564.122c-1.372,0-2.486,1.111-2.486,2.489c0,1.369,1.114,2.481,2.486,2.481
				c1.373,0,2.486-1.112,2.486-2.481C897.846-563.011,896.732-564.122,895.359-564.122z"/>
			<path opacity="0.6" fill="#FFFFFF" d="M29.819-609.479c-1.032,0-1.867,0.833-1.867,1.863c0,1.032,0.835,1.864,1.867,1.864
				c1.026,0,1.863-0.833,1.863-1.864C31.682-608.646,30.845-609.479,29.819-609.479z"/>
			<path opacity="0.6" fill="#FFFFFF" d="M321.232-676.585c-1.372,0-2.486,1.112-2.486,2.487c0,1.372,1.114,2.483,2.486,2.483
				c1.378,0,2.486-1.111,2.486-2.483C323.719-675.473,322.61-676.585,321.232-676.585z"/>
			<path opacity="0.6" fill="#FFFFFF" d="M416.297-666.022c-1.372,0-2.481,1.111-2.481,2.483c0,1.375,1.109,2.49,2.481,2.49
				c1.368,0,2.486-1.115,2.486-2.49C418.784-664.911,417.665-666.022,416.297-666.022z"/>
			<path opacity="0.6" fill="#FFFFFF" d="M247.914-663.539c-1.032,0-1.863,0.838-1.863,1.867c0,1.027,0.831,1.863,1.863,1.863
				c1.031,0,1.862-0.835,1.862-1.863C249.776-662.7,248.945-663.539,247.914-663.539z"/>
			<path opacity="0.6" fill="#FFFFFF" d="M507.016-703.303c-1.377,0-2.486,1.112-2.486,2.484c0,1.375,1.109,2.489,2.486,2.489
				c1.372,0,2.482-1.115,2.482-2.489C509.498-702.191,508.388-703.303,507.016-703.303z"/>
			<path opacity="0.6" fill="#FFFFFF" d="M359.757-419.347c-1.372,0-2.491,1.115-2.491,2.487s1.119,2.486,2.491,2.486
				s2.486-1.114,2.486-2.486S361.129-419.347,359.757-419.347z"/>
			<circle fill="#FFFFFF" cx="953.146" cy="-674.1" r="1.865"/>
		</g>
		<g opacity="0.9" clip-path="url(#SVGID_2_)">
			<path fill="#FFFFFF" d="M1267.417-78.388c-3.431,0-6.211,2.778-6.211,6.212c0,3.435,2.78,6.215,6.211,6.215
				s6.216-2.78,6.216-6.215C1273.633-75.609,1270.848-78.388,1267.417-78.388z"/>
			<path fill="#FFFFFF" d="M1268.04-296.468c-1.717,0-3.104,1.388-3.104,3.105s1.388,3.105,3.104,3.105
				c1.719,0,3.106-1.388,3.106-3.105S1269.759-296.468,1268.04-296.468z"/>
			<circle fill="#FFFFFF" cx="1097.79" cy="-357.996" r="3.107"/>
			<circle fill="#FFFFFF" cx="1207.769" cy="-324.443" r="3.108"/>
			<path opacity="0.6" fill="#FFFFFF" d="M719.39-54.152c-1.718,0-3.11,1.388-3.11,3.106c0,1.712,1.393,3.104,3.11,3.104
				c1.713,0,3.105-1.393,3.105-3.104C722.495-52.765,721.103-54.152,719.39-54.152z"/>
			<path opacity="0.6" fill="#FFFFFF" d="M634.882-169.105c-1.713,0-3.11,1.392-3.11,3.104c0,1.718,1.397,3.108,3.11,3.108
				c1.718,0,3.105-1.391,3.105-3.108C637.987-167.714,636.6-169.105,634.882-169.105z"/>
			<circle fill="#FFFFFF" cx="1144.39" cy="-122.505" r="3.106"/>
			<circle fill="#FFFFFF" cx="805.755" cy="-308.91" r="3.107"/>
			<path fill="#FFFFFF" d="M1271.147,119.202c-1.719,0-3.106,1.388-3.106,3.106c0,1.717,1.388,3.104,3.106,3.104
				c1.717,0,3.104-1.388,3.104-3.104C1274.252,120.59,1272.864,119.202,1271.147,119.202z"/>
			<path fill="#FFFFFF" d="M1176.079,0.523c-1.029,0-1.862,0.83-1.862,1.861c0,1.032,0.833,1.866,1.862,1.866
				c1.032,0,1.865-0.834,1.865-1.866C1177.944,1.354,1177.111,0.523,1176.079,0.523z"/>
			<path fill="#FFFFFF" d="M1094.682-223.784c-1.715,0-3.105,1.391-3.105,3.107c0,1.712,1.391,3.105,3.105,3.105
				c1.716,0,3.108-1.394,3.108-3.105C1097.79-222.394,1096.397-223.784,1094.682-223.784z"/>
			<circle fill="#FFFFFF" cx="1019.501" cy="-336.249" r="3.105"/>
			<path fill="#FFFFFF" d="M942.452-26.192c-1.718,0-3.105,1.391-3.105,3.104c0,1.712,1.388,3.108,3.105,3.108
				c1.713,0,3.105-1.396,3.105-3.108C945.558-24.802,944.165-26.192,942.452-26.192z"/>
			<path fill="#FFFFFF" d="M849.25,37.181c-1.032,0-1.865,0.835-1.865,1.867c0,1.027,0.833,1.864,1.865,1.864
				c1.028,0,1.864-0.837,1.864-1.864C851.114,38.016,850.278,37.181,849.25,37.181z"/>
			<path fill="#FFFFFF" d="M713.174-308.29c-1.031,0-1.867,0.836-1.867,1.865c0,1.028,0.836,1.865,1.867,1.865
				c1.026,0,1.862-0.837,1.862-1.865C715.036-307.454,714.2-308.29,713.174-308.29z"/>
			<path fill="#FFFFFF" d="M1196.585,75.704c-1.03,0-1.862,0.839-1.862,1.863c0,1.031,0.832,1.87,1.862,1.87
				c1.026,0,1.861-0.839,1.861-1.87C1198.446,76.543,1197.611,75.704,1196.585,75.704z"/>
			<path opacity="0.6" fill="#FFFFFF" d="M83.123,4.875c-2.745,0-4.973,2.22-4.973,4.97c0,2.742,2.229,4.967,4.973,4.967
				c2.749,0,4.967-2.225,4.967-4.967C88.09,7.095,85.872,4.875,83.123,4.875z"/>
			<path opacity="0.6" fill="#FFFFFF" d="M85.609-185.882c-1.377,0-2.486,1.111-2.486,2.486c0,1.372,1.109,2.484,2.486,2.484
				c1.373,0,2.481-1.112,2.481-2.484C88.09-184.771,86.981-185.882,85.609-185.882z"/>
			<path opacity="0.6" fill="#FFFFFF" d="M252.747-94.542c-1.366,0-2.48,1.112-2.48,2.481c0,1.38,1.114,2.489,2.48,2.489
				c1.373,0,2.492-1.109,2.492-2.489C255.239-93.43,254.12-94.542,252.747-94.542z"/>
			<path opacity="0.6" fill="#FFFFFF" d="M34.039-48.565c-1.372,0-2.486,1.111-2.486,2.489c0,1.369,1.114,2.48,2.486,2.48
				s2.481-1.111,2.481-2.48C36.52-47.454,35.411-48.565,34.039-48.565z"/>
			<path opacity="0.6" fill="#FFFFFF" d="M392.552-300.83c-1.372,0-2.481,1.108-2.481,2.483c0,1.373,1.109,2.484,2.481,2.484
				s2.486-1.111,2.486-2.484C395.039-299.722,393.924-300.83,392.552-300.83z"/>
			<path opacity="0.6" fill="#FFFFFF" d="M548.518-34.276c-1.378,0-2.486,1.119-2.486,2.488c0,1.371,1.108,2.489,2.486,2.489
				c1.372,0,2.48-1.118,2.48-2.489C550.998-33.157,549.89-34.276,548.518-34.276z"/>
			<path opacity="0.6" fill="#FFFFFF" d="M163.276-121.885c-1.377,0-2.486,1.114-2.486,2.486c0,1.375,1.109,2.483,2.486,2.483
				c1.372,0,2.481-1.108,2.481-2.483C165.758-120.771,164.648-121.885,163.276-121.885z"/>
			<path fill="#FFFFFF" d="M902.685-110.701c-1.372,0-2.486,1.111-2.486,2.489c0,1.369,1.114,2.48,2.486,2.48
				c1.373,0,2.486-1.111,2.486-2.48C905.171-109.59,904.058-110.701,902.685-110.701z"/>
			<path opacity="0.6" fill="#FFFFFF" d="M65.104-287.784c-1.367,0-2.486,1.114-2.486,2.486s1.12,2.486,2.486,2.486
				c1.372,0,2.487-1.114,2.487-2.486S66.476-287.784,65.104-287.784z"/>
			<path opacity="0.6" fill="#FFFFFF" d="M37.144-156.058c-1.032,0-1.867,0.832-1.867,1.862c0,1.031,0.835,1.864,1.867,1.864
				c1.026,0,1.863-0.833,1.863-1.864C39.007-155.226,38.17-156.058,37.144-156.058z"/>
			<path opacity="0.6" fill="#FFFFFF" d="M255.239-210.117c-1.032,0-1.863,0.838-1.863,1.867c0,1.027,0.831,1.862,1.863,1.862
				c1.032,0,1.862-0.835,1.862-1.862C257.101-209.279,256.271-210.117,255.239-210.117z"/>
			<path opacity="0.6" fill="#FFFFFF" d="M367.082,34.074c-1.372,0-2.492,1.115-2.492,2.487s1.12,2.486,2.492,2.486
				s2.486-1.114,2.486-2.486S368.454,34.074,367.082,34.074z"/>
			<path fill="#FFFFFF" d="M960.471-222.544c-1.029,0-1.861,0.838-1.861,1.867c0,1.026,0.832,1.862,1.861,1.862
				c1.026,0,1.862-0.836,1.862-1.862C962.333-221.706,961.497-222.544,960.471-222.544z"/>
			<path opacity="0.6" fill="#FFFFFF" d="M175.08-304.56c-1.026,0-1.863,0.835-1.863,1.861c0,1.03,0.836,1.868,1.863,1.868
				c1.032,0,1.867-0.838,1.867-1.868C176.947-303.725,176.111-304.56,175.08-304.56z"/>
		</g>
		<g opacity="0.9" clip-path="url(#SVGID_2_)">
			<path fill="#FFFFFF" d="M1252.768,283.47c-3.432,0-6.212,2.778-6.212,6.212c0,3.436,2.78,6.215,6.212,6.215
				c3.43,0,6.215-2.779,6.215-6.215C1258.982,286.248,1256.197,283.47,1252.768,283.47z"/>
			<path fill="#FFFFFF" d="M1253.391,65.39c-1.718,0-3.105,1.388-3.105,3.105c0,1.719,1.388,3.106,3.105,3.106
				s3.105-1.388,3.105-3.106C1256.496,66.777,1255.108,65.39,1253.391,65.39z"/>
			<circle fill="#FFFFFF" cx="1083.14" cy="3.862" r="3.107"/>
			<circle fill="#FFFFFF" cx="1193.118" cy="37.415" r="3.108"/>
			<path opacity="0.6" fill="#FFFFFF" d="M704.74,307.705c-1.719,0-3.111,1.389-3.111,3.106c0,1.713,1.393,3.104,3.111,3.104
				c1.712,0,3.105-1.392,3.105-3.104C707.846,309.094,706.452,307.705,704.74,307.705z"/>
			<path opacity="0.6" fill="#FFFFFF" d="M620.232,192.752c-1.714,0-3.111,1.393-3.111,3.104c0,1.719,1.397,3.109,3.111,3.109
				c1.717,0,3.104-1.391,3.104-3.109C623.337,194.145,621.949,192.752,620.232,192.752z"/>
			<circle fill="#FFFFFF" cx="1129.74" cy="239.353" r="3.107"/>
			<circle fill="#FFFFFF" cx="791.104" cy="52.948" r="3.106"/>
			<circle fill="#FFFFFF" cx="1256.497" cy="484.166" r="3.105"/>
			<path fill="#FFFFFF" d="M1161.43,362.382c-1.029,0-1.863,0.829-1.863,1.861c0,1.031,0.834,1.865,1.863,1.865
				c1.031,0,1.864-0.834,1.864-1.865C1163.294,363.211,1162.461,362.382,1161.43,362.382z"/>
			<path fill="#FFFFFF" d="M1080.031,138.073c-1.715,0-3.104,1.391-3.104,3.107c0,1.713,1.39,3.106,3.104,3.106
				c1.716,0,3.108-1.394,3.108-3.106C1083.14,139.464,1081.747,138.073,1080.031,138.073z"/>
			<path fill="#FFFFFF" d="M1004.851,22.503c-1.718,0-3.108,1.388-3.108,3.106c0,1.717,1.391,3.104,3.108,3.104
				c1.716,0,3.105-1.388,3.105-3.104C1007.956,23.891,1006.566,22.503,1004.851,22.503z"/>
			<path fill="#FFFFFF" d="M927.802,335.665c-1.718,0-3.105,1.391-3.105,3.104c0,1.713,1.388,3.109,3.105,3.109
				c1.713,0,3.105-1.396,3.105-3.109C930.907,337.056,929.515,335.665,927.802,335.665z"/>
			<path fill="#FFFFFF" d="M834.6,399.038c-1.031,0-1.865,0.836-1.865,1.867c0,1.027,0.834,1.864,1.865,1.864
				c1.028,0,1.865-0.837,1.865-1.864C836.465,399.874,835.628,399.038,834.6,399.038z"/>
			<path fill="#FFFFFF" d="M698.523,53.568c-1.031,0-1.867,0.836-1.867,1.865c0,1.028,0.836,1.864,1.867,1.864
				c1.026,0,1.863-0.836,1.863-1.864C700.387,54.404,699.55,53.568,698.523,53.568z"/>
			<path fill="#FFFFFF" d="M1181.935,437.563c-1.029,0-1.862,0.838-1.862,1.862c0,1.031,0.833,1.87,1.862,1.87
				c1.026,0,1.862-0.839,1.862-1.87C1183.797,438.4,1182.961,437.563,1181.935,437.563z"/>
			<path opacity="0.6" fill="#FFFFFF" d="M68.473,366.732c-2.745,0-4.973,2.221-4.973,4.97c0,2.743,2.228,4.968,4.973,4.968
				c2.749,0,4.967-2.225,4.967-4.968C73.44,368.953,71.222,366.732,68.473,366.732z"/>
			<path opacity="0.6" fill="#FFFFFF" d="M70.958,175.977c-1.377,0-2.486,1.111-2.486,2.486c0,1.372,1.109,2.483,2.486,2.483
				c1.373,0,2.481-1.111,2.481-2.483C73.44,177.088,72.332,175.977,70.958,175.977z"/>
			<path opacity="0.6" fill="#FFFFFF" d="M238.097,267.316c-1.366,0-2.481,1.111-2.481,2.48c0,1.381,1.115,2.489,2.481,2.489
				c1.373,0,2.492-1.108,2.492-2.489C240.589,268.428,239.469,267.316,238.097,267.316z"/>
			<path opacity="0.6" fill="#FFFFFF" d="M19.389,313.292c-1.372,0-2.487,1.112-2.487,2.489c0,1.369,1.115,2.481,2.487,2.481
				s2.481-1.112,2.481-2.481C21.87,314.404,20.761,313.292,19.389,313.292z"/>
			<path opacity="0.6" fill="#FFFFFF" d="M377.902,61.027c-1.372,0-2.481,1.109-2.481,2.484c0,1.372,1.109,2.484,2.481,2.484
				s2.486-1.112,2.486-2.484C380.389,62.137,379.274,61.027,377.902,61.027z"/>
			<path opacity="0.6" fill="#FFFFFF" d="M565.551,123.781c-1.372,0-2.481,1.114-2.481,2.486s1.109,2.486,2.481,2.486
				c1.377,0,2.492-1.114,2.492-2.486S566.928,123.781,565.551,123.781z"/>
			<path opacity="0.6" fill="#FFFFFF" d="M533.867,327.582c-1.378,0-2.486,1.119-2.486,2.488c0,1.37,1.108,2.489,2.486,2.489
				c1.372,0,2.48-1.119,2.48-2.489C536.348,328.701,535.239,327.582,533.867,327.582z"/>
			<path opacity="0.6" fill="#FFFFFF" d="M148.626,239.973c-1.378,0-2.486,1.115-2.486,2.487c0,1.374,1.108,2.483,2.486,2.483
				c1.372,0,2.481-1.109,2.481-2.483C151.108,241.088,149.999,239.973,148.626,239.973z"/>
			<path fill="#FFFFFF" d="M888.034,251.156c-1.372,0-2.486,1.112-2.486,2.49c0,1.369,1.114,2.48,2.486,2.48
				c1.373,0,2.486-1.111,2.486-2.48C890.521,252.269,889.407,251.156,888.034,251.156z"/>
			<path opacity="0.6" fill="#FFFFFF" d="M50.454,74.073c-1.367,0-2.487,1.114-2.487,2.486s1.12,2.487,2.487,2.487
				c1.372,0,2.486-1.115,2.486-2.487S51.826,74.073,50.454,74.073z"/>
			<path opacity="0.6" fill="#FFFFFF" d="M22.494,205.8c-1.031,0-1.867,0.833-1.867,1.863c0,1.031,0.835,1.864,1.867,1.864
				c1.027,0,1.863-0.833,1.863-1.864C24.356,206.633,23.521,205.8,22.494,205.8z"/>
			<path opacity="0.6" fill="#FFFFFF" d="M313.907,138.694c-1.372,0-2.486,1.111-2.486,2.486c0,1.372,1.114,2.483,2.486,2.483
				c1.378,0,2.487-1.111,2.487-2.483C316.394,139.806,315.285,138.694,313.907,138.694z"/>
			<path opacity="0.6" fill="#FFFFFF" d="M408.972,149.257c-1.372,0-2.481,1.111-2.481,2.483c0,1.375,1.109,2.489,2.481,2.489
				c1.368,0,2.486-1.114,2.486-2.489C411.458,150.368,410.34,149.257,408.972,149.257z"/>
			<path opacity="0.6" fill="#FFFFFF" d="M240.589,151.74c-1.032,0-1.863,0.839-1.863,1.867c0,1.027,0.831,1.863,1.863,1.863
				c1.031,0,1.862-0.836,1.862-1.863C242.451,152.579,241.62,151.74,240.589,151.74z"/>
			<path opacity="0.6" fill="#FFFFFF" d="M499.691,111.977c-1.378,0-2.487,1.111-2.487,2.483c0,1.375,1.109,2.489,2.487,2.489
				c1.372,0,2.481-1.114,2.481-2.489C502.173,113.088,501.063,111.977,499.691,111.977z"/>
			<path opacity="0.6" fill="#FFFFFF" d="M352.432,395.933c-1.372,0-2.491,1.114-2.491,2.486s1.119,2.486,2.491,2.486
				s2.487-1.114,2.487-2.486S353.804,395.933,352.432,395.933z"/>
			<circle fill="#FFFFFF" cx="945.821" cy="141.178" r="1.865"/>
			<path opacity="0.6" fill="#FFFFFF" d="M160.43,57.298c-1.027,0-1.863,0.836-1.863,1.862c0,1.029,0.836,1.867,1.863,1.867
				c1.031,0,1.867-0.838,1.867-1.867C162.296,58.134,161.461,57.298,160.43,57.298z"/>
		</g>
	</g>
</g>
<g id="圖層_2">
	<g>
		<defs>
			<rect id="SVGID_3_" y="1" width="1024" height="173.354"/>
		</defs>
		<clipPath id="SVGID_4_">
			<use xlink:href="#SVGID_3_"  overflow="visible"/>
		</clipPath>
		<path clip-path="url(#SVGID_4_)" fill="#352964" d="M680.697,112.707c72.943,0,140.82,21.694,197.529,58.982
			c15.818,10.401,16.772,35.572,30.721,48.268c12.831,11.679,33.967,13.595,45,27c8.91,10.825,22.044,19.301,29.66,31.13
			c12.593,19.559,18.678,30.959,27.34,52.87c2.793,7.063,3.65,39.726,6,47c7.318,22.652,18.836,30.253,21.539,54.621
			c1.461,13.175,2.211,26.564,2.211,40.129c0,42.03-7.202,82.379-20.441,119.877c-3.442,9.753-7.294,19.313-11.534,28.66
			c-6.207,13.688-18.968,27.005-26.774,39.713c-8.21,13.365-11.547,26.066-21.379,38.203c-6.739,8.318-22.18,16.115-29.621,23.797
			c-16.862,17.406-27.128,33.329-47.193,47.06c-19.018,13.014-41.404,20.72-62.807,29.94c-17.443,7.514-33.542,17.219-52.28,21.925
			c-14.245,3.577-27.858,1.253-42.72,3.075c-14.511,1.779-38.008,11-53,11c-10.978,0-16.272-9.038-27-10
			c-29.301-2.627-65.145-16.775-92-26c-25.896-8.896-37.152-15.742-60-30c-25.42-15.863-38.347-30.494-59-52
			c-7.819-8.143-34.967-38.15-42-47c-38.792-48.808-44.784-62.357-54-127c-0.464-3.256-13.624-46.717-14-50
			c-1.56-13.601,10.237-36.607,10.237-50.625c0-126.459,49.141-196.16,147.763-260.375c7.404-4.821,16.573-21.531,24.341-25.809
			c19.803-10.905,40.743-20.002,62.598-27.064c11.871-3.837,26.687,3.475,39.062,0.873
			C632.962,125.909,655.183,112.707,680.697,112.707z"/>
		<path clip-path="url(#SVGID_4_)" fill="#352964" d="M232.237,85.506c72.943,0,140.82,21.694,197.529,58.982
			c15.818,10.401,16.772,35.572,30.721,48.268c12.831,11.679,33.967,13.595,45,27c8.91,10.825,22.043,19.301,29.66,31.13
			c12.592,19.559,18.678,30.959,27.34,52.87c2.793,7.063,3.65,39.726,6,47c7.318,22.652,18.836,30.253,21.539,54.621
			c1.461,13.175,2.211,26.564,2.211,40.129c0,42.03-7.203,82.379-20.441,119.877c-3.443,9.753-7.295,19.313-11.535,28.66
			c-6.207,13.688-18.967,27.005-26.773,39.713c-8.211,13.365-11.547,26.066-21.379,38.203c-6.74,8.318-22.18,16.115-29.621,23.797
			c-16.862,17.406-27.128,33.329-47.193,47.06c-19.018,13.014-41.404,20.72-62.807,29.94c-17.443,7.514-33.542,17.219-52.28,21.925
			c-14.245,3.577-27.858,1.253-42.72,3.075c-14.511,1.779-38.008,11-53,11c-10.978,0-16.272-9.038-27-10
			c-29.301-2.627-65.145-16.775-92-26c-25.896-8.896-37.152-15.742-60-30c-25.42-15.863-38.347-30.494-59-52
			c-7.819-8.143-34.967-38.15-42-47c-38.791-48.808-44.785-62.357-54-127c-0.464-3.256-13.623-46.717-14-50
			c-1.559-13.601,10.237-36.607,10.237-50.625c0-126.459,49.141-196.16,147.763-260.375c7.404-4.821,16.573-21.531,24.34-25.809
			c19.804-10.905,40.744-20.002,62.599-27.064c11.871-3.837,26.687,3.475,39.062,0.873
			C184.502,98.708,206.723,85.506,232.237,85.506z"/>
		<g clip-path="url(#SVGID_4_)">
			<g>
				<path fill="#8977B5" d="M898.943,192.558c49.224,6.447,130.148,18.488,130.148,18.488s10.714-64.073,3.773-78.819
					c-6.938-14.747-28.42-19.36-28.42-19.36s4.036-27.818-17.994-45.185c-25.022-19.726-78.438-43.104-78.438-43.104l-31.161,11.095
					c0,0-32.59,49.75-49.287,59.748c-16.699,9.993-29.231,26.949-29.231,26.949l-32.894,74.504
					C765.44,196.873,849.724,186.109,898.943,192.558z"/>
				<g>
					<path fill="#6457A3" d="M904.438,155.61c3.563-0.218,6.682,2.649,6.913,6.443l-12.992,0.794
						C898.126,159.054,900.815,155.832,904.438,155.61z"/>
					<path fill="#6457A3" d="M841.532,159.227c3.562-0.218,6.705,3.052,6.965,7.306l-12.992,0.795
						C835.247,163.072,837.968,159.445,841.532,159.227z"/>
					<path fill="#6457A3" d="M880.089,137.712c3.563-0.221,6.785,4.373,7.148,10.294l-12.993,0.795
						C873.883,142.878,876.466,137.932,880.089,137.712z"/>
					<path fill="#6457A3" d="M810.006,144.263c3.563-0.217,6.784,4.375,7.147,10.297l-12.992,0.794
						C803.8,149.431,806.439,144.481,810.006,144.263z"/>
					<path fill="#6457A3" d="M1010.424,171.126c3.565,0.172,6.353,3.361,6.17,7.159l-13.002-0.629
						C1003.772,173.859,1006.8,170.952,1010.424,171.126z"/>
					<path fill="#6457A3" d="M947.498,167.863c3.566,0.172,6.336,3.766,6.129,8.021l-13.003-0.626
						C940.829,171.002,943.932,167.694,947.498,167.863z"/>
					<path fill="#6457A3" d="M982.096,127.566c3.566,0.174,6.335,3.764,6.13,8.022l-13.002-0.627
						C975.429,130.705,978.529,127.396,982.096,127.566z"/>
					<path fill="#6457A3" d="M866.947,106.112c3.563,0.172,6.333,3.762,6.129,8.021l-13.003-0.629
						C860.28,109.248,863.381,105.939,866.947,106.112z"/>
					<path fill="#6457A3" d="M918.209,108.858c3.565,0.17,6.333,3.764,6.129,8.021l-13.001-0.628
						C911.542,111.996,914.642,108.686,918.209,108.858z"/>
				</g>
				<path opacity="0.3" fill="#040000" d="M898.943,192.558c49.224,6.447,130.148,18.488,130.148,18.488s7.468-36.228-7.015-43.703
					c-50.223-25.922-82.258-0.908-109.646,2.304c-19.328,2.268-81.21,6.146-81.21,6.146l-65.781,21.081
					C765.44,196.873,849.724,186.109,898.943,192.558z"/>
			</g>
			<g>
				<path fill="#717070" d="M795.394,118.707c-6.972-1.729-14.024,2.518-15.755,9.487c-1.73,6.971,2.517,14.023,9.486,15.754
					c8.738,2.169,12.139,5.074,12.139,5.074l3.616-14.562l3.615-14.561C808.495,119.9,804.129,120.878,795.394,118.707z"/>
				<g>
					<g>
						<path fill="#27943A" d="M791.852,132.191l-6.918-1.717c-0.634-0.157-1.024-0.805-0.865-1.438l0,0
							c0.156-0.634,0.806-1.023,1.438-0.866l6.917,1.719c0.634,0.155,1.023,0.803,0.866,1.438l0,0
							C793.133,131.961,792.485,132.351,791.852,132.191z"/>
						<path fill="#27943A" d="M788.974,133.926c-0.157,0.634-0.806,1.024-1.439,0.867l0,0c-0.634-0.158-1.024-0.806-0.867-1.439
							l1.717-6.916c0.158-0.634,0.807-1.025,1.44-0.868l0,0c0.633,0.159,1.023,0.807,0.866,1.439"/>
					</g>
				</g>
			</g>
			<g>
				<path fill="#A2A3A2" d="M860.75,73.065c-1.647-6.989-8.648-11.321-15.639-9.676c-6.991,1.647-11.322,8.647-9.677,15.638
					c2.063,8.763,1.032,13.116,1.032,13.116l14.604-3.438l14.606-3.439C865.678,85.266,862.813,81.829,860.75,73.065z"/>
				<g>
					<g>
						<path fill="#27943A" d="M847.136,76.079l-1.633-6.937c-0.149-0.636,0.248-1.278,0.883-1.429l0,0
							c0.636-0.15,1.279,0.247,1.429,0.884l1.634,6.937c0.149,0.637-0.248,1.279-0.883,1.429l0,0
							C847.929,77.113,847.285,76.716,847.136,76.079z"/>
						<path fill="#27943A" d="M843.734,72l6.937-1.633c0.636-0.151,1.279,0.247,1.429,0.882l0,0
							c0.151,0.636-0.248,1.279-0.884,1.429l-6.936,1.636c-0.638,0.147-1.279-0.249-1.43-0.886l0,0
							C842.7,72.791,843.098,72.149,843.734,72z"/>
					</g>
				</g>
			</g>
			<g>
				<path fill="#A2A3A2" d="M894.713,73.289c-1.646-6.991-8.646-11.322-15.637-9.677c-6.991,1.647-11.323,8.646-9.678,15.639
					c2.064,8.762,0.576,11.168,0.576,11.168s10.193-0.346,15.063-1.491c4.866-1.146,14.604-3.44,14.604-3.44
					S896.777,82.052,894.713,73.289z"/>
				<g>
					<g>
						<path fill="#27943A" d="M881.101,76.302l-1.634-6.937c-0.149-0.637,0.248-1.279,0.884-1.429l0,0
							c0.636-0.15,1.278,0.247,1.429,0.884l1.633,6.937c0.149,0.638-0.249,1.278-0.883,1.429l0,0
							C881.894,77.336,881.25,76.938,881.101,76.302z"/>
						<path fill="#27943A" d="M877.699,72.223l6.936-1.634c0.637-0.149,1.279,0.247,1.43,0.883l0,0
							c0.15,0.636-0.248,1.279-0.884,1.429l-6.937,1.634c-0.636,0.149-1.278-0.248-1.43-0.884l0,0
							C876.666,73.015,877.063,72.371,877.699,72.223z"/>
					</g>
				</g>
			</g>
			<g>
				<path fill="#717070" d="M982.575,85.896c-1.05-7.105-7.658-12.014-14.764-10.967c-7.104,1.049-12.014,7.658-10.966,14.763
					c1.314,8.907-0.372,11.178-0.372,11.178s10.186,0.52,15.136-0.211c4.947-0.729,14.842-2.19,14.842-2.19
					S983.888,94.802,982.575,85.896z"/>
				<g>
					<g>
						<path fill="#27943A" d="M968.754,87.745l-1.04-7.05c-0.095-0.646,0.357-1.254,1.003-1.35l0,0
							c0.646-0.095,1.252,0.355,1.348,1.002l1.04,7.051c0.096,0.647-0.355,1.253-1.001,1.349l0,0
							C969.456,88.843,968.851,88.392,968.754,87.745z"/>
						<path fill="#27943A" d="M965.711,83.392l7.05-1.04c0.647-0.095,1.253,0.356,1.35,1.002l0,0
							c0.096,0.646-0.355,1.253-1.002,1.348l-7.05,1.04c-0.647,0.096-1.253-0.355-1.35-1.002l0,0
							C964.613,84.094,965.064,83.486,965.711,83.392z"/>
					</g>
				</g>
			</g>
			<g>
				<path fill="#A2A3A2" d="M810.575,98.233c-6.045-3.875-14.088-2.118-17.965,3.927c-3.876,6.046-2.12,14.09,3.926,17.965
					c7.579,4.86,9.867,8.704,9.867,8.704s5.317-7.478,8.1-12.63c2.781-5.151,4.611-14.831,4.611-14.831
					S818.153,103.094,810.575,98.233z"/>
				<g>
					<g>
						<path fill="#27943A" d="M802.107,110.488l-6-3.847c-0.55-0.354-0.711-1.092-0.357-1.642l0,0
							c0.352-0.55,1.09-0.711,1.641-0.357l5.999,3.847c0.549,0.353,0.711,1.091,0.359,1.641l0,0
							C803.395,110.68,802.657,110.843,802.107,110.488z"/>
						<path fill="#27943A" d="M796.826,109.924l3.846-6c0.353-0.549,1.091-0.711,1.643-0.357l0,0c0.551,0.352,0.71,1.09,0.357,1.641
							l-3.847,5.999c-0.352,0.551-1.091,0.711-1.642,0.358l0,0C796.635,111.212,796.473,110.473,796.826,109.924z"/>
					</g>
				</g>
			</g>
		</g>
		<polygon clip-path="url(#SVGID_4_)" fill="#7262A9" points="145.536,153.965 178.61,144.215 233.72,106.458 259.922,117.282 
			267.955,146.748 293.555,156.027 321.86,178.963 145.536,178.963 		"/>
		<polygon clip-path="url(#SVGID_4_)" fill="#7262A9" points="327.96,160.879 365.228,152.518 407.706,122.893 472.211,122.893 
			491.091,152.518 504.464,160.879 539.076,162.082 568.97,148.437 603.582,152.518 623.249,165.546 662.581,173.919 
			709.779,174.49 335.998,174.49 		"/>
		<g clip-path="url(#SVGID_4_)">
			<polygon fill="#B1A0CC" points="280.192,200.111 244.089,153.55 193.565,142.331 155.485,115.279 105.812,0 77.909,0 
				19.47,73.521 -7.679,141.627 -38.782,108.494 -51.226,145.253 -51.226,200.111 			"/>
			<g>
				<path fill="#9084BD" d="M161.33,130.976c4.996,0,9.05,3.112,9.05,6.881h-18.1C152.28,133.992,156.333,130.976,161.33,130.976z"
					/>
				<path fill="#7262A9" d="M167.552,164.533c5.845,0,10.649,4.994,10.649,11.215h-21.302
					C156.899,169.527,161.613,164.533,167.552,164.533z"/>
				<path fill="#7262A9" d="M64.432,164.156c5.843,0,10.651,5.654,10.651,12.63H53.78C53.78,169.811,58.589,164.156,64.432,164.156z
					"/>
				<path fill="#7262A9" d="M-25.587,188.191c4.055,0,7.354,4.148,7.354,9.332h-14.708
					C-32.941,192.435-29.64,188.191-25.587,188.191z"/>
				<path fill="#7262A9" d="M129.564,132.86c5.846,0,10.651,7.825,10.651,17.534h-21.303
					C118.913,140.686,123.628,132.86,129.564,132.86z"/>
				<path fill="#7262A9" d="M207.046,150.206c4.336,0,7.729,5.749,7.729,12.818h-15.551
					C199.315,155.955,202.804,150.206,207.046,150.206z"/>
				<path fill="#7262A9" d="M96.291,63.864c5.843,0,10.651,7.825,10.651,17.532H85.642C85.642,71.689,90.446,63.864,96.291,63.864z"
					/>
				<path fill="#7262A9" d="M44.45,114.67c5.843,0,10.648,7.822,10.648,17.532H33.796C33.796,122.492,38.604,114.67,44.45,114.67z"
					/>
			</g>
		</g>
		<polygon opacity="0.15" clip-path="url(#SVGID_4_)" fill="#231815" enable-background="new    " points="245.032,208.013 
			220.523,185.769 142.196,157.679 107.13,138.544 85.826,30.053 71.406,8.748 19.47,74.166 -7.679,141.627 -38.875,109.04 
			-51.226,145.803 -51.226,234.783 53.78,226.772 83.095,221.587 149.546,218.287 223.07,210.275 		"/>
		<g clip-path="url(#SVGID_4_)">
			<g>
				
					<rect x="678.925" y="41.118" transform="matrix(-0.0028 1 -1 -0.0028 732.7092 -644.4677)" fill="#3FB274" width="17.535" height="3.969"/>
				<polygon fill="#3FB274" points="701.193,87.708 701.577,68.085 673.665,68.004 673.282,87.629 				"/>
				<path fill="#3FB274" d="M671.188,59.489l32.916,0.095c4.699,0.014,8.497,3.834,8.483,8.532l-49.934-0.144
					C662.667,63.274,666.488,59.476,671.188,59.489z"/>
				<path fill="#09908F" d="M712.587,68.116c-0.014,4.7-3.834,8.497-8.531,8.483l-32.918-0.094
					c-4.699-0.014-8.498-3.833-8.484-8.533L712.587,68.116z"/>
				<path fill="#609BD4" d="M673.688,59.496c0.022-7.708,6.289-13.938,13.997-13.915l-0.04,13.955L673.688,59.496z"/>
				<path fill="#3764AF" d="M687.686,45.581c7.707,0.021,13.938,6.288,13.916,13.996l-13.956-0.041L687.686,45.581z"/>
				<circle fill="#3FB274" cx="687.729" cy="30.653" r="7.591"/>
				<circle fill="#FFFFFF" cx="685.75" cy="28.35" r="2.612"/>
			</g>
			<g>
				<path fill="#ABABAB" d="M729.589,164.55l36.52,0.105c0.126-43.682-35.184-79.194-78.864-79.319v0.006
					C710.756,85.409,729.711,120.871,729.589,164.55z"/>
				<path fill="#FFFFFF" d="M687.244,85.342v-0.006c-43.682-0.127-79.194,35.181-79.32,78.864l36.52,0.104
					C644.568,120.626,663.731,85.273,687.244,85.342z"/>
				<path fill="#C5C5C5" d="M729.589,164.55c0.122-43.679-18.833-79.141-42.345-79.208l-0.229,79.086L729.589,164.55z"/>
				<path fill="#E0E0E0" d="M687.244,85.342c-23.513-0.068-42.676,35.284-42.801,78.963l42.571,0.123L687.244,85.342z"/>
				<path fill="#006461" d="M774.175,164.679l-174.318-0.503c-5.61-0.016-10.175,4.521-10.191,10.131l194.643,0.562
					C784.323,169.256,779.786,164.695,774.175,164.679z"/>
				
					<rect x="652.485" y="151.106" transform="matrix(1 0.0029 -0.0029 1 0.4474 -1.894)" fill="#FFFFFF" width="12.906" height="7.12"/>
				
					<rect x="669.764" y="151.146" transform="matrix(1 0.0029 -0.0029 1 0.4475 -1.9341)" fill="#FFFFFF" width="6.454" height="7.121"/>
				<circle fill="#EDEB5A" cx="675.033" cy="139.816" r="5.226"/>
				<circle fill="#EDEB5A" cx="675.076" cy="124.847" r="5.226"/>
				<circle fill="#EDEB5A" cx="675.119" cy="109.877" r="5.226"/>
			</g>
			<path fill="#FFFFFF" d="M703.897,145.973c-0.007,2.47-2.016,4.467-4.486,4.46l0,0c-2.469-0.006-4.465-2.015-4.458-4.485
				l0.095-33.019c0.008-2.47,2.015-4.466,4.485-4.459l0,0c2.47,0.007,4.467,2.016,4.459,4.485L703.897,145.973z"/>
			<g>
				<path fill="#3FB274" d="M563.15,174.23l62.478,0.18c0.049-17.252-13.896-31.277-31.149-31.326
					C577.226,143.033,563.2,156.978,563.15,174.23z"/>
				<path fill="#09908F" d="M625.628,174.41c0.049-17.252-13.896-31.277-31.148-31.326l-0.09,31.237L625.628,174.41z"/>
				<circle fill="#FFFFFF" cx="586.473" cy="156.307" r="6.815"/>
			</g>
		</g>
		<g clip-path="url(#SVGID_4_)">
			<path fill="#A2A3A2" d="M226.032,184.135c0,0,54.417-22.093,54.593-73.254l0.006-1.599c0.021-5.74,4.688-10.376,10.429-10.356
				c5.739,0.02,10.375,4.688,10.356,10.428l-0.006,1.599c-0.177,51.162,57.73,64.701,57.73,64.701s-36.25,1.099-69.206,4.395
				C270.089,182.032,226.032,184.135,226.032,184.135z"/>
			<path fill="#869D8B" d="M271.071,180.839c0,0,74.778-22.811,75.021-93.114l0.008-2.197c0.026-7.887,6.441-14.259,14.329-14.231
				c7.887,0.026,14.259,6.442,14.23,14.329l-0.007,2.197c-0.241,70.304,74.377,93.63,74.377,93.63s-63.323-5.809-90.731-5.642
				C330.89,175.977,271.071,180.839,271.071,180.839z"/>
			<g>
				<g>
					<path fill="#27943A" d="M361.818,105.143v-7.826c0-0.718-0.587-1.305-1.304-1.305l0,0c-0.718,0-1.305,0.587-1.305,1.305v7.826
						c0,0.718,0.587,1.305,1.305,1.305l0,0C361.231,106.447,361.818,105.86,361.818,105.143z"/>
					<path fill="#27943A" d="M364.428,99.925h-7.827c-0.718,0-1.305,0.587-1.305,1.305l0,0c0,0.718,0.587,1.305,1.305,1.305h7.827
						c0.718,0,1.305-0.587,1.305-1.305l0,0C365.732,100.512,365.146,99.925,364.428,99.925z"/>
				</g>
				<g>
					<path fill="#27943A" d="M351.932,122.719v-7.826c0-0.718-0.586-1.305-1.304-1.305l0,0c-0.718,0-1.305,0.587-1.305,1.305v7.826
						c0,0.718,0.587,1.305,1.305,1.305l0,0C351.346,124.023,351.932,123.437,351.932,122.719z"/>
					<path fill="#27943A" d="M354.541,117.501h-7.827c-0.718,0-1.305,0.587-1.305,1.305l0,0c0,0.718,0.587,1.305,1.305,1.305h7.827
						c0.718,0,1.305-0.587,1.305-1.305l0,0C355.846,118.088,355.259,117.501,354.541,117.501z"/>
				</g>
				<g>
					<path fill="#27943A" d="M373.902,139.196v-7.826c0-0.718-0.587-1.305-1.305-1.305l0,0c-0.718,0-1.305,0.587-1.305,1.305v7.826
						c0,0.718,0.587,1.305,1.305,1.305l0,0C373.315,140.501,373.902,139.914,373.902,139.196z"/>
					<path fill="#27943A" d="M376.512,133.979h-7.827c-0.718,0-1.305,0.587-1.305,1.305l0,0c0,0.718,0.587,1.305,1.305,1.305h7.827
						c0.717,0,1.304-0.587,1.304-1.305l0,0C377.815,134.565,377.229,133.979,376.512,133.979z"/>
				</g>
				<g>
					<path fill="#27943A" d="M360.72,162.266v-7.827c0-0.718-0.586-1.305-1.304-1.305l0,0c-0.718,0-1.305,0.587-1.305,1.305v7.827
						c0,0.718,0.587,1.305,1.305,1.305l0,0C360.134,163.57,360.72,162.983,360.72,162.266z"/>
					<path fill="#27943A" d="M363.329,157.048h-7.827c-0.718,0-1.304,0.587-1.304,1.304l0,0c0,0.718,0.586,1.305,1.304,1.305h7.827
						c0.718,0,1.305-0.587,1.305-1.305l0,0C364.634,157.635,364.047,157.048,363.329,157.048z"/>
				</g>
				<g>
					<path fill="#27943A" d="M398.069,166.659v-7.826c0-0.718-0.587-1.305-1.305-1.305l0,0c-0.717,0-1.304,0.587-1.304,1.305v7.826
						c0,0.718,0.587,1.305,1.304,1.305l0,0C397.482,167.964,398.069,167.377,398.069,166.659z"/>
					<path fill="#27943A" d="M400.679,161.441h-7.827c-0.718,0-1.305,0.587-1.305,1.305l0,0c0,0.718,0.587,1.305,1.305,1.305h7.827
						c0.718,0,1.305-0.587,1.305-1.305l0,0C401.983,162.028,401.396,161.441,400.679,161.441z"/>
				</g>
				<g>
					<path fill="#27943A" d="M326.666,173.25v-7.826c0-0.718-0.587-1.305-1.304-1.305l0,0c-0.718,0-1.305,0.587-1.305,1.305v7.826
						c0,0.719,0.587,1.305,1.305,1.305l0,0C326.079,174.555,326.666,173.969,326.666,173.25z"/>
					<path fill="#27943A" d="M329.275,168.032h-7.827c-0.718,0-1.305,0.587-1.305,1.305l0,0c0,0.718,0.587,1.305,1.305,1.305h7.827
						c0.718,0,1.305-0.587,1.305-1.305l0,0C330.58,168.619,329.993,168.032,329.275,168.032z"/>
				</g>
			</g>
			<g>
				<g>
					<path fill="#27943A" d="M273.938,169.955v-7.827c0-0.718-0.587-1.305-1.304-1.305l0,0c-0.718,0-1.305,0.587-1.305,1.305v7.827
						c0,0.718,0.587,1.305,1.305,1.305l0,0C273.351,171.26,273.938,170.673,273.938,169.955z"/>
					<path fill="#27943A" d="M276.547,164.737h-7.827c-0.718,0-1.305,0.587-1.305,1.304l0,0c0,0.719,0.587,1.305,1.305,1.305h7.827
						c0.718,0,1.305-0.586,1.305-1.305l0,0C277.852,165.324,277.265,164.737,276.547,164.737z"/>
				</g>
				<g>
					<path fill="#27943A" d="M290.415,127.113v-7.827c0-0.718-0.586-1.305-1.304-1.305l0,0c-0.718,0-1.305,0.587-1.305,1.305v7.827
						c0,0.718,0.587,1.305,1.305,1.305l0,0C289.829,128.418,290.415,127.831,290.415,127.113z"/>
					<path fill="#27943A" d="M293.024,121.896h-7.827c-0.718,0-1.305,0.587-1.305,1.304l0,0c0,0.718,0.587,1.305,1.305,1.305h7.827
						c0.718,0,1.305-0.587,1.305-1.305l0,0C294.329,122.482,293.742,121.896,293.024,121.896z"/>
				</g>
				<g>
					<path fill="#27943A" d="M293.711,152.379v-7.827c0-0.718-0.587-1.305-1.305-1.305l0,0c-0.718,0-1.305,0.587-1.305,1.305v7.827
						c0,0.718,0.587,1.305,1.305,1.305l0,0C293.124,153.684,293.711,153.097,293.711,152.379z"/>
					<path fill="#27943A" d="M296.32,147.161h-7.827c-0.718,0-1.305,0.587-1.305,1.305l0,0c0,0.717,0.587,1.304,1.305,1.304h7.827
						c0.718,0,1.304-0.587,1.304-1.304l0,0C297.624,147.748,297.038,147.161,296.32,147.161z"/>
				</g>
			</g>
		</g>
	</g>
</g>
<g id="圖層_3" display="none">
	<rect x="1.468" y="151.36" display="inline" fill="#98C726" width="1024" height="24"/>
</g>
</svg>
