<svg xmlns="http://www.w3.org/2000/svg" xmlns:xlink="http://www.w3.org/1999/xlink" viewBox="0 0 1397.91 1685.14"><defs><style>.cls-1{fill:none;}.cls-2{clip-path:url(#clip-path);}.cls-3{fill:#15102b;}.cls-4{opacity:0.9;}.cls-5,.cls-6{fill:#fff;}.cls-6{opacity:0.6;}.cls-7{clip-path:url(#clip-path-2);}.cls-8{fill:#352964;}.cls-9{fill:#8977b5;}.cls-10{fill:#6457a3;}.cls-11{fill:#040000;opacity:0.3;}.cls-12{fill:#717070;}.cls-13{fill:#27943a;}.cls-14{fill:#a2a3a2;}.cls-15{fill:#7262a9;}.cls-16{fill:#b1a0cc;}.cls-17{fill:#9084bd;}.cls-18{fill:#231815;opacity:0.15;isolation:isolate;}.cls-19{fill:#3fb274;}.cls-20{fill:#09908f;}.cls-21{fill:#609bd4;}.cls-22{fill:#3764af;}.cls-23{fill:#ababab;}.cls-24{fill:#c5c5c5;}.cls-25{fill:#e0e0e0;}.cls-26{fill:#006461;}.cls-27{fill:#edeb5a;}.cls-28{fill:#869d8b;}</style><clipPath id="clip-path" transform="translate(123.65)"><rect class="cls-1" width="1024" height="1024"/></clipPath><clipPath id="clip-path-2" transform="translate(123.65)"><rect class="cls-1" y="850.18" width="1024" height="173.35"/></clipPath></defs><title>bg2</title><g id="圖層_1" data-name="圖層 1"><g class="cls-2"><rect class="cls-3" x="123.65" width="1025.51" height="1306.06"/><g class="cls-4"><path class="cls-5" d="M1260.09,317.87a6.22,6.22,0,1,0,6.22,6.22A6.21,6.21,0,0,0,1260.09,317.87Z" transform="translate(123.65)"/><path class="cls-5" d="M1260.71,99.79a3.11,3.11,0,1,0,3.11,3.11A3.1,3.1,0,0,0,1260.71,99.79Z" transform="translate(123.65)"/><path class="cls-5" d="M1090.46,35.16a3.11,3.11,0,1,0,3.11,3.1A3.1,3.1,0,0,0,1090.46,35.16Z" transform="translate(123.65)"/><path class="cls-5" d="M1200.44,68.71a3.11,3.11,0,1,0,3.11,3.11A3.1,3.1,0,0,0,1200.44,68.71Z" transform="translate(123.65)"/><path class="cls-6" d="M712.06,342.11a3.11,3.11,0,1,0,3.11,3.11A3.11,3.11,0,0,0,712.06,342.11Z" transform="translate(123.65)"/><path class="cls-6" d="M627.56,227.16a3.11,3.11,0,1,0,3.1,3.1A3.1,3.1,0,0,0,627.56,227.16Z" transform="translate(123.65)"/><path class="cls-5" d="M1137.06,270.65a3.11,3.11,0,1,0,3.11,3.11A3.1,3.1,0,0,0,1137.06,270.65Z" transform="translate(123.65)"/><path class="cls-5" d="M798.43,84.25a3.11,3.11,0,1,0,3.11,3.1A3.1,3.1,0,0,0,798.43,84.25Z" transform="translate(123.65)"/><path class="cls-5" d="M1263.82,515.46a3.11,3.11,0,1,0,3.11,3.11A3.1,3.1,0,0,0,1263.82,515.46Z" transform="translate(123.65)"/><path class="cls-5" d="M1168.75,396.79a1.86,1.86,0,1,0,1.87,1.86A1.86,1.86,0,0,0,1168.75,396.79Z" transform="translate(123.65)"/><path class="cls-5" d="M1087.36,172.48a3.11,3.11,0,1,0,3.1,3.11A3.11,3.11,0,0,0,1087.36,172.48Z" transform="translate(123.65)"/><path class="cls-5" d="M1012.18,56.91a3.11,3.11,0,1,0,3.1,3.1A3.1,3.1,0,0,0,1012.18,56.91Z" transform="translate(123.65)"/><path class="cls-5" d="M935.13,370.07a3.11,3.11,0,1,0,3.1,3.1A3.1,3.1,0,0,0,935.13,370.07Z" transform="translate(123.65)"/><path class="cls-5" d="M841.92,433.44a1.87,1.87,0,1,0,1.87,1.87A1.87,1.87,0,0,0,841.92,433.44Z" transform="translate(123.65)"/><path class="cls-5" d="M705.85,88a1.87,1.87,0,1,0,1.86,1.87A1.87,1.87,0,0,0,705.85,88Z" transform="translate(123.65)"/><path class="cls-5" d="M1189.26,472a1.87,1.87,0,1,0,1.86,1.86A1.86,1.86,0,0,0,1189.26,472Z" transform="translate(123.65)"/><path class="cls-6" d="M75.8,401.14a5,5,0,1,0,5,5A5,5,0,0,0,75.8,401.14Z" transform="translate(123.65)"/><path class="cls-6" d="M78.28,210.38a2.49,2.49,0,1,0,2.49,2.49A2.48,2.48,0,0,0,78.28,210.38Z" transform="translate(123.65)"/><path class="cls-6" d="M245.42,301.72a2.49,2.49,0,1,0,2.49,2.48A2.49,2.49,0,0,0,245.42,301.72Z" transform="translate(123.65)"/><path class="cls-6" d="M26.71,347.7a2.49,2.49,0,1,0,2.49,2.49A2.48,2.48,0,0,0,26.71,347.7Z" transform="translate(123.65)"/><path class="cls-6" d="M385.23,95.43a2.49,2.49,0,1,0,2.48,2.49A2.48,2.48,0,0,0,385.23,95.43Z" transform="translate(123.65)"/><path class="cls-6" d="M572.88,158.19a2.49,2.49,0,1,0,2.49,2.48A2.48,2.48,0,0,0,572.88,158.19Z" transform="translate(123.65)"/><path class="cls-6" d="M541.19,362a2.49,2.49,0,1,0,2.48,2.48A2.48,2.48,0,0,0,541.19,362Z" transform="translate(123.65)"/><path class="cls-6" d="M156,274.38a2.49,2.49,0,1,0,2.48,2.48A2.48,2.48,0,0,0,156,274.38Z" transform="translate(123.65)"/><path class="cls-5" d="M895.36,285.56a2.49,2.49,0,1,0,2.49,2.49A2.49,2.49,0,0,0,895.36,285.56Z" transform="translate(123.65)"/><path class="cls-6" d="M29.82,240.2a1.87,1.87,0,1,0,1.86,1.87A1.87,1.87,0,0,0,29.82,240.2Z" transform="translate(123.65)"/><path class="cls-6" d="M321.23,173.1a2.49,2.49,0,1,0,2.49,2.49A2.48,2.48,0,0,0,321.23,173.1Z" transform="translate(123.65)"/><path class="cls-6" d="M416.3,183.66a2.49,2.49,0,1,0,2.48,2.49A2.48,2.48,0,0,0,416.3,183.66Z" transform="translate(123.65)"/><path class="cls-6" d="M247.91,186.15a1.87,1.87,0,1,0,1.87,1.86A1.86,1.86,0,0,0,247.91,186.15Z" transform="translate(123.65)"/><path class="cls-6" d="M507,146.38a2.49,2.49,0,1,0,2.48,2.48A2.48,2.48,0,0,0,507,146.38Z" transform="translate(123.65)"/><path class="cls-6" d="M359.76,430.34a2.49,2.49,0,1,0,2.48,2.48A2.48,2.48,0,0,0,359.76,430.34Z" transform="translate(123.65)"/><path class="cls-5" d="M953.15,173.72a1.87,1.87,0,1,0,1.86,1.87A1.87,1.87,0,0,0,953.15,173.72Z" transform="translate(123.65)"/></g><g class="cls-4"><path class="cls-5" d="M1267.42,771.3a6.21,6.21,0,1,0,6.21,6.21A6.2,6.2,0,0,0,1267.42,771.3Z" transform="translate(123.65)"/><path class="cls-5" d="M1268,553.22a3.11,3.11,0,1,0,3.11,3.1A3.09,3.09,0,0,0,1268,553.22Z" transform="translate(123.65)"/><path class="cls-5" d="M1097.79,488.58a3.11,3.11,0,1,0,3.11,3.11A3.11,3.11,0,0,0,1097.79,488.58Z" transform="translate(123.65)"/><path class="cls-5" d="M1207.77,522.13a3.11,3.11,0,1,0,3.1,3.11A3.11,3.11,0,0,0,1207.77,522.13Z" transform="translate(123.65)"/><path class="cls-6" d="M719.39,795.53a3.11,3.11,0,1,0,3.11,3.11A3.11,3.11,0,0,0,719.39,795.53Z" transform="translate(123.65)"/><path class="cls-6" d="M634.88,680.58a3.11,3.11,0,1,0,3.11,3.1A3.11,3.11,0,0,0,634.88,680.58Z" transform="translate(123.65)"/><path class="cls-5" d="M1144.39,724.07a3.11,3.11,0,1,0,3.11,3.11A3.1,3.1,0,0,0,1144.39,724.07Z" transform="translate(123.65)"/><path class="cls-5" d="M805.75,537.67a3.11,3.11,0,1,0,3.11,3.1A3.1,3.1,0,0,0,805.75,537.67Z" transform="translate(123.65)"/><path class="cls-5" d="M1271.15,968.89a3.11,3.11,0,1,0,3.1,3.1A3.1,3.1,0,0,0,1271.15,968.89Z" transform="translate(123.65)"/><path class="cls-5" d="M1176.08,850.21a1.86,1.86,0,1,0,1.86,1.86A1.86,1.86,0,0,0,1176.08,850.21Z" transform="translate(123.65)"/><path class="cls-5" d="M1094.68,625.9a3.11,3.11,0,1,0,3.11,3.11A3.1,3.1,0,0,0,1094.68,625.9Z" transform="translate(123.65)"/><path class="cls-5" d="M1019.5,510.33a3.11,3.11,0,1,0,3.11,3.1A3.1,3.1,0,0,0,1019.5,510.33Z" transform="translate(123.65)"/><path class="cls-5" d="M942.45,823.49a3.11,3.11,0,1,0,3.11,3.11A3.1,3.1,0,0,0,942.45,823.49Z" transform="translate(123.65)"/><path class="cls-5" d="M849.25,886.86a1.87,1.87,0,1,0,1.86,1.87A1.87,1.87,0,0,0,849.25,886.86Z" transform="translate(123.65)"/><path class="cls-5" d="M713.17,541.39a1.87,1.87,0,1,0,1.87,1.87A1.87,1.87,0,0,0,713.17,541.39Z" transform="translate(123.65)"/><path class="cls-5" d="M1196.58,925.39a1.87,1.87,0,1,0,1.87,1.86A1.86,1.86,0,0,0,1196.58,925.39Z" transform="translate(123.65)"/><path class="cls-6" d="M83.12,854.56a5,5,0,1,0,5,5A5,5,0,0,0,83.12,854.56Z" transform="translate(123.65)"/><path class="cls-6" d="M85.61,663.8a2.49,2.49,0,1,0,2.48,2.49A2.48,2.48,0,0,0,85.61,663.8Z" transform="translate(123.65)"/><path class="cls-6" d="M252.75,755.14a2.49,2.49,0,1,0,2.49,2.48A2.48,2.48,0,0,0,252.75,755.14Z" transform="translate(123.65)"/><path class="cls-6" d="M34,801.12a2.49,2.49,0,1,0,2.48,2.49A2.49,2.49,0,0,0,34,801.12Z" transform="translate(123.65)"/><path class="cls-6" d="M392.55,548.85a2.49,2.49,0,1,0,2.49,2.49A2.48,2.48,0,0,0,392.55,548.85Z" transform="translate(123.65)"/><path class="cls-6" d="M548.52,815.41A2.49,2.49,0,1,0,551,817.9,2.49,2.49,0,0,0,548.52,815.41Z" transform="translate(123.65)"/><path class="cls-6" d="M163.28,727.8a2.49,2.49,0,1,0,2.48,2.49A2.48,2.48,0,0,0,163.28,727.8Z" transform="translate(123.65)"/><path class="cls-5" d="M902.68,739a2.49,2.49,0,1,0,2.49,2.49A2.48,2.48,0,0,0,902.68,739Z" transform="translate(123.65)"/><path class="cls-6" d="M65.1,561.9a2.49,2.49,0,1,0,2.49,2.49A2.49,2.49,0,0,0,65.1,561.9Z" transform="translate(123.65)"/><path class="cls-6" d="M37.14,693.63A1.86,1.86,0,1,0,39,695.49,1.86,1.86,0,0,0,37.14,693.63Z" transform="translate(123.65)"/><path class="cls-6" d="M255.24,639.57a1.87,1.87,0,1,0,1.86,1.86A1.86,1.86,0,0,0,255.24,639.57Z" transform="translate(123.65)"/><path class="cls-6" d="M367.08,883.76a2.49,2.49,0,1,0,2.49,2.49A2.49,2.49,0,0,0,367.08,883.76Z" transform="translate(123.65)"/><path class="cls-5" d="M960.47,627.14a1.87,1.87,0,1,0,1.86,1.87A1.87,1.87,0,0,0,960.47,627.14Z" transform="translate(123.65)"/><path class="cls-6" d="M175.08,545.12A1.87,1.87,0,1,0,177,547,1.87,1.87,0,0,0,175.08,545.12Z" transform="translate(123.65)"/></g><g class="cls-4"><path class="cls-5" d="M1252.77,1133.15a6.22,6.22,0,1,0,6.21,6.22A6.21,6.21,0,0,0,1252.77,1133.15Z" transform="translate(123.65)"/><path class="cls-5" d="M1253.39,915.07a3.11,3.11,0,1,0,3.11,3.11A3.1,3.1,0,0,0,1253.39,915.07Z" transform="translate(123.65)"/><path class="cls-5" d="M1083.14,850.44a3.11,3.11,0,1,0,3.11,3.1A3.1,3.1,0,0,0,1083.14,850.44Z" transform="translate(123.65)"/><path class="cls-5" d="M1193.12,884a3.11,3.11,0,1,0,3.1,3.11A3.11,3.11,0,0,0,1193.12,884Z" transform="translate(123.65)"/><path class="cls-6" d="M704.74,1157.39a3.11,3.11,0,1,0,3.11,3.11A3.11,3.11,0,0,0,704.74,1157.39Z" transform="translate(123.65)"/><path class="cls-6" d="M620.23,1042.44a3.11,3.11,0,1,0,3.11,3.1A3.11,3.11,0,0,0,620.23,1042.44Z" transform="translate(123.65)"/><path class="cls-5" d="M1129.74,1085.93a3.11,3.11,0,1,0,3.11,3.11A3.11,3.11,0,0,0,1129.74,1085.93Z" transform="translate(123.65)"/><path class="cls-5" d="M791.1,899.53a3.11,3.11,0,1,0,3.11,3.1A3.1,3.1,0,0,0,791.1,899.53Z" transform="translate(123.65)"/><path class="cls-5" d="M1256.5,1330.74a3.11,3.11,0,1,0,3.1,3.11A3.11,3.11,0,0,0,1256.5,1330.74Z" transform="translate(123.65)"/><path class="cls-5" d="M1161.43,1212.07a1.86,1.86,0,1,0,1.86,1.86A1.85,1.85,0,0,0,1161.43,1212.07Z" transform="translate(123.65)"/><path class="cls-5" d="M1080,987.76a3.11,3.11,0,1,0,3.11,3.1A3.1,3.1,0,0,0,1080,987.76Z" transform="translate(123.65)"/><path class="cls-5" d="M1004.85,872.19a3.11,3.11,0,1,0,3.11,3.1A3.1,3.1,0,0,0,1004.85,872.19Z" transform="translate(123.65)"/><path class="cls-5" d="M927.8,1185.35a3.11,3.11,0,1,0,3.11,3.1A3.1,3.1,0,0,0,927.8,1185.35Z" transform="translate(123.65)"/><path class="cls-5" d="M834.6,1248.72a1.87,1.87,0,1,0,1.86,1.87A1.87,1.87,0,0,0,834.6,1248.72Z" transform="translate(123.65)"/><path class="cls-5" d="M698.52,903.25a1.87,1.87,0,1,0,1.87,1.87A1.87,1.87,0,0,0,698.52,903.25Z" transform="translate(123.65)"/><path class="cls-5" d="M1181.93,1287.25a1.87,1.87,0,1,0,1.87,1.86A1.86,1.86,0,0,0,1181.93,1287.25Z" transform="translate(123.65)"/><path class="cls-6" d="M68.47,1216.42a5,5,0,1,0,5,5A5,5,0,0,0,68.47,1216.42Z" transform="translate(123.65)"/><path class="cls-6" d="M71,1025.66a2.49,2.49,0,1,0,2.48,2.49A2.48,2.48,0,0,0,71,1025.66Z" transform="translate(123.65)"/><path class="cls-6" d="M238.1,1117a2.49,2.49,0,1,0,2.49,2.48A2.48,2.48,0,0,0,238.1,1117Z" transform="translate(123.65)"/><path class="cls-6" d="M19.39,1163a2.49,2.49,0,1,0,2.48,2.48A2.49,2.49,0,0,0,19.39,1163Z" transform="translate(123.65)"/><path class="cls-6" d="M377.9,910.71a2.49,2.49,0,1,0,2.49,2.49A2.48,2.48,0,0,0,377.9,910.71Z" transform="translate(123.65)"/><path class="cls-6" d="M565.55,973.46A2.49,2.49,0,1,0,568,976,2.49,2.49,0,0,0,565.55,973.46Z" transform="translate(123.65)"/><path class="cls-6" d="M533.87,1177.27a2.49,2.49,0,1,0,2.48,2.48A2.48,2.48,0,0,0,533.87,1177.27Z" transform="translate(123.65)"/><path class="cls-6" d="M148.63,1089.66a2.49,2.49,0,1,0,2.48,2.48A2.48,2.48,0,0,0,148.63,1089.66Z" transform="translate(123.65)"/><path class="cls-5" d="M888,1100.84a2.49,2.49,0,1,0,2.49,2.49A2.48,2.48,0,0,0,888,1100.84Z" transform="translate(123.65)"/><path class="cls-6" d="M50.45,923.76a2.49,2.49,0,1,0,2.49,2.48A2.49,2.49,0,0,0,50.45,923.76Z" transform="translate(123.65)"/><path class="cls-6" d="M22.49,1055.48a1.87,1.87,0,1,0,1.87,1.87A1.87,1.87,0,0,0,22.49,1055.48Z" transform="translate(123.65)"/><path class="cls-6" d="M313.91,988.38a2.49,2.49,0,1,0,2.48,2.48A2.49,2.49,0,0,0,313.91,988.38Z" transform="translate(123.65)"/><path class="cls-6" d="M409,998.94a2.49,2.49,0,1,0,2.49,2.48A2.48,2.48,0,0,0,409,998.94Z" transform="translate(123.65)"/><path class="cls-6" d="M240.59,1001.42a1.87,1.87,0,1,0,1.86,1.87A1.87,1.87,0,0,0,240.59,1001.42Z" transform="translate(123.65)"/><path class="cls-6" d="M499.69,961.66a2.49,2.49,0,1,0,2.48,2.48A2.48,2.48,0,0,0,499.69,961.66Z" transform="translate(123.65)"/><path class="cls-6" d="M352.43,1245.62a2.49,2.49,0,1,0,2.49,2.48A2.49,2.49,0,0,0,352.43,1245.62Z" transform="translate(123.65)"/><path class="cls-5" d="M945.82,989a1.87,1.87,0,1,0,1.86,1.86A1.86,1.86,0,0,0,945.82,989Z" transform="translate(123.65)"/><path class="cls-6" d="M160.43,907a1.87,1.87,0,1,0,1.87,1.86A1.86,1.86,0,0,0,160.43,907Z" transform="translate(123.65)"/></g></g></g><g id="圖層_2" data-name="圖層 2"><g class="cls-7"><path class="cls-8" d="M680.7,961.89a358.32,358.32,0,0,1,197.53,59c15.81,10.4,16.77,35.58,30.72,48.27,12.83,11.68,34,13.6,45,27,8.91,10.83,22,19.3,29.66,31.13,12.59,19.56,18.68,31,27.34,52.87,2.79,7.06,3.65,39.73,6,47,7.32,22.65,18.83,30.25,21.54,54.62a364.4,364.4,0,0,1,2.21,40.13,359.41,359.41,0,0,1-20.44,119.88q-5.18,14.63-11.54,28.66c-6.21,13.69-19,27-26.77,39.71-8.21,13.37-11.55,26.07-21.38,38.2-6.74,8.32-22.18,16.12-29.62,23.8-16.87,17.41-27.13,33.33-47.2,47.06-19,13-41.4,20.72-62.8,29.94-17.45,7.51-33.54,17.22-52.28,21.93-14.25,3.57-27.86,1.25-42.72,3.07-14.51,1.78-38,11-53,11-11,0-16.28-9-27-10-29.3-2.63-65.15-16.77-92-26-25.9-8.9-37.16-15.74-60-30-25.42-15.86-38.35-30.49-59-52-7.82-8.14-35-38.15-42-47-38.79-48.81-44.79-62.36-54-127-.47-3.26-13.63-46.72-14-50-1.56-13.6,10.23-36.61,10.23-50.62,0-126.46,49.15-196.16,147.77-260.38,7.4-4.82,16.57-21.53,24.34-25.81a357.85,357.85,0,0,1,62.6-27.06c11.87-3.84,26.68,3.47,39.06.87C633,975.09,655.18,961.89,680.7,961.89Z" transform="translate(123.65)"/><path class="cls-8" d="M232.24,934.69a358.32,358.32,0,0,1,197.53,59c15.82,10.4,16.77,35.57,30.72,48.27,12.83,11.68,34,13.59,45,27,8.91,10.82,22,19.3,29.66,31.13,12.59,19.56,18.68,31,27.34,52.87,2.79,7.06,3.65,39.73,6,47,7.32,22.65,18.83,30.25,21.54,54.62a364.26,364.26,0,0,1,2.21,40.13,359.66,359.66,0,0,1-20.44,119.88q-5.17,14.63-11.54,28.66c-6.21,13.68-19,27-26.77,39.71-8.21,13.36-11.55,26.07-21.38,38.2-6.74,8.32-22.18,16.12-29.62,23.8-16.87,17.41-27.13,33.33-47.2,47.06-19,13-41.4,20.72-62.8,29.94-17.45,7.51-33.54,17.22-52.28,21.92-14.25,3.58-27.86,1.26-42.72,3.08-14.51,1.78-38,11-53,11-11,0-16.28-9-27-10-29.3-2.63-65.15-16.78-92-26-25.9-8.9-37.15-15.74-60-30-25.42-15.86-38.35-30.49-59-52-7.82-8.14-35-38.15-42-47-38.79-48.81-44.79-62.36-54-127-.47-3.26-13.63-46.72-14-50-1.56-13.6,10.23-36.61,10.23-50.63,0-126.45,49.15-196.16,147.77-260.37,7.4-4.82,16.57-21.53,24.34-25.81a357.85,357.85,0,0,1,62.6-27.06c11.87-3.84,26.68,3.47,39.06.87C184.5,947.89,206.72,934.69,232.24,934.69Z" transform="translate(123.65)"/><path class="cls-9" d="M898.94,1041.74c49.23,6.45,130.15,18.49,130.15,18.49s10.72-64.07,3.78-78.82-28.42-19.36-28.42-19.36,4-27.82-18-45.18c-25-19.73-78.44-43.11-78.44-43.11l-31.16,11.1s-32.59,49.75-49.28,59.74-29.24,26.95-29.24,26.95l-32.89,74.51S849.72,1035.29,898.94,1041.74Z" transform="translate(123.65)"/><path class="cls-10" d="M904.44,1004.79a6.7,6.7,0,0,1,6.91,6.45l-13,.79A6.67,6.67,0,0,1,904.44,1004.79Z" transform="translate(123.65)"/><path class="cls-10" d="M841.53,1008.41c3.56-.22,6.71,3.05,7,7.31l-13,.79C835.25,1012.26,838,1008.63,841.53,1008.41Z" transform="translate(123.65)"/><path class="cls-10" d="M880.09,986.9c3.56-.23,6.78,4.37,7.15,10.29l-13,.79C873.88,992.06,876.47,987.12,880.09,986.9Z" transform="translate(123.65)"/><path class="cls-10" d="M810,993.45c3.56-.22,6.78,4.37,7.14,10.29l-13,.8C803.8,998.61,806.44,993.67,810,993.45Z" transform="translate(123.65)"/><path class="cls-10" d="M1010.42,1020.31a6.68,6.68,0,0,1,6.17,7.16l-13-.63A6.65,6.65,0,0,1,1010.42,1020.31Z" transform="translate(123.65)"/><path class="cls-10" d="M947.5,1017.05c3.56.17,6.33,3.76,6.13,8l-13-.63C940.83,1020.19,943.93,1016.88,947.5,1017.05Z" transform="translate(123.65)"/><path class="cls-10" d="M982.1,976.75c3.56.17,6.33,3.76,6.13,8l-13-.62C975.43,979.89,978.53,976.58,982.1,976.75Z" transform="translate(123.65)"/><path class="cls-10" d="M867,955.3c3.56.17,6.33,3.76,6.13,8l-13-.63C860.28,958.43,863.38,955.12,867,955.3Z" transform="translate(123.65)"/><path class="cls-10" d="M918.21,958c3.56.17,6.33,3.77,6.13,8l-13-.62C911.54,961.18,914.64,957.87,918.21,958Z" transform="translate(123.65)"/><path class="cls-11" d="M898.94,1041.74c49.23,6.45,130.15,18.49,130.15,18.49s7.47-36.23-7-43.7c-50.23-25.93-82.26-.91-109.65,2.3-19.33,2.27-81.21,6.15-81.21,6.15l-65.78,21.08S849.72,1035.29,898.94,1041.74Z" transform="translate(123.65)"/><path class="cls-12" d="M795.39,967.89a13,13,0,0,0-6.27,25.24c8.74,2.17,12.14,5.08,12.14,5.08l3.62-14.57,3.62-14.56S804.13,970.06,795.39,967.89Z" transform="translate(123.65)"/><path class="cls-13" d="M791.85,981.38l-6.92-1.72a1.19,1.19,0,0,1-.86-1.44h0a1.2,1.2,0,0,1,1.44-.87l6.91,1.72a1.19,1.19,0,0,1,.87,1.44h0A1.2,1.2,0,0,1,791.85,981.38Z" transform="translate(123.65)"/><path class="cls-13" d="M789,983.11a1.2,1.2,0,0,1-1.44.87h0a1.19,1.19,0,0,1-.86-1.44l1.71-6.92a1.21,1.21,0,0,1,1.44-.87h0a1.19,1.19,0,0,1,.87,1.44" transform="translate(123.65)"/><path class="cls-14" d="M860.75,922.25a13,13,0,0,0-25.32,6c2.07,8.76,1,13.12,1,13.12l14.6-3.44,14.61-3.44S862.81,931,860.75,922.25Z" transform="translate(123.65)"/><path class="cls-13" d="M847.14,925.26l-1.64-6.93a1.19,1.19,0,0,1,.89-1.43h0a1.17,1.17,0,0,1,1.42.88l1.64,6.94a1.2,1.2,0,0,1-.88,1.43h0A1.19,1.19,0,0,1,847.14,925.26Z" transform="translate(123.65)"/><path class="cls-13" d="M843.73,921.18l6.94-1.63a1.19,1.19,0,0,1,1.43.88h0a1.19,1.19,0,0,1-.88,1.43l-6.94,1.64a1.2,1.2,0,0,1-1.43-.89h0A1.19,1.19,0,0,1,843.73,921.18Z" transform="translate(123.65)"/><path class="cls-14" d="M894.71,922.47a13,13,0,0,0-25.31,6c2.06,8.77.57,11.17.57,11.17s10.2-.34,15.07-1.49l14.6-3.44S896.78,931.24,894.71,922.47Z" transform="translate(123.65)"/><path class="cls-13" d="M881.1,925.49l-1.63-6.94a1.19,1.19,0,0,1,.88-1.43h0a1.19,1.19,0,0,1,1.43.88l1.63,6.94a1.19,1.19,0,0,1-.88,1.43h0A1.19,1.19,0,0,1,881.1,925.49Z" transform="translate(123.65)"/><path class="cls-13" d="M877.7,921.41l6.93-1.64a1.19,1.19,0,0,1,1.43.89h0a1.18,1.18,0,0,1-.88,1.42l-6.94,1.64a1.2,1.2,0,0,1-1.43-.89h0A1.19,1.19,0,0,1,877.7,921.41Z" transform="translate(123.65)"/><path class="cls-12" d="M982.58,935.08a13,13,0,1,0-25.73,3.8c1.31,8.9-.38,11.17-.38,11.17s10.19.52,15.14-.21l14.84-2.19S983.89,944,982.58,935.08Z" transform="translate(123.65)"/><path class="cls-13" d="M968.75,936.93l-1-7a1.2,1.2,0,0,1,1-1.35h0a1.18,1.18,0,0,1,1.34,1l1,7.05a1.19,1.19,0,0,1-1,1.35h0A1.19,1.19,0,0,1,968.75,936.93Z" transform="translate(123.65)"/><path class="cls-13" d="M965.71,932.58l7-1a1.19,1.19,0,0,1,1.35,1h0a1.18,1.18,0,0,1-1,1.34l-7.05,1a1.19,1.19,0,0,1-1.35-1h0A1.18,1.18,0,0,1,965.71,932.58Z" transform="translate(123.65)"/><path class="cls-14" d="M810.58,947.42a13,13,0,1,0-14,21.89c7.58,4.86,9.86,8.7,9.86,8.7s5.32-7.47,8.1-12.63,4.61-14.83,4.61-14.83S818.15,952.28,810.58,947.42Z" transform="translate(123.65)"/><path class="cls-13" d="M802.11,959.67l-6-3.84a1.21,1.21,0,0,1-.36-1.65h0a1.18,1.18,0,0,1,1.64-.35l6,3.84a1.19,1.19,0,0,1,.36,1.64h0A1.19,1.19,0,0,1,802.11,959.67Z" transform="translate(123.65)"/><path class="cls-13" d="M796.83,959.11l3.84-6a1.19,1.19,0,0,1,1.64-.36h0a1.18,1.18,0,0,1,.36,1.64l-3.84,6a1.21,1.21,0,0,1-1.65.36h0A1.18,1.18,0,0,1,796.83,959.11Z" transform="translate(123.65)"/><polygon class="cls-15" points="269.19 1003.15 302.26 993.4 357.37 955.64 383.58 966.47 391.61 995.93 417.21 1005.21 445.51 1028.15 269.19 1028.15 269.19 1003.15"/><polygon class="cls-15" points="451.62 1010.06 488.88 1001.7 531.36 972.08 595.87 972.08 614.75 1001.7 628.12 1010.06 662.73 1011.27 692.62 997.62 727.24 1001.7 746.9 1014.73 786.24 1023.1 833.43 1023.67 459.65 1023.67 451.62 1010.06"/><polygon class="cls-16" points="403.85 1049.3 367.74 1002.73 317.22 991.51 279.14 964.46 229.47 849.18 201.56 849.18 143.12 922.71 115.98 990.81 84.87 957.68 72.43 994.44 72.43 1049.3 403.85 1049.3"/><path class="cls-17" d="M161.33,980.16c5,0,9,3.11,9,6.88h-18.1C152.28,983.18,156.33,980.16,161.33,980.16Z" transform="translate(123.65)"/><path class="cls-15" d="M167.55,1013.72a10.94,10.94,0,0,1,10.65,11.21H156.9C156.9,1018.71,161.61,1013.72,167.55,1013.72Z" transform="translate(123.65)"/><path class="cls-15" d="M64.43,1013.34c5.84,0,10.65,5.65,10.65,12.63H53.78C53.78,1019,58.59,1013.34,64.43,1013.34Z" transform="translate(123.65)"/><path class="cls-15" d="M-25.59,1037.38c4.06,0,7.36,4.14,7.36,9.33H-32.94C-32.94,1041.62-29.64,1037.38-25.59,1037.38Z" transform="translate(123.65)"/><path class="cls-15" d="M129.56,982c5.85,0,10.66,7.83,10.66,17.54H118.91C118.91,989.87,123.63,982,129.56,982Z" transform="translate(123.65)"/><path class="cls-15" d="M207.05,999.39c4.33,0,7.72,5.75,7.72,12.82H199.22C199.32,1005.14,202.8,999.39,207.05,999.39Z" transform="translate(123.65)"/><path class="cls-15" d="M96.29,913.05c5.84,0,10.65,7.82,10.65,17.53H85.64C85.64,920.87,90.45,913.05,96.29,913.05Z" transform="translate(123.65)"/><path class="cls-15" d="M44.45,963.85c5.84,0,10.65,7.83,10.65,17.54H33.8C33.8,971.68,38.6,963.85,44.45,963.85Z" transform="translate(123.65)"/><polygon class="cls-18" points="368.69 1057.2 344.18 1034.95 265.85 1006.86 230.78 987.73 209.48 879.24 195.06 857.93 143.12 923.35 115.98 990.81 84.78 958.22 72.43 994.99 72.43 1083.97 177.44 1075.96 206.75 1070.77 273.2 1067.47 346.73 1059.46 368.69 1057.2"/><rect class="cls-19" x="678.92" y="890.3" width="17.53" height="3.97" transform="matrix(0, -1, 1, 0, -82.85, 1577.49)"/><polygon class="cls-19" points="824.85 936.89 825.23 917.27 797.32 917.19 796.94 936.81 824.85 936.89"/><path class="cls-19" d="M671.19,908.67l32.91.1a8.51,8.51,0,0,1,8.49,8.53l-49.94-.14A8.52,8.52,0,0,1,671.19,908.67Z" transform="translate(123.65)"/><path class="cls-20" d="M712.59,917.3a8.51,8.51,0,0,1-8.53,8.48l-32.92-.09a8.51,8.51,0,0,1-8.49-8.53Z" transform="translate(123.65)"/><path class="cls-21" d="M673.69,908.68a14,14,0,0,1,14-13.92l0,14Z" transform="translate(123.65)"/><path class="cls-22" d="M687.69,894.76a14,14,0,0,1,13.91,14l-14,0Z" transform="translate(123.65)"/><path class="cls-19" d="M687.71,887.43a7.59,7.59,0,1,0-7.57-7.62A7.59,7.59,0,0,0,687.71,887.43Z" transform="translate(123.65)"/><path class="cls-5" d="M685.74,880.15a2.62,2.62,0,1,0-2.6-2.62A2.62,2.62,0,0,0,685.74,880.15Z" transform="translate(123.65)"/><path class="cls-23" d="M729.59,1013.73l36.52.11a79.1,79.1,0,0,0-78.87-79.32h0C710.76,934.59,729.71,970.05,729.59,1013.73Z" transform="translate(123.65)"/><path class="cls-5" d="M687.24,934.53h0a79.09,79.09,0,0,0-79.32,78.86l36.52.11C644.57,969.81,663.73,934.46,687.24,934.53Z" transform="translate(123.65)"/><path class="cls-24" d="M729.59,1013.73c.12-43.68-18.83-79.14-42.35-79.2l-.23,79.08Z" transform="translate(123.65)"/><path class="cls-25" d="M687.24,934.53c-23.51-.07-42.67,35.28-42.8,79l42.57.12Z" transform="translate(123.65)"/><path class="cls-26" d="M774.17,1013.86l-174.31-.5a10.16,10.16,0,0,0-10.19,10.13l194.64.56A10.17,10.17,0,0,0,774.17,1013.86Z" transform="translate(123.65)"/><rect class="cls-5" x="655.38" y="997.4" width="7.12" height="12.91" transform="matrix(0, -1, 1, 0, -223.15, 1659.9)"/><rect class="cls-5" x="669.43" y="1000.66" width="7.12" height="6.45" transform="translate(-209.18 1673.98) rotate(-89.83)"/><path class="cls-27" d="M680.26,989a5.23,5.23,0,1,1-5.21-5.24A5.24,5.24,0,0,1,680.26,989Z" transform="translate(123.65)"/><path class="cls-27" d="M680.3,974.05a5.23,5.23,0,1,1-5.21-5.25A5.23,5.23,0,0,1,680.3,974.05Z" transform="translate(123.65)"/><path class="cls-27" d="M680.34,959.08a5.23,5.23,0,1,1-5.21-5.25A5.23,5.23,0,0,1,680.34,959.08Z" transform="translate(123.65)"/><path class="cls-5" d="M703.9,995.16a4.48,4.48,0,0,1-4.49,4.46h0a4.48,4.48,0,0,1-4.46-4.49l.1-33a4.47,4.47,0,0,1,4.48-4.46h0a4.48,4.48,0,0,1,4.46,4.49Z" transform="translate(123.65)"/><path class="cls-19" d="M563.15,1023.41l62.48.18a31.24,31.24,0,0,0-62.48-.18Z" transform="translate(123.65)"/><path class="cls-20" d="M625.63,1023.59a31.24,31.24,0,0,0-31.15-31.32l-.09,31.23Z" transform="translate(123.65)"/><path class="cls-5" d="M593.29,1005.51a6.82,6.82,0,1,1-6.8-6.84A6.82,6.82,0,0,1,593.29,1005.51Z" transform="translate(123.65)"/><path class="cls-14" d="M226,1033.32s54.42-22.09,54.59-73.26v-1.59a10.4,10.4,0,0,1,20.79.07v1.6c-.18,51.16,57.73,64.7,57.73,64.7s-36.25,1.1-69.21,4.39C270.09,1031.22,226,1033.32,226,1033.32Z" transform="translate(123.65)"/><path class="cls-28" d="M271.07,1030s74.78-22.81,75-93.11v-2.2a14.28,14.28,0,0,1,28.56.1V937c-.24,70.3,74.38,93.63,74.38,93.63s-63.32-5.81-90.73-5.65S271.07,1030,271.07,1030Z" transform="translate(123.65)"/><path class="cls-13" d="M361.82,954.33V946.5a1.31,1.31,0,0,0-1.31-1.3h0a1.3,1.3,0,0,0-1.3,1.3v7.83a1.31,1.31,0,0,0,1.3,1.3h0A1.31,1.31,0,0,0,361.82,954.33Z" transform="translate(123.65)"/><path class="cls-13" d="M364.43,949.11H356.6a1.3,1.3,0,0,0-1.3,1.3h0a1.31,1.31,0,0,0,1.3,1.31h7.83a1.31,1.31,0,0,0,1.3-1.31h0A1.3,1.3,0,0,0,364.43,949.11Z" transform="translate(123.65)"/><path class="cls-13" d="M351.93,971.9v-7.82a1.31,1.31,0,0,0-1.3-1.31h0a1.31,1.31,0,0,0-1.31,1.31v7.82a1.31,1.31,0,0,0,1.31,1.31h0A1.31,1.31,0,0,0,351.93,971.9Z" transform="translate(123.65)"/><path class="cls-13" d="M354.54,966.68h-7.83a1.31,1.31,0,0,0-1.3,1.31h0a1.3,1.3,0,0,0,1.3,1.3h7.83a1.31,1.31,0,0,0,1.31-1.3h0A1.31,1.31,0,0,0,354.54,966.68Z" transform="translate(123.65)"/><path class="cls-13" d="M373.9,988.38v-7.83a1.3,1.3,0,0,0-1.3-1.3h0a1.31,1.31,0,0,0-1.31,1.3v7.83a1.31,1.31,0,0,0,1.31,1.3h0A1.3,1.3,0,0,0,373.9,988.38Z" transform="translate(123.65)"/><path class="cls-13" d="M376.51,983.16h-7.83a1.31,1.31,0,0,0-1.3,1.31h0a1.31,1.31,0,0,0,1.3,1.3h7.83a1.31,1.31,0,0,0,1.31-1.3h0A1.31,1.31,0,0,0,376.51,983.16Z" transform="translate(123.65)"/><path class="cls-13" d="M360.72,1011.45v-7.83a1.3,1.3,0,0,0-1.3-1.3h0a1.31,1.31,0,0,0-1.31,1.3v7.83a1.31,1.31,0,0,0,1.31,1.3h0A1.3,1.3,0,0,0,360.72,1011.45Z" transform="translate(123.65)"/><path class="cls-13" d="M363.33,1006.23H355.5a1.31,1.31,0,0,0-1.3,1.31h0a1.3,1.3,0,0,0,1.3,1.3h7.83a1.3,1.3,0,0,0,1.3-1.3h0A1.31,1.31,0,0,0,363.33,1006.23Z" transform="translate(123.65)"/><path class="cls-13" d="M398.07,1015.84V1008a1.31,1.31,0,0,0-1.31-1.31h0a1.31,1.31,0,0,0-1.3,1.31v7.82a1.31,1.31,0,0,0,1.3,1.31h0A1.31,1.31,0,0,0,398.07,1015.84Z" transform="translate(123.65)"/><path class="cls-13" d="M400.68,1010.62h-7.83a1.31,1.31,0,0,0-1.3,1.31h0a1.3,1.3,0,0,0,1.3,1.3h7.83a1.3,1.3,0,0,0,1.3-1.3h0A1.31,1.31,0,0,0,400.68,1010.62Z" transform="translate(123.65)"/><path class="cls-13" d="M326.67,1022.43v-7.82a1.31,1.31,0,0,0-1.31-1.31h0a1.31,1.31,0,0,0-1.3,1.31v7.82a1.31,1.31,0,0,0,1.3,1.31h0A1.31,1.31,0,0,0,326.67,1022.43Z" transform="translate(123.65)"/><path class="cls-13" d="M329.28,1017.22h-7.83a1.31,1.31,0,0,0-1.31,1.3h0a1.31,1.31,0,0,0,1.31,1.31h7.83a1.31,1.31,0,0,0,1.3-1.31h0A1.3,1.3,0,0,0,329.28,1017.22Z" transform="translate(123.65)"/><path class="cls-13" d="M273.94,1019.14v-7.83a1.31,1.31,0,0,0-1.31-1.3h0a1.3,1.3,0,0,0-1.3,1.3v7.83a1.3,1.3,0,0,0,1.3,1.3h0A1.31,1.31,0,0,0,273.94,1019.14Z" transform="translate(123.65)"/><path class="cls-13" d="M276.55,1013.92h-7.83a1.31,1.31,0,0,0-1.31,1.3h0a1.31,1.31,0,0,0,1.31,1.31h7.83a1.31,1.31,0,0,0,1.3-1.31h0A1.31,1.31,0,0,0,276.55,1013.92Z" transform="translate(123.65)"/><path class="cls-13" d="M290.41,976.3v-7.83a1.3,1.3,0,0,0-1.3-1.3h0a1.3,1.3,0,0,0-1.3,1.3v7.83a1.3,1.3,0,0,0,1.3,1.3h0A1.3,1.3,0,0,0,290.41,976.3Z" transform="translate(123.65)"/><path class="cls-13" d="M293,971.08H285.2a1.31,1.31,0,0,0-1.31,1.3h0a1.31,1.31,0,0,0,1.31,1.31H293a1.31,1.31,0,0,0,1.31-1.31h0A1.31,1.31,0,0,0,293,971.08Z" transform="translate(123.65)"/><path class="cls-13" d="M293.71,1001.56v-7.82a1.31,1.31,0,0,0-1.3-1.31h0a1.31,1.31,0,0,0-1.31,1.31v7.82a1.31,1.31,0,0,0,1.31,1.31h0A1.31,1.31,0,0,0,293.71,1001.56Z" transform="translate(123.65)"/><path class="cls-13" d="M296.32,996.34h-7.83a1.31,1.31,0,0,0-1.3,1.31h0a1.3,1.3,0,0,0,1.3,1.3h7.83a1.3,1.3,0,0,0,1.3-1.3h0A1.31,1.31,0,0,0,296.32,996.34Z" transform="translate(123.65)"/></g></g></svg>